SplineFontDB: 3.0
FontName: Evolventa-Bold
FullName: Evolventa Bold
FamilyName: Evolventa
Weight: Bold
Copyright: Copyright (c) 2016 by Alex I. Kuznetsov.\n\nThis font is free software. You are allowed to distribute and/or modify it under the terms of either (or both) of the following two licenses (your choice):\n\n1) GNU General Public License version 2 (https://gnu.org/licenses/old-licenses/gpl-2.0.txt)\n2) The LaTeX Project Public License version 1.3c or (at your option) any later version (http://www.latex-project.org/lppl.txt)\n\nContains work kindly released to the open source community by URW++ Design and Development GmbH as "URW Gothic L" (version 001.005) with the following copyright notice: Copyright URW Software, Copyright 1996 by URW.\n\nOriginal URW fonts can be obtained at the Evolventa website (https://evolventa.github.io).\n
Version: 1.0
ItalicAngle: 0
UnderlinePosition: -93
UnderlineWidth: 90
Ascent: 800
Descent: 200
InvalidEm: 0
sfntRevision: 0x00010000
LayerCount: 2
Layer: 0 0 "Back" 1
Layer: 1 0 "Fore" 0
XUID: [1021 1017 285194369 30534]
StyleMap: 0x0020
FSType: 0
OS2Version: 4
OS2_WeightWidthSlopeOnly: 1
OS2_UseTypoMetrics: 1
CreationTime: 832050856
ModificationTime: 1494972561
PfmFamily: 17
TTFWeight: 700
TTFWidth: 5
LineGap: 0
VLineGap: 0
Panose: 2 11 7 2 2 2 2 2 2 4
OS2TypoAscent: 800
OS2TypoAOffset: 0
OS2TypoDescent: -200
OS2TypoDOffset: 0
OS2TypoLinegap: 330
OS2WinAscent: 1060
OS2WinAOffset: 0
OS2WinDescent: 270
OS2WinDOffset: 0
HheadAscent: 1060
HheadAOffset: 0
HheadDescent: -270
HheadDOffset: 0
OS2SubXSize: 650
OS2SubYSize: 699
OS2SubXOff: 0
OS2SubYOff: 140
OS2SupXSize: 650
OS2SupYSize: 699
OS2SupXOff: 0
OS2SupYOff: 479
OS2StrikeYSize: 49
OS2StrikeYPos: 258
OS2CapHeight: 739
OS2XHeight: 554
OS2FamilyClass: 2052
OS2Vendor: 'PfEd'
OS2CodePages: 00000005.00000000
OS2UnicodeRanges: 8000026f.5000004a.00000000.00000000

StartChar: .notdef
Encoding: 256 -1 0
Width: 761
Flags: MW
HStem: 0 63<150 220 541 611> 676 63<150 220 150 150 541 611 541 541>
VStem: 76 74<63 115 624 676> 611 74<63 115 115 115 624 676 676 676>
LayerCount: 2
Fore
SplineSet
685 0 m 1
 76 0 l 1
 76 739 l 1
 685 739 l 1
 685 0 l 1
220 63 m 1
 380 301 l 1
 541 63 l 1
 611 63 l 1
 611 115 l 1
 431 370 l 1
 611 624 l 1
 611 676 l 1
 541 676 l 1
 380 439 l 1
 220 676 l 1
 150 676 l 1
 150 624 l 1
 331 370 l 1
 150 115 l 1
 150 63 l 1
 220 63 l 1
EndSplineSet
EndChar

StartChar: exclam
Encoding: 33 33 2
Width: 321
GlyphClass: 2
Flags: MW
HStem: 0 128<94 227 94 227> 719 20G<94 227 227 227>
VStem: 94 133<0 128 0 128 188 739>
LayerCount: 2
Fore
SplineSet
94 188 m 1
 94 739 l 1
 227 739 l 1
 227 188 l 1
 94 188 l 1
94 0 m 1
 94 128 l 1
 227 128 l 1
 227 0 l 1
 94 0 l 1
EndSplineSet
EndChar

StartChar: quotedbl
Encoding: 34 34 3
Width: 337
GlyphClass: 2
Flags: MW
HStem: 513 226<64 140 64 140 197 273 64 197>
VStem: 64 76<513 739> 197 76<513 739>
LayerCount: 2
Fore
SplineSet
273 513 m 1
 197 513 l 1
 197 739 l 1
 273 739 l 1
 273 513 l 1
140 513 m 1
 64 513 l 1
 64 739 l 1
 140 739 l 1
 140 513 l 1
EndSplineSet
EndChar

StartChar: numbersign
Encoding: 35 35 4
Width: 560
GlyphClass: 2
Flags: MW
HStem: 0 21G<99 190 99 99 276 366 276 276> 233 100<34 131 34 144 234 308 34 221 411 500> 422 99<60 156 60 170 260 333 60 247 437 526> 719 20G<199 289 289 289 376 466 466 466>
LayerCount: 2
Fore
SplineSet
199 739 m 1
 289 739 l 1
 260 521 l 1
 347 521 l 1
 376 739 l 1
 466 739 l 1
 437 521 l 1
 526 521 l 1
 526 422 l 1
 423 422 l 1
 411 333 l 1
 500 333 l 1
 500 233 l 1
 398 233 l 1
 366 0 l 1
 276 0 l 1
 308 233 l 1
 221 233 l 1
 190 0 l 1
 99 0 l 1
 131 233 l 1
 34 233 l 1
 34 333 l 1
 144 333 l 1
 156 422 l 1
 60 422 l 1
 60 521 l 1
 170 521 l 1
 199 739 l 1
247 422 m 1
 234 333 l 1
 321 333 l 1
 333 422 l 1
 247 422 l 1
EndSplineSet
EndChar

StartChar: dollar
Encoding: 36 36 5
Width: 560
GlyphClass: 2
Flags: MW
HStem: -86 249<256 304 256 350 223 304> 613 243<265.5 300>
VStem: 91 133<536.5 568 536.5 588.5> 223 127<-86 46 -86 46 723 856> 364 133<222 262>
LayerCount: 2
Fore
SplineSet
62 249 m 1xd8
 196 249 l 1
 199 196 232 163 280 163 c 0
 328 163 364 198 364 246 c 0
 364 278 353 298 325 316 c 0
 307 328 307 328 220 361 c 0
 135 393 91 454 91 541 c 0xe8
 91 636 141 705 223 723 c 1
 223 856 l 1
 350 856 l 1
 350 723 l 1xd8
 418 710 471 636 474 551 c 1
 348 551 l 1
 340 591 317 613 283 613 c 0
 248 613 224 587 224 549 c 0xe8
 224 524 234 502 253 489 c 0
 269 476 286 468 338 449 c 0
 398 428 422 415 444 395 c 0
 478 364 497 313 497 251 c 0
 497 148 443 72 350 46 c 1
 350 -86 l 1
 223 -86 l 1
 223 46 l 1
 124 74 62 147 62 236 c 2
 62 249 l 1xd8
EndSplineSet
EndChar

StartChar: percent
Encoding: 37 37 6
Width: 860
GlyphClass: 2
Flags: MW
HStem: -13 107<636 676.5 636 706> 0 21G<225 327 225 225> 242 106<635 676> 391 107<184 224.5 184 254> 646 106<183 224> 719 20G<530 633 633 633>
VStem: 23 108<551.5 592.5 551.5 622> 278 107<551.5 592.5> 475 108<147.5 188.5 147.5 218> 730 107<147.5 188.5>
LayerCount: 2
Fore
SplineSet
530 739 m 1x77c0
 633 739 l 1
 327 0 l 1
 225 0 l 1
 530 739 l 1x77c0
657 348 m 0
 755 348 837 266 837 168 c 0
 837 68 756 -13 656 -13 c 0xb3c0
 556 -13 475 68 475 167 c 0
 475 269 555 348 657 348 c 0
655 242 m 0
 615 242 583 209 583 168 c 0
 583 127 616 94 656 94 c 0
 697 94 730 127 730 168 c 0
 730 209 697 242 655 242 c 0
205 752 m 0x3bc0
 303 752 385 670 385 572 c 0
 385 472 304 391 204 391 c 0
 104 391 23 472 23 571 c 0
 23 673 103 752 205 752 c 0x3bc0
203 646 m 0
 163 646 131 613 131 572 c 0
 131 531 164 498 204 498 c 0
 245 498 278 531 278 572 c 0
 278 613 245 646 203 646 c 0
EndSplineSet
EndChar

StartChar: ampersand
Encoding: 38 38 7
Width: 680
GlyphClass: 2
Flags: MW
HStem: -13 132<238 289.5 238 314.5> 627 125<281 317>
VStem: 34 133<187 238.5 187 268> 110 127<553 583.5 553 620.5> 360 127<548 584>
LayerCount: 2
Fore
SplineSet
510 433 m 1xd8
 659 433 l 1
 531 214 l 1
 663 73 l 1
 568 -13 l 1
 463 98 l 1
 400 14 354 -13 275 -13 c 0
 139 -13 34 90 34 223 c 0xe8
 34 313 75 376 172 433 c 1
 124 486 110 516 110 569 c 0
 110 672 191 752 296 752 c 0
 406 752 487 674 487 570 c 0
 487 520 471 476 440 442 c 0
 424 424 409 413 371 389 c 1
 438 314 l 1
 510 433 l 1xd8
288 481 m 1
 343 509 360 530 360 566 c 0
 360 602 335 627 299 627 c 0
 263 627 237 601 237 566 c 0xd8
 237 540 249 519 288 481 c 1
371 198 m 1
 256 322 l 1
 193 293 167 262 167 215 c 0xe8
 167 159 209 119 267 119 c 0
 312 119 336 138 371 198 c 1
EndSplineSet
EndChar

StartChar: quotesingle
Encoding: 39 39 8
Width: 204
GlyphClass: 2
Flags: MW
HStem: 513 226<64 140 64 140>
VStem: 64 76<513 739>
LayerCount: 2
Fore
SplineSet
140 513 m 1
 64 513 l 1
 64 739 l 1
 140 739 l 1
 140 513 l 1
EndSplineSet
EndChar

StartChar: parenleft
Encoding: 40 40 9
Width: 357
GlyphClass: 2
Flags: MW
HStem: 719 20G<311 311>
VStem: 36 135<241.5 360.5 241.5 372>
LayerCount: 2
Fore
SplineSet
311 8 m 1
 311 -137 l 1
 249 -116 208 -88 159 -32 c 0
 80 58 36 178 36 300 c 0
 36 444 96 582 195 669 c 0
 232 701 260 717 311 739 c 1
 311 595 l 1
 220 525 171 421 171 300 c 0
 171 183 229 61 311 8 c 1
EndSplineSet
EndChar

StartChar: parenright
Encoding: 41 41 10
Width: 357
GlyphClass: 2
Flags: MW
HStem: 719 20G<46 46>
VStem: 186 135<241.5 360.5>
LayerCount: 2
Fore
SplineSet
46 594 m 1
 46 739 l 1
 108 718 149 690 198 634 c 0
 277 544 321 424 321 302 c 0
 321 158 261 20 162 -67 c 0
 125 -99 97 -115 46 -137 c 1
 46 7 l 1
 137 77 186 181 186 302 c 0
 186 419 128 541 46 594 c 1
EndSplineSet
EndChar

StartChar: asterisk
Encoding: 42 42 11
Width: 409
GlyphClass: 2
Flags: MW
HStem: 554 71<54 54> 718 20G<163 163>
VStem: 54 301<554 625 625 625>
LayerCount: 2
Fore
SplineSet
100 706 m 1
 163 738 l 1
 207 652 l 1
 253 739 l 1
 312 703 l 1
 258 620 l 1
 355 626 l 1
 355 554 l 1
 258 559 l 1
 311 479 l 1
 254 441 l 1
 207 529 l 1
 164 441 l 1
 100 472 l 1
 152 561 l 1
 54 554 l 1
 54 625 l 1
 153 620 l 1
 100 706 l 1
EndSplineSet
EndChar

StartChar: plus
Encoding: 43 43 12
Width: 600
GlyphClass: 2
Flags: MW
HStem: 312 118<48 240 48 240 360 552>
VStem: 240 120<117 312 117 312 430 625>
LayerCount: 2
Fore
SplineSet
240 430 m 1
 240 625 l 1
 360 625 l 1
 360 430 l 1
 552 430 l 1
 552 312 l 1
 360 312 l 1
 360 117 l 1
 240 117 l 1
 240 312 l 1
 48 312 l 1
 48 430 l 1
 240 430 l 1
EndSplineSet
EndChar

StartChar: comma
Encoding: 44 44 13
Width: 281
GlyphClass: 2
Flags: MW
HStem: -140 67<74 88.5> 0 128<74 207 74 132>
VStem: 74 133<-140 -7 -73 -7 0 128> 133 74<-33.5 -15.5>
LayerCount: 2
Fore
SplineSet
74 0 m 1xe0
 74 128 l 1
 207 128 l 1xe0
 207 -7 l 2xd0
 207 -65 186 -102 141 -126 c 0
 119 -137 103 -140 74 -140 c 1
 74 -73 l 1xe0
 116 -65 133 -49 133 -18 c 0xd0
 133 -13 133 -7 132 0 c 1
 74 0 l 1xe0
EndSplineSet
EndChar

StartChar: hyphen
Encoding: 45 45 14
Width: 337
GlyphClass: 2
Flags: MW
HStem: 229 118<30 307 30 307>
VStem: 30 277<229 347 229 347>
LayerCount: 2
Fore
SplineSet
30 229 m 1
 30 347 l 1
 307 347 l 1
 307 229 l 1
 30 229 l 1
EndSplineSet
EndChar

StartChar: period
Encoding: 46 46 15
Width: 281
GlyphClass: 2
Flags: MW
HStem: 0 128<74 207 74 207>
VStem: 74 133<0 128 0 128>
LayerCount: 2
Fore
SplineSet
74 0 m 1
 74 128 l 1
 207 128 l 1
 207 0 l 1
 74 0 l 1
EndSplineSet
EndChar

StartChar: slash
Encoding: 47 47 16
Width: 460
GlyphClass: 2
Flags: MW
HStem: 719 20G<335 429 429 429>
LayerCount: 2
Fore
SplineSet
12 -128 m 1
 335 739 l 1
 429 739 l 1
 106 -128 l 1
 12 -128 l 1
EndSplineSet
EndChar

StartChar: zero
Encoding: 48 48 17
Width: 560
GlyphClass: 2
Flags: MW
HStem: -13 122<244 319.5 244 362> 630 122<245 317>
VStem: 32 133<247 251 251 498> 394 133<248 498 498 505>
AnchorPoint: "Anchor-0" 280 805 basechar 0
LayerCount: 2
Fore
SplineSet
527 505 m 2
 527 247 l 2
 527 83 438 -13 286 -13 c 0
 196 -13 125 20 79 81 c 0
 46 126 32 176 32 247 c 2
 32 498 l 2
 32 654 128 752 280 752 c 0
 430 752 527 655 527 505 c 2
165 498 m 2
 165 251 l 2
 165 159 206 109 282 109 c 0
 357 109 394 155 394 248 c 2
 394 498 l 2
 394 583 353 630 281 630 c 0
 209 630 165 580 165 498 c 2
EndSplineSet
Substitution2: "'pnum' Proportional Numbers lookup 6 subtable" zero.fitted
EndChar

StartChar: one
Encoding: 49 49 18
Width: 560
GlyphClass: 2
Flags: MW
HStem: 0 21G<238 238 238 371> 614 125<145 238 145 371>
VStem: 238 133<0 614 614 614>
AnchorPoint: "Anchor-0" 280 805 basechar 0
LayerCount: 2
Fore
SplineSet
238 0 m 1
 238 614 l 1
 145 614 l 1
 145 739 l 1
 371 739 l 1
 371 0 l 1
 238 0 l 1
EndSplineSet
Substitution2: "'pnum' Proportional Numbers lookup 6 subtable" one.fitted
EndChar

StartChar: two
Encoding: 50 50 19
Width: 560
GlyphClass: 2
Flags: MW
HStem: 0 125<228 519 228 519> 630 122<247.5 312.5>
VStem: 36 131<484 521> 389 133<490 547>
AnchorPoint: "Anchor-0" 280 805 basechar 0
LayerCount: 2
Fore
SplineSet
41 0 m 1
 41 117 l 1
 304 366 l 2
 365 423 389 466 389 514 c 0
 389 580 343 630 282 630 c 0
 213 630 167 572 167 484 c 1
 36 484 l 1
 36 558 48 604 78 649 c 0
 121 713 197 752 281 752 c 0
 419 752 522 649 522 512 c 0
 522 421 487 360 379 262 c 2
 228 125 l 1
 519 125 l 1
 519 0 l 1
 41 0 l 1
EndSplineSet
Substitution2: "'pnum' Proportional Numbers lookup 6 subtable" two.fitted
EndChar

StartChar: three
Encoding: 51 51 20
Width: 560
GlyphClass: 2
Flags: MW
HStem: -13 122<243.5 309.5 243.5 348.5> 356 128<225 225 225 247> 563 21G<77 212 77 77> 630 122<255.5 293>
VStem: 22 134<224 224> 339 133<544.5 580.5> 392 133<196.5 269.5>
AnchorPoint: "Anchor-0" 280 805 basechar 0
LayerCount: 2
Fore
SplineSet
225 356 m 1xfa
 225 484 l 1
 263 485 281 488 298 495 c 0
 325 507 339 529 339 560 c 0
 339 601 312 630 274 630 c 0
 237 630 218 609 212 563 c 1
 77 563 l 1
 82 625 95 658 128 692 c 0
 165 731 217 752 273 752 c 0
 387 752 472 667 472 553 c 0xfc
 472 496 453 457 410 426 c 1
 487 391 525 328 525 235 c 0
 525 92 420 -13 277 -13 c 0
 135 -13 30 85 22 224 c 1
 156 224 l 1
 165 154 211 109 276 109 c 0
 343 109 392 161 392 232 c 0
 392 307 336 356 247 356 c 2
 225 356 l 1xfa
EndSplineSet
Substitution2: "'pnum' Proportional Numbers lookup 6 subtable" three.fitted
EndChar

StartChar: four
Encoding: 52 52 21
Width: 560
GlyphClass: 2
Flags: MW
HStem: 0 21G<329 462 329 329> 111 119<145 329 145 329 462 540> 719 20G<350 462 462 462>
VStem: 329 133<0 111 0 111 230 515 515 515>
AnchorPoint: "Anchor-0" 280 805 basechar 0
LayerCount: 2
Fore
SplineSet
10 219 m 1
 350 739 l 1
 462 739 l 1
 462 230 l 1
 540 230 l 1
 540 111 l 1
 462 111 l 1
 462 0 l 1
 329 0 l 1
 329 111 l 1
 10 111 l 1
 10 219 l 1
329 230 m 1
 329 515 l 1
 145 230 l 1
 329 230 l 1
EndSplineSet
Substitution2: "'pnum' Proportional Numbers lookup 6 subtable" four.fitted
EndChar

StartChar: five
Encoding: 53 53 22
Width: 560
GlyphClass: 2
Flags: MW
HStem: -13 122<242 310 242 350> 377 122<278 310.5> 614 125<224 458 224 224>
VStem: 396 133<205 282.5>
AnchorPoint: "Anchor-0" 280 805 basechar 0
LayerCount: 2
Fore
SplineSet
55 353 m 1
 124 739 l 1
 458 739 l 1
 458 614 l 1
 224 614 l 1
 200 478 l 1
 238 494 261 499 295 499 c 0
 430 499 529 392 529 247 c 0
 529 98 422 -13 278 -13 c 0
 140 -13 28 88 21 221 c 1
 154 221 l 1
 168 149 210 109 274 109 c 0
 346 109 396 165 396 245 c 0
 396 320 345 377 276 377 c 0
 234 377 206 362 173 321 c 1
 55 353 l 1
EndSplineSet
Substitution2: "'pnum' Proportional Numbers lookup 6 subtable" five.fitted
EndChar

StartChar: six
Encoding: 54 54 23
Width: 560
GlyphClass: 2
Flags: MW
HStem: -13 122<246.5 319 246.5 357> 370 116<242 391> 719 20G<290 449 449 449>
VStem: 24 133<201 277 201 278> 403 133<200.5 277.5>
AnchorPoint: "Anchor-0" 280 805 basechar 0
LayerCount: 2
Fore
SplineSet
290 739 m 1
 449 739 l 1
 272 476 l 1
 295 484 308 486 332 486 c 0
 450 486 536 388 536 252 c 0
 536 97 431 -13 283 -13 c 0
 134 -13 24 95 24 242 c 0
 24 314 43 369 97 449 c 2
 290 739 l 1
277 370 m 0
 207 370 157 315 157 239 c 0
 157 163 209 109 284 109 c 0
 354 109 403 162 403 239 c 0
 403 316 352 370 277 370 c 0
EndSplineSet
Substitution2: "'pnum' Proportional Numbers lookup 6 subtable" six.fitted
EndChar

StartChar: seven
Encoding: 55 55 24
Width: 560
GlyphClass: 2
Flags: MW
HStem: 0 21G<80 80 80 230> 614 125<65 360 65 500 65 500>
AnchorPoint: "Anchor-0" 280 805 basechar 0
LayerCount: 2
Fore
SplineSet
80 0 m 1
 360 614 l 1
 65 614 l 1
 65 739 l 1
 500 739 l 1
 500 614 l 1
 230 0 l 1
 80 0 l 1
EndSplineSet
Substitution2: "'pnum' Proportional Numbers lookup 6 subtable" seven.fitted
EndChar

StartChar: eight
Encoding: 56 56 25
Width: 560
GlyphClass: 2
Flags: MW
HStem: -13 122<249.5 313.5 249.5 351> 341 128<261 303 261 311> 630 122<260 302.5>
VStem: 34 133<192.5 255> 79 127<526.5 571.5 526.5 605.5> 357 127<528 573.5> 393 133<192.5 258.5>
AnchorPoint: "Anchor-0" 280 805 basechar 0
LayerCount: 2
Fore
SplineSet
140 411 m 1xf2
 94 460 79 494 79 549 c 0
 79 662 169 752 282 752 c 0
 398 752 484 666 484 551 c 0xec
 484 489 465 445 422 411 c 1
 452 393 466 383 481 366 c 0
 510 333 526 285 526 232 c 0
 526 92 421 -13 281 -13 c 0
 141 -13 34 93 34 231 c 0
 34 279 49 327 76 360 c 0
 91 380 106 392 140 411 c 1xf2
281 630 m 0
 239 630 206 594 206 549 c 0
 206 504 240 469 282 469 c 0
 324 469 357 505 357 551 c 0
 357 596 324 630 281 630 c 0
279 341 m 0
 217 341 167 289 167 225 c 0
 167 160 217 109 282 109 c 0
 345 109 393 159 393 226 c 0xf2
 393 291 343 341 279 341 c 0
EndSplineSet
Substitution2: "'pnum' Proportional Numbers lookup 6 subtable" eight.fitted
EndChar

StartChar: nine
Encoding: 57 57 26
Width: 560
GlyphClass: 2
Flags: MW
HStem: 0 21G<110 269 110 110> 251 118<170 316> 630 122<240 312>
VStem: 25 133<461.5 538 461.5 564.5> 402 133<461.5 538.5>
AnchorPoint: "Anchor-0" 280 805 basechar 0
LayerCount: 2
Fore
SplineSet
269 0 m 1
 110 0 l 1
 288 263 l 1
 264 254 251 251 228 251 c 0
 112 251 25 353 25 487 c 0
 25 642 129 752 276 752 c 0
 425 752 535 643 535 496 c 0
 535 425 515 370 462 290 c 2
 269 0 l 1
274 630 m 0
 206 630 158 576 158 500 c 0
 158 423 209 369 281 369 c 0
 351 369 402 423 402 500 c 0
 402 577 350 630 274 630 c 0
EndSplineSet
Substitution2: "'pnum' Proportional Numbers lookup 6 subtable" nine.fitted
EndChar

StartChar: colon
Encoding: 58 58 27
Width: 281
GlyphClass: 2
Flags: MW
HStem: 0 128<74 207 74 207> 369 133<74 207 74 207>
VStem: 74 133<0 128 0 128 369 502>
LayerCount: 2
Fore
SplineSet
74 0 m 1
 74 128 l 1
 207 128 l 1
 207 0 l 1
 74 0 l 1
74 369 m 1
 74 502 l 1
 207 502 l 1
 207 369 l 1
 74 369 l 1
EndSplineSet
EndChar

StartChar: semicolon
Encoding: 59 59 28
Width: 281
GlyphClass: 2
Flags: MW
HStem: -140 67<74 92.5> 0 128<74 207 74 133> 369 133<74 207 74 207>
VStem: 74 133<-140 -7 -73 -7 0 128 369 502> 133 74<-15 -7 -7 0 0 0>
LayerCount: 2
Fore
SplineSet
74 0 m 1xf0
 74 128 l 1
 207 128 l 1xf0
 207 -7 l 2xe8
 207 -56 195 -84 164 -110 c 0
 140 -131 111 -140 74 -140 c 1
 74 -73 l 1xf0
 117 -65 133 -49 133 -15 c 2
 133 0 l 1xe8
 74 0 l 1xf0
74 369 m 1
 74 502 l 1
 207 502 l 1
 207 369 l 1
 74 369 l 1
EndSplineSet
EndChar

StartChar: less
Encoding: 60 60 29
Width: 600
GlyphClass: 2
Flags: W
LayerCount: 2
Fore
SplineSet
553 582 m 1
 553 465 l 1
 212 308 l 1
 553 149 l 1
 553 33 l 1
 44 258 l 1
 44 356 l 1
 553 582 l 1
EndSplineSet
EndChar

StartChar: equal
Encoding: 61 61 30
Width: 600
GlyphClass: 2
Flags: MW
HStem: 210 118<48 552 48 552> 405 118<48 552 48 552>
LayerCount: 2
Fore
SplineSet
552 523 m 1
 552 405 l 1
 48 405 l 1
 48 523 l 1
 552 523 l 1
552 328 m 1
 552 210 l 1
 48 210 l 1
 48 328 l 1
 552 328 l 1
EndSplineSet
EndChar

StartChar: greater
Encoding: 62 62 31
Width: 600
GlyphClass: 2
Flags: W
LayerCount: 2
Fore
SplineSet
47 33 m 1
 47 149 l 1
 389 306 l 1
 47 465 l 1
 47 582 l 1
 556 356 l 1
 556 258 l 1
 47 33 l 1
EndSplineSet
EndChar

StartChar: question
Encoding: 63 63 32
Width: 519
GlyphClass: 2
Flags: MW
HStem: 0 128<184 317 184 317> 620 132<229 283.5>
VStem: 31 133<520 520> 184 133<0 128 0 128 187 230.5 0 249> 351 133<511.5 554>
LayerCount: 2
Fore
SplineSet
317 187 m 1
 184 187 l 1
 184 311 206 360 306 442 c 0
 335 466 351 496 351 527 c 0
 351 581 311 620 256 620 c 0
 202 620 173 588 164 520 c 1
 31 520 l 1
 36 588 51 631 82 669 c 0
 125 722 189 752 259 752 c 0
 388 752 484 654 484 523 c 0
 484 456 460 413 382 344 c 0
 327 297 317 274 317 187 c 1
184 0 m 1
 184 128 l 1
 317 128 l 1
 317 0 l 1
 184 0 l 1
EndSplineSet
EndChar

StartChar: at
Encoding: 64 64 33
Width: 814
GlyphClass: 2
Flags: MW
HStem: -13 73<392 463.5 392 474.5> 154 83<596.5 630> 154 106<364.5 382> 465 112<383.5 419 334 435.5> 694 72<332 491.5 311 507>
VStem: 36 71<330.5 466.5 328 487.5> 190 120<325.5 385 325.5 410.5> 488 91<255 403> 705 73<365.5 431.5 325 496.5>
LayerCount: 2
Fore
SplineSet
613 573 m 1xbf80
 580 278 l 2
 579 274 579 269 579 265 c 0
 579 245 587 237 606 237 c 0
 659 237 705 318 705 413 c 0
 705 580 591 694 423 694 c 0
 241 694 107 558 107 375 c 0
 107 281 147 192 214 134 c 0
 268 87 350 60 434 60 c 0
 493 60 538 74 583 107 c 1
 629 47 l 1
 574 4 517 -13 432 -13 c 0
 302 -13 197 34 123 126 c 0
 67 195 36 284 36 377 c 0
 36 598 202 766 420 766 c 0
 563 766 685 695 741 581 c 0
 765 532 778 466 778 397 c 0
 778 253 693 154 567 154 c 0xdf80
 514 154 481 172 468 208 c 1
 443 171 409 154 355 154 c 0
 254 154 190 228 190 344 c 0
 190 477 276 577 392 577 c 0
 446 577 477 562 510 519 c 1
 517 573 l 1
 613 573 l 1xbf80
411 465 m 0
 356 465 310 415 310 355 c 0
 310 296 340 260 389 260 c 0xbf80
 447 260 488 307 488 374 c 0
 488 432 460 465 411 465 c 0
EndSplineSet
EndChar

StartChar: A
Encoding: 65 65 34
Width: 740
GlyphClass: 2
Flags: MW
HStem: 0 21G<7 7 7 158 582 582 582 733> 191 131<290 448 290 503 240 448> 719 20G<315 423 423 423>
AnchorPoint: "Anchor-0" 370 805 basechar 0
LayerCount: 2
Fore
SplineSet
7 0 m 1
 315 739 l 1
 423 739 l 1
 733 0 l 1
 582 0 l 1
 503 191 l 1
 240 191 l 1
 158 0 l 1
 7 0 l 1
290 322 m 1
 448 322 l 1
 369 546 l 1
 290 322 l 1
EndSplineSet
EndChar

StartChar: B
Encoding: 66 66 35
Width: 587
GlyphClass: 2
Flags: MW
HStem: 0 131<208 268> 320 134<208 252 252 273 208 252> 605 134<208 223 223 264 208 208>
VStem: 71 137<131 131 131 320 454 605> 370 137<507 555.5> 413 138<191.5 243 181 256.5>
AnchorPoint: "Anchor-0" 281 805 basechar 0
LayerCount: 2
Fore
SplineSet
71 0 m 1xf4
 71 739 l 1
 223 739 l 2
 336 739 382 730 427 700 c 0
 478 666 507 609 507 542 c 0xf8
 507 472 484 434 425 403 c 1
 474 383 496 368 517 339 c 0
 539 309 551 266 551 220 c 0
 551 142 514 75 450 38 c 0
 405 12 347 0 268 0 c 2
 71 0 l 1xf4
208 131 m 1
 276 131 l 2
 372 131 413 159 413 224 c 0xf4
 413 289 368 320 273 320 c 2
 208 320 l 1
 208 131 l 1
208 454 m 1
 252 454 l 2
 335 454 370 477 370 530 c 0xf8
 370 581 335 605 264 605 c 2
 208 605 l 1
 208 454 l 1
EndSplineSet
EndChar

StartChar: C
Encoding: 67 67 36
Width: 802
GlyphClass: 2
Flags: MW
HStem: -13 132<353.5 457.5 353.5 501> 620 132<381 462>
VStem: 36 138<302 401 302 476.5>
AnchorPoint: "Anchor-0" 420 805 basechar 0
LayerCount: 2
Fore
SplineSet
605 206 m 1
 766 206 l 1
 708 71 577 -13 425 -13 c 0
 209 -13 36 158 36 372 c 0
 36 581 207 752 416 752 c 0
 509 752 598 720 667 662 c 0
 714 622 738 589 766 527 c 1
 613 527 l 1
 563 592 505 620 419 620 c 0
 343 620 280 592 235 539 c 0
 197 495 174 431 174 371 c 0
 174 233 285 119 422 119 c 0
 493 119 544 143 605 206 c 1
EndSplineSet
EndChar

StartChar: D
Encoding: 68 68 37
Width: 699
GlyphClass: 2
Flags: MW
HStem: 0 131<208 238 238 243> 608 131<208 235 208 208>
VStem: 71 137<131 131 131 608> 525 138<323.5 416.5>
AnchorPoint: "Anchor-0" 341 805 basechar 0
LayerCount: 2
Fore
SplineSet
71 0 m 1
 71 739 l 1
 240 739 l 2
 361 739 450 720 510 681 c 0
 608 618 663 505 663 368 c 0
 663 215 593 93 476 38 c 0
 417 11 352 0 243 0 c 2
 71 0 l 1
208 131 m 1
 238 131 l 2
 320 131 377 142 418 164 c 0
 484 200 525 279 525 368 c 0
 525 465 480 545 407 581 c 0
 365 601 320 608 235 608 c 2
 208 608 l 1
 208 131 l 1
EndSplineSet
EndChar

StartChar: E
Encoding: 69 69 38
Width: 524
GlyphClass: 2
Flags: MW
HStem: 0 131<208 468 208 468> 303 131<208 457 208 457> 608 131<208 468 208 208>
VStem: 71 137<131 303 434 608>
AnchorPoint: "Anchor-0" 269 805 basechar 0
LayerCount: 2
Fore
SplineSet
71 0 m 1
 71 739 l 1
 468 739 l 1
 468 608 l 1
 208 608 l 1
 208 434 l 1
 457 434 l 1
 457 303 l 1
 208 303 l 1
 208 131 l 1
 468 131 l 1
 468 0 l 1
 71 0 l 1
EndSplineSet
EndChar

StartChar: F
Encoding: 70 70 39
Width: 495
GlyphClass: 2
Flags: MW
HStem: 0 21G<71 71 71 208> 303 131<208 436 208 436> 608 131<208 447 208 208>
VStem: 71 137<0 303 434 608>
AnchorPoint: "Anchor-0" 259 805 basechar 0
LayerCount: 2
Fore
SplineSet
71 0 m 1
 71 739 l 1
 447 739 l 1
 447 608 l 1
 208 608 l 1
 208 434 l 1
 436 434 l 1
 436 303 l 1
 208 303 l 1
 208 0 l 1
 71 0 l 1
EndSplineSet
EndChar

StartChar: G
Encoding: 71 71 40
Width: 857
GlyphClass: 2
Flags: MW
HStem: -13 132<357.5 479 357.5 494> 249 128<341 824 341 647> 620 132<386.5 465>
VStem: 36 138<298 401 298 477.5>
AnchorPoint: "Anchor-0" 428 805 basechar 0
LayerCount: 2
Fore
SplineSet
341 249 m 1
 341 377 l 1
 824 377 l 1
 824 359 l 2
 824 264 786 172 718 101 c 0
 645 26 550 -13 438 -13 c 0
 211 -13 36 154 36 371 c 0
 36 584 208 752 425 752 c 0
 586 752 738 656 786 522 c 1
 625 522 l 1
 579 586 508 620 422 620 c 0
 351 620 286 594 243 548 c 0
 201 503 174 433 174 369 c 0
 174 227 285 119 430 119 c 0
 528 119 607 167 647 249 c 1
 341 249 l 1
EndSplineSet
EndChar

StartChar: H
Encoding: 72 72 41
Width: 680
GlyphClass: 2
Flags: MW
HStem: 0 21G<71 71 71 208 472 472 472 609> 310 131<208 472 208 472> 719 20G<71 208 208 208 472 609 609 609>
VStem: 71 137<0 310 441 739> 472 137<0 310 310 310 441 739 0 739>
AnchorPoint: "Anchor-0" 340 805 basechar 0
LayerCount: 2
Fore
SplineSet
71 0 m 1
 71 739 l 1
 208 739 l 1
 208 441 l 1
 472 441 l 1
 472 739 l 1
 609 739 l 1
 609 0 l 1
 472 0 l 1
 472 310 l 1
 208 310 l 1
 208 0 l 1
 71 0 l 1
EndSplineSet
EndChar

StartChar: I
Encoding: 73 73 42
Width: 279
GlyphClass: 2
Flags: MW
HStem: 0 21G<71 71 71 208> 719 20G<71 208 208 208>
VStem: 71 137<0 739 0 739>
AnchorPoint: "Anchor-0" 139 805 basechar 0
LayerCount: 2
Fore
SplineSet
71 0 m 1
 71 739 l 1
 208 739 l 1
 208 0 l 1
 71 0 l 1
EndSplineSet
EndChar

StartChar: J
Encoding: 74 74 43
Width: 494
GlyphClass: 2
Flags: MW
HStem: -13 132<203 242 203 285> 719 20G<286 423 423 423>
VStem: 286 137<216 739>
AnchorPoint: "Anchor-0" 354 805 basechar 0
LayerCount: 2
Fore
SplineSet
286 739 m 1
 423 739 l 1
 423 212 l 2
 423 73 347 -13 223 -13 c 0
 159 -13 100 13 62 57 c 0
 34 89 23 118 18 175 c 1
 155 175 l 1
 164 138 186 119 220 119 c 0
 264 119 286 151 286 216 c 2
 286 739 l 1
EndSplineSet
EndChar

StartChar: K
Encoding: 75 75 44
Width: 614
GlyphClass: 2
Flags: MW
HStem: 0 21G<71 71 71 208 437 437 437 602> 719 20G<71 208 208 208 437 602 602 602>
VStem: 71 137<0 325 420 739>
AnchorPoint: "Anchor-0" 323 805 basechar 0
LayerCount: 2
Fore
SplineSet
71 0 m 1
 71 739 l 1
 208 739 l 1
 208 420 l 1
 437 739 l 1
 602 739 l 1
 324 376 l 1
 602 0 l 1
 437 0 l 1
 208 325 l 1
 208 0 l 1
 71 0 l 1
EndSplineSet
EndChar

StartChar: L
Encoding: 76 76 45
Width: 454
GlyphClass: 2
Flags: MW
HStem: 0 131<208 434 208 434> 719 20G<71 208 208 208>
VStem: 71 137<131 739 131 739 131 739>
AnchorPoint: "Anchor-0" 139 805 basechar 0
LayerCount: 2
Fore
SplineSet
71 0 m 1
 71 739 l 1
 208 739 l 1
 208 131 l 1
 434 131 l 1
 434 0 l 1
 71 0 l 1
EndSplineSet
EndChar

StartChar: M
Encoding: 77 77 46
Width: 914
GlyphClass: 2
Flags: MW
HStem: 0 21G<71 71 71 208 401 401 401 513 706 706 706 843> 719 20G<71 259 259 259 655 843 843 843>
VStem: 71 137<0 554 0 739> 706 137<0 554 554 554>
AnchorPoint: "Anchor-0" 457 805 basechar 0
LayerCount: 2
Fore
SplineSet
71 0 m 1
 71 739 l 1
 259 739 l 1
 458 179 l 1
 655 739 l 1
 843 739 l 1
 843 0 l 1
 706 0 l 1
 706 554 l 1
 513 0 l 1
 401 0 l 1
 208 554 l 1
 208 0 l 1
 71 0 l 1
EndSplineSet
EndChar

StartChar: N
Encoding: 78 78 47
Width: 741
GlyphClass: 2
Flags: MW
HStem: 0 21G<71 71 71 208 517 517 517 670> 719 20G<71 227 227 227 533 670 670 670>
VStem: 71 137<0 537 0 739> 533 137<201 739 0 739>
AnchorPoint: "Anchor-0" 370 805 basechar 0
LayerCount: 2
Fore
SplineSet
71 0 m 1
 71 739 l 1
 227 739 l 1
 533 201 l 1
 533 739 l 1
 670 739 l 1
 670 0 l 1
 517 0 l 1
 208 537 l 1
 208 0 l 1
 71 0 l 1
EndSplineSet
EndChar

StartChar: O
Encoding: 79 79 48
Width: 842
GlyphClass: 2
Flags: MW
HStem: -13 132<354 494 354 532.5> 620 132<350.5 490>
VStem: 36 138<299.5 439.5 299.5 477> 668 138<296.5 440.5>
AnchorPoint: "Anchor-0" 421 805 basechar 0
LayerCount: 2
Fore
SplineSet
427 752 m 0
 637 752 806 581 806 370 c 0
 806 154 640 -13 425 -13 c 0
 208 -13 36 155 36 369 c 0
 36 585 206 752 427 752 c 0
418 620 m 0
 283 620 174 509 174 370 c 0
 174 229 284 119 424 119 c 0
 564 119 668 225 668 368 c 0
 668 513 562 620 418 620 c 0
EndSplineSet
EndChar

StartChar: P
Encoding: 80 80 49
Width: 573
GlyphClass: 2
Flags: MW
HStem: 0 21G<71 71 71 208> 281 131<208 248 248 252 208 248> 608 131<208 254 208 208>
VStem: 71 137<0 281 412 608> 405 138<487 531.5>
AnchorPoint: "Anchor-0" 287 805 basechar 0
LayerCount: 2
Fore
SplineSet
71 0 m 1
 71 739 l 1
 254 739 l 2
 355 739 405 729 449 701 c 0
 509 662 543 594 543 511 c 0
 543 423 504 347 440 311 c 0
 400 289 353 281 252 281 c 2
 208 281 l 1
 208 0 l 1
 71 0 l 1
208 412 m 1
 248 412 l 2
 288 412 320 415 342 422 c 0
 381 433 405 466 405 508 c 0
 405 555 381 590 341 601 c 0
 320 606 299 608 254 608 c 2
 208 608 l 1
 208 412 l 1
EndSplineSet
EndChar

StartChar: Q
Encoding: 81 81 50
Width: 864
GlyphClass: 2
Flags: MW
HStem: -15 122<794 810.5 794 817> -13 132<389.5 455 389.5 474> 235 112<275.5 328.5> 620 132<355 501>
VStem: 36 137<363.5 440 363.5 477.5> 683 138<330.5 437.5>
AnchorPoint: "Anchor-0" 428 805 basechar 0
LayerCount: 2
Fore
SplineSet
834 110 m 1xbc
 834 -14 l 1
 826 -15 819 -15 815 -15 c 0xbc
 752 -15 704 2 641 45 c 1
 588 9 511 -13 437 -13 c 0x7c
 213 -13 36 156 36 370 c 0
 36 585 208 752 429 752 c 0
 654 752 821 587 821 366 c 0
 821 268 792 192 732 129 c 1
 763 113 782 107 806 107 c 0
 815 107 821 108 834 110 c 1xbc
525 138 m 1
 439 207 369 235 288 235 c 0
 263 235 248 233 217 227 c 1
 274 153 343 119 436 119 c 0x7c
 474 119 494 123 525 138 c 1
623 204 m 1
 663 245 683 297 683 364 c 0
 683 511 574 620 428 620 c 0
 282 620 173 512 173 368 c 0
 173 359 173 351 175 334 c 1
 210 343 244 347 289 347 c 0
 407 347 533 293 623 204 c 1
EndSplineSet
EndChar

StartChar: R
Encoding: 82 82 51
Width: 604
GlyphClass: 2
Flags: MW
HStem: 0 21G<71 71 71 208 402 402 402 571> 608 131<208 269 208 208>
VStem: 71 137<0 283 386 608> 426 138<464.5 516.5>
AnchorPoint: "Anchor-0" 290 805 basechar 0
LayerCount: 2
Fore
SplineSet
71 0 m 1
 71 739 l 1
 284 739 l 2
 388 739 442 724 491 680 c 0
 539 637 564 576 564 502 c 0
 564 427 537 367 484 324 c 0
 453 299 426 287 371 273 c 1
 571 0 l 1
 402 0 l 1
 208 283 l 1
 208 0 l 1
 71 0 l 1
208 386 m 1
 275 386 l 2
 381 386 426 420 426 498 c 0
 426 535 413 565 388 584 c 0
 366 601 331 608 269 608 c 2
 208 608 l 1
 208 386 l 1
EndSplineSet
EndChar

StartChar: S
Encoding: 83 83 52
Width: 524
GlyphClass: 2
Flags: MW
HStem: -13 132<231.5 291.5 231.5 328.5> 620 132<237.5 283>
VStem: 46 138<531 567 531 600.5> 362 136<182.5 225>
AnchorPoint: "Anchor-0" 261 805 basechar 0
LayerCount: 2
Fore
SplineSet
19 211 m 1
 162 211 l 1
 168 149 201 119 262 119 c 0
 321 119 362 156 362 209 c 0
 362 241 350 267 325 286 c 0
 303 302 298 305 200 341 c 0
 100 378 46 449 46 542 c 0
 46 659 141 752 261 752 c 0
 332 752 398 721 438 668 c 0
 465 632 477 596 480 542 c 1
 338 542 l 1
 334 592 306 620 260 620 c 0
 215 620 184 589 184 545 c 0
 184 517 199 494 227 477 c 0
 236 471 239 470 307 445 c 0
 380 417 403 405 432 378 c 0
 476 338 498 286 498 224 c 0
 498 90 395 -13 262 -13 c 0
 181 -13 107 22 64 81 c 0
 35 120 23 155 19 211 c 1
EndSplineSet
EndChar

StartChar: T
Encoding: 84 84 53
Width: 425
GlyphClass: 2
Flags: MW
HStem: 0 21G<144 144 144 281> 608 131<7 144 7 418 281 281 281 418>
VStem: 144 137<0 608 0 608>
AnchorPoint: "Anchor-0" 212 805 basechar 0
LayerCount: 2
Fore
SplineSet
144 0 m 1
 144 608 l 1
 7 608 l 1
 7 739 l 1
 418 739 l 1
 418 608 l 1
 281 608 l 1
 281 0 l 1
 144 0 l 1
EndSplineSet
EndChar

StartChar: U
Encoding: 85 85 54
Width: 641
GlyphClass: 2
Flags: MW
HStem: -13 132<300 340.5 300 359> 719 20G<71 208 208 208 433 570 570 570>
VStem: 71 137<271 739> 433 137<271 739>
AnchorPoint: "Anchor-0" 320 805 basechar 0
LayerCount: 2
Fore
SplineSet
71 739 m 1
 208 739 l 1
 208 271 l 2
 208 216 212 193 226 169 c 0
 245 138 280 119 320 119 c 0
 361 119 396 138 415 169 c 0
 429 193 433 216 433 271 c 2
 433 739 l 1
 570 739 l 1
 570 271 l 2
 570 182 554 126 517 78 c 0
 472 21 398 -13 320 -13 c 0
 231 -13 150 31 108 102 c 0
 82 146 71 195 71 271 c 2
 71 739 l 1
EndSplineSet
EndChar

StartChar: V
Encoding: 86 86 55
Width: 694
GlyphClass: 2
Flags: MW
HStem: 0 21G<292 292 292 404> 719 20G<4 148 148 148 546 690 690 690>
AnchorPoint: "Anchor-0" 347 805 basechar 0
LayerCount: 2
Fore
SplineSet
292 0 m 1
 4 739 l 1
 148 739 l 1
 347 177 l 1
 546 739 l 1
 690 739 l 1
 404 0 l 1
 292 0 l 1
EndSplineSet
EndChar

StartChar: W
Encoding: 87 87 56
Width: 915
GlyphClass: 2
Flags: MW
HStem: 0 21G<229 229 229 337 578 578 578 687> 719 20G<12 152 152 152 408 508 508 508 763 903 903 903>
AnchorPoint: "Anchor-0" 457 805 basechar 0
LayerCount: 2
Fore
SplineSet
229 0 m 1
 12 739 l 1
 152 739 l 1
 282 223 l 1
 408 739 l 1
 508 739 l 1
 632 223 l 1
 763 739 l 1
 903 739 l 1
 687 0 l 1
 578 0 l 1
 459 489 l 1
 337 0 l 1
 229 0 l 1
EndSplineSet
EndChar

StartChar: X
Encoding: 88 88 57
Width: 685
GlyphClass: 2
Flags: MW
HStem: 0 21G<7 7 7 170 519 519 519 678> 719 20G<7 170 170 170 519 678 678 678>
AnchorPoint: "Anchor-0" 342 805 basechar 0
LayerCount: 2
Fore
SplineSet
7 0 m 1
 261 368 l 1
 7 739 l 1
 170 739 l 1
 342 481 l 1
 519 739 l 1
 678 739 l 1
 422 368 l 1
 678 0 l 1
 519 0 l 1
 342 255 l 1
 170 0 l 1
 7 0 l 1
EndSplineSet
EndChar

StartChar: Y
Encoding: 89 89 58
Width: 637
GlyphClass: 2
Flags: MW
HStem: 0 21G<250 250 250 387> 719 20G<7 155 155 155 482 630 630 630>
VStem: 250 137<0 273 0 273>
AnchorPoint: "Anchor-0" 318 805 basechar 0
LayerCount: 2
Fore
SplineSet
250 0 m 1
 250 273 l 1
 7 739 l 1
 155 739 l 1
 319 399 l 1
 482 739 l 1
 630 739 l 1
 387 273 l 1
 387 0 l 1
 250 0 l 1
EndSplineSet
EndChar

StartChar: Z
Encoding: 90 90 59
Width: 522
GlyphClass: 2
Flags: MW
HStem: 0 131<195 492 195 492> 608 131<45 310 45 473>
AnchorPoint: "Anchor-0" 259 805 basechar 0
LayerCount: 2
Fore
SplineSet
30 116 m 1
 310 608 l 1
 45 608 l 1
 45 739 l 1
 473 739 l 1
 473 616 l 1
 195 131 l 1
 492 131 l 1
 492 0 l 1
 30 0 l 1
 30 116 l 1
EndSplineSet
EndChar

StartChar: bracketleft
Encoding: 91 91 60
Width: 313
GlyphClass: 2
Flags: MW
HStem: 719 20G<276 276>
VStem: 58 135<187 419>
LayerCount: 2
Fore
SplineSet
276 739 m 1
 276 592 l 1
 240 577 224 563 213 539 c 0
 200 510 193 469 193 419 c 2
 193 164 l 2
 193 124 200 89 213 62 c 0
 225 37 241 24 276 10 c 1
 276 -137 l 1
 195 -119 143 -83 103 -17 c 0
 73 34 58 99 58 187 c 2
 58 446 l 2
 58 541 84 612 139 666 c 0
 174 702 206 719 276 739 c 1
EndSplineSet
EndChar

StartChar: backslash
Encoding: 92 92 61
Width: 481
GlyphClass: 2
Flags: MW
HStem: 0 21G<356 450 356 356> 719 20G<31 125 125 125>
LayerCount: 2
Fore
SplineSet
450 0 m 1
 356 0 l 1
 31 739 l 1
 125 739 l 1
 450 0 l 1
EndSplineSet
EndChar

StartChar: bracketright
Encoding: 93 93 62
Width: 313
GlyphClass: 2
Flags: MW
HStem: 719 20G<37 37>
VStem: 120 135<183 415>
LayerCount: 2
Fore
SplineSet
37 -137 m 1
 37 10 l 1
 73 25 89 39 100 63 c 0
 113 92 120 133 120 183 c 2
 120 438 l 2
 120 478 113 513 100 540 c 0
 88 565 72 578 37 592 c 1
 37 739 l 1
 118 721 170 685 210 619 c 0
 240 568 255 503 255 415 c 2
 255 156 l 2
 255 61 229 -10 175 -64 c 0
 140 -99 107 -117 37 -137 c 1
EndSplineSet
EndChar

StartChar: asciicircum
Encoding: 94 94 63
Width: 600
GlyphClass: 2
Flags: MW
HStem: 719 20G<239 361 361 361>
LayerCount: 2
Fore
SplineSet
164 313 m 1
 60 363 l 1
 239 739 l 1
 361 739 l 1
 540 363 l 1
 436 313 l 1
 300 589 l 1
 164 313 l 1
EndSplineSet
EndChar

StartChar: underscore
Encoding: 95 95 64
Width: 500
GlyphClass: 2
Flags: MW
HStem: -138 90<0 500 0 500>
LayerCount: 2
Fore
SplineSet
0 -48 m 1
 500 -48 l 1
 500 -138 l 1
 0 -138 l 1
 0 -48 l 1
EndSplineSet
EndChar

StartChar: grave
Encoding: 96 96 65
Width: 407
GlyphClass: 2
Flags: MW
HStem: 613 212<121 290>
VStem: 64 279<692 737>
LayerCount: 2
Fore
SplineSet
64 737 m 1
 121 825 l 1
 343 692 l 1
 290 613 l 1
 64 737 l 1
EndSplineSet
EndChar

StartChar: a
Encoding: 97 97 66
Width: 667
GlyphClass: 2
Flags: MW
HStem: -13 122<277.5 346> 0 21G<491 613 491 491> 445 122<275.5 350 228 370.5> 534 20G<491 613 613 613>
VStem: 28 134<223.5 322 223.5 359.5> 491 122<0 72 72 72 480 554 0 554>
AnchorPoint: "Anchor-0" 347 630 basechar 0
LayerCount: 2
Fore
SplineSet
613 554 m 1x1c
 613 0 l 1
 491 0 l 1x5c
 491 72 l 1
 438 11 385 -13 307 -13 c 0
 145 -13 28 108 28 275 c 0
 28 444 146 567 310 567 c 0xac
 390 567 445 541 491 480 c 1
 491 554 l 1
 613 554 l 1x1c
322 445 m 0xac
 229 445 162 372 162 272 c 0
 162 175 229 109 326 109 c 0
 422 109 487 176 487 275 c 0
 487 375 419 445 322 445 c 0xac
EndSplineSet
EndChar

StartChar: b
Encoding: 98 98 67
Width: 666
GlyphClass: 2
Flags: MW
HStem: -13 122<327 390.5 295 411> 0 21G<54 54 54 176> 452 122<322.5 387> 719 20G<54 187 187 187>
VStem: 54 122<0 71 0 739> 54 133<503 739 503 739 503 739> 504 134<244 330>
AnchorPoint: "Anchor-0" 328 805 basechar 0
LayerCount: 2
Fore
SplineSet
54 0 m 1x7a
 54 739 l 1
 187 739 l 1
 187 503 l 1
 239 554 286 574 359 574 c 0
 519 574 638 449 638 281 c 0
 638 207 615 138 573 84 c 0
 522 19 454 -13 368 -13 c 0xb6
 286 -13 233 10 176 71 c 1
 176 0 l 1
 54 0 l 1x7a
338 452 m 0
 245 452 179 380 179 279 c 0
 179 180 247 109 343 109 c 0
 438 109 504 178 504 279 c 0
 504 381 436 452 338 452 c 0
EndSplineSet
EndChar

StartChar: c
Encoding: 99 99 68
Width: 625
GlyphClass: 2
Flags: MW
HStem: -13 122<277 350.5 277 389> 445 122<273.5 350>
VStem: 28 134<229.5 327 229.5 358.5>
AnchorPoint: "Anchor-0" 320 630 basechar 0
LayerCount: 2
Fore
SplineSet
449 182 m 1
 599 182 l 1
 553 58 454 -13 324 -13 c 0
 160 -13 28 116 28 277 c 0
 28 440 156 567 320 567 c 0
 399 567 474 538 528 485 c 0
 563 451 580 423 599 369 c 1
 449 369 l 1
 422 421 380 445 320 445 c 0
 227 445 162 376 162 278 c 0
 162 181 231 109 323 109 c 0
 378 109 416 131 449 182 c 1
EndSplineSet
EndChar

StartChar: d
Encoding: 100 100 69
Width: 665
GlyphClass: 2
Flags: MW
HStem: -13 122<281 343.5> 0 21G<489 611 489 489> 452 122<277 340 227.5 370> 719 20G<478 611 611 611>
VStem: 28 134<233.5 330 233.5 361> 478 133<505 739 0 739> 489 122<0 72 72 72>
AnchorPoint: "Anchor-0" 324 805 basechar 0
LayerCount: 2
Fore
SplineSet
611 739 m 1xbc
 611 0 l 1
 489 0 l 1
 489 72 l 1x7a
 435 12 381 -13 306 -13 c 0
 149 -13 28 113 28 278 c 0
 28 444 150 574 305 574 c 0
 375 574 439 548 478 505 c 1
 478 739 l 1
 611 739 l 1xbc
322 452 m 0
 232 452 162 378 162 282 c 0
 162 185 235 109 327 109 c 0xb8
 417 109 488 184 488 279 c 0
 488 379 418 452 322 452 c 0
EndSplineSet
EndChar

StartChar: e
Encoding: 101 101 70
Width: 634
GlyphClass: 2
Flags: MW
HStem: -13 122<285.5 352.5 285.5 373.5> 218 117<172 475 168 601 172 172> 445 122<282.5 363>
AnchorPoint: "Anchor-0" 324 630 basechar 0
LayerCount: 2
Fore
SplineSet
601 218 m 1
 172 218 l 1
 188 151 246 109 325 109 c 0
 380 109 413 124 447 164 c 1
 592 164 l 1
 583 136 569 113 548 87 c 0
 490 19 419 -13 328 -13 c 0
 159 -13 28 113 28 275 c 0
 28 438 157 567 320 567 c 0
 485 567 606 441 606 269 c 0
 606 249 605 237 601 218 c 1
168 335 m 1
 475 335 l 1
 458 406 404 445 322 445 c 0
 243 445 189 407 168 335 c 1
EndSplineSet
EndChar

StartChar: f
Encoding: 102 102 71
Width: 294
GlyphClass: 2
Flags: MW
HStem: 0 21G<68 68 68 201> 433 111<20 68 20 68 201 276> 611 128<244.5 255.5 223 270 223 284>
VStem: 68 133<0 433 0 433 0 544>
AnchorPoint: "Anchor-0" 171 805 basechar 0
LayerCount: 2
Fore
SplineSet
68 0 m 1
 68 433 l 1
 20 433 l 1
 20 544 l 1
 68 544 l 1
 75 616 86 648 115 680 c 0
 149 719 195 739 251 739 c 0
 260 739 268 739 284 737 c 1
 284 611 l 1
 270 611 l 2
 219 611 202 594 201 544 c 1
 276 544 l 1
 276 433 l 1
 201 433 l 1
 201 0 l 1
 68 0 l 1
EndSplineSet
EndChar

StartChar: g
Encoding: 103 103 72
Width: 663
GlyphClass: 2
Flags: MW
HStem: -221 117<296 370.5> -13 122<270.5 339> 445 122<268.5 341 222.5 362.5> 534 20G<482 609 609 609>
VStem: 28 134<224.5 326 224.5 363> 482 127<484 554>
AnchorPoint: "Anchor-0" 347 630 basechar 0
LayerCount: 2
Fore
SplineSet
482 554 m 1xdc
 609 554 l 1xdc
 609 105 l 2
 609 -5 591 -73 548 -125 c 0
 496 -188 419 -221 322 -221 c 0
 186 -221 82 -156 37 -45 c 1
 188 -45 l 1
 227 -88 265 -104 327 -104 c 0
 426 -104 477 -46 482 73 c 1
 430 12 378 -13 300 -13 c 0
 142 -13 28 110 28 281 c 0
 28 445 144 567 301 567 c 0xec
 381 567 440 540 482 484 c 1
 482 554 l 1xdc
314 445 m 0xec
 223 445 162 377 162 275 c 0
 162 174 223 109 318 109 c 0
 414 109 476 175 476 277 c 0
 476 377 411 445 314 445 c 0xec
EndSplineSet
EndChar

StartChar: h
Encoding: 104 104 73
Width: 597
GlyphClass: 2
Flags: MW
HStem: 0 21G<54 54 54 187 412 412 412 545> 445 123<299 343> 719 20G<54 187 187 187>
VStem: 54 133<0 281 516 739> 412 133<0 283 283 313 0 341.5>
AnchorPoint: "Anchor-0" 294 805 basechar 0
LayerCount: 2
Fore
SplineSet
54 0 m 1
 54 739 l 1
 187 739 l 1
 187 516 l 1
 227 552 270 568 328 568 c 0
 409 568 475 535 511 476 c 0
 536 435 545 391 545 313 c 2
 545 0 l 1
 412 0 l 1
 412 283 l 2
 412 400 382 445 304 445 c 0
 258 445 224 426 205 389 c 0
 192 365 187 334 187 281 c 2
 187 0 l 1
 54 0 l 1
EndSplineSet
EndChar

StartChar: i
Encoding: 105 105 74
Width: 241
GlyphClass: 2
Flags: MW
HStem: 0 21G<54 54 54 187> 534 20G<54 187 187 187> 614 125<54 187 54 187>
VStem: 54 133<0 554 0 554 614 739>
AnchorPoint: "Anchor-0" 120 805 basechar 0
LayerCount: 2
Fore
SplineSet
54 0 m 1
 54 554 l 1
 187 554 l 1
 187 0 l 1
 54 0 l 1
54 614 m 1
 54 739 l 1
 187 739 l 1
 187 614 l 1
 54 614 l 1
EndSplineSet
Substitution2: "Single Substitution lookup 3 subtable" i.dotless
EndChar

StartChar: j
Encoding: 106 106 75
Width: 255
GlyphClass: 2
Flags: MW
HStem: -185 21G<13 38.5> 534 20G<68 201 201 201> 614 125<68 201 68 201>
VStem: 68 133<40 554 614 739>
AnchorPoint: "Anchor-0" 134 805 basechar 0
LayerCount: 2
Fore
SplineSet
68 554 m 1
 201 554 l 1
 201 37 l 2
 201 -46 183 -99 142 -137 c 0
 109 -168 64 -185 13 -185 c 1
 13 -56 l 1
 63 -47 68 -38 68 40 c 2
 68 554 l 1
68 614 m 1
 68 739 l 1
 201 739 l 1
 201 614 l 1
 68 614 l 1
EndSplineSet
Substitution2: "Single Substitution lookup 3 subtable" j.dotless
EndChar

StartChar: k
Encoding: 107 107 76
Width: 557
GlyphClass: 2
Flags: MW
HStem: 0 21G<54 54 54 187 376 376 376 555> 534 20G<364 523 523 523> 719 20G<54 187 187 187>
VStem: 54 133<0 259 293 739>
AnchorPoint: "Anchor-0" 270 805 basechar 0
LayerCount: 2
Fore
SplineSet
54 0 m 1
 54 739 l 1
 187 739 l 1
 187 293 l 1
 364 554 l 1
 523 554 l 1
 325 283 l 1
 555 0 l 1
 376 0 l 1
 187 259 l 1
 187 0 l 1
 54 0 l 1
EndSplineSet
EndChar

StartChar: l
Encoding: 108 108 77
Width: 241
GlyphClass: 2
Flags: MW
HStem: 0 21G<54 54 54 187> 719 20G<54 187 187 187>
VStem: 54 133<0 739 0 739>
AnchorPoint: "Anchor-0" 120 805 basechar 0
LayerCount: 2
Fore
SplineSet
54 0 m 1
 54 739 l 1
 187 739 l 1
 187 0 l 1
 54 0 l 1
EndSplineSet
EndChar

StartChar: m
Encoding: 109 109 78
Width: 937
GlyphClass: 2
Flags: MW
HStem: 0 21G<54 54 54 187 403 403 403 536 752 752 752 885> 445 122<287.5 313 626.5 664> 534 20G<54 176 176 176>
VStem: 54 133<0 273 0 554> 403 133<0 273 0 304 0 331> 752 133<0 304 304 320 0 332.5>
CounterMasks: 1 1c
AnchorPoint: "Anchor-0" 469 630 basechar 0
LayerCount: 2
Fore
SplineSet
54 0 m 1xdc
 54 554 l 1
 176 554 l 1xbc
 176 502 l 1
 215 549 255 567 320 567 c 0
 397 567 445 542 483 481 c 1
 528 541 582 567 660 567 c 0
 747 567 817 533 852 474 c 0
 873 437 885 384 885 320 c 2
 885 0 l 1
 752 0 l 1
 752 304 l 2
 752 361 744 392 725 413 c 0
 707 434 680 445 648 445 c 0
 605 445 571 425 553 389 c 0
 541 364 536 333 536 273 c 2
 536 0 l 1
 403 0 l 1
 403 304 l 2
 403 358 395 391 378 412 c 0
 360 433 330 445 296 445 c 0
 249 445 216 424 200 385 c 0
 191 363 187 326 187 273 c 2
 187 0 l 1
 54 0 l 1xdc
EndSplineSet
EndChar

StartChar: n
Encoding: 110 110 79
Width: 598
GlyphClass: 2
Flags: MW
HStem: 0 21G<54 54 54 187 413 413 413 546> 445 122<301 324> 534 20G<54 177 177 177>
VStem: 54 123<501 554 501 554 501 554> 54 133<0 261 0 554> 413 133<0 271 271 297 0 309>
AnchorPoint: "Anchor-0" 300 630 basechar 0
LayerCount: 2
Fore
SplineSet
54 0 m 1xcc
 54 554 l 1
 177 554 l 1
 177 501 l 1xb4
 226 549 269 567 333 567 c 0
 412 567 474 537 510 482 c 0
 537 439 546 393 546 297 c 2
 546 0 l 1
 413 0 l 1
 413 271 l 2
 413 347 405 388 385 412 c 0
 367 434 341 445 307 445 c 0
 263 445 228 426 208 391 c 0
 192 365 187 333 187 261 c 2
 187 0 l 1
 54 0 l 1xcc
EndSplineSet
EndChar

StartChar: o
Encoding: 111 111 80
Width: 645
GlyphClass: 2
Flags: MW
HStem: -13 122<278 366.5 278 404> 445 122<277 365.5>
VStem: 28 134<230.5 323 230.5 357> 483 134<230 323.5>
AnchorPoint: "Anchor-0" 322 630 basechar 0
LayerCount: 2
Fore
SplineSet
325 567 m 0
 486 567 617 436 617 276 c 0
 617 117 485 -13 323 -13 c 0
 160 -13 28 117 28 276 c 0
 28 438 159 567 325 567 c 0
320 445 m 0
 234 445 162 369 162 277 c 0
 162 184 234 109 322 109 c 0
 411 109 483 184 483 276 c 0
 483 371 411 445 320 445 c 0
EndSplineSet
EndChar

StartChar: p
Encoding: 112 112 81
Width: 662
GlyphClass: 2
Flags: MW
HStem: -185 21G<54 54 54 187> -13 122<323 386.5 296 437> 445 122<320.5 385> 534 20G<54 176 176 176>
VStem: 54 122<489 554 489 554 489 554> 54 133<-185 52 -185 554> 500 134<229 324.5>
AnchorPoint: "Anchor-0" 328 630 basechar 0
LayerCount: 2
Fore
SplineSet
54 -185 m 1xe6
 54 554 l 1
 176 554 l 1
 176 489 l 1xda
 219 540 283 567 358 567 c 0
 518 567 634 446 634 279 c 0
 634 111 517 -13 357 -13 c 0
 289 -13 238 7 187 52 c 1
 187 -185 l 1
 54 -185 l 1xe6
338 445 m 0xe2
 248 445 179 372 179 275 c 0
 179 181 250 109 342 109 c 0
 431 109 500 182 500 276 c 0
 500 373 432 445 338 445 c 0xe2
EndSplineSet
EndChar

StartChar: q
Encoding: 113 113 82
Width: 663
GlyphClass: 2
Flags: MW
HStem: -185 21G<476 609 476 476> -13 122<278 343> 445 122<277 347.5 229 369.5> 534 20G<487 609 609 609>
VStem: 28 134<228 323.5 228 359.5> 476 133<-185 53 53 53> 487 122<483 554 -185 554>
AnchorPoint: "Anchor-0" 347 630 basechar 0
LayerCount: 2
Fore
SplineSet
487 554 m 1xda
 609 554 l 1xda
 609 -185 l 1
 476 -185 l 1
 476 53 l 1
 432 9 377 -13 309 -13 c 0
 150 -13 28 114 28 279 c 0
 28 440 151 567 307 567 c 0xec
 388 567 443 541 487 483 c 1
 487 554 l 1xda
322 445 m 0xe8
 232 445 162 371 162 276 c 0
 162 180 231 109 325 109 c 0
 416 109 484 179 484 275 c 0
 484 374 417 445 322 445 c 0xe8
EndSplineSet
EndChar

StartChar: r
Encoding: 114 114 83
Width: 330
GlyphClass: 2
Flags: MW
HStem: 0 21G<54 54 54 187> 439 128<296 306> 534 20G<54 176 176 176>
VStem: 54 122<500 554 500 554 500 554> 54 133<0 308 0 554>
AnchorPoint: "Anchor-0" 175 630 basechar 0
LayerCount: 2
Fore
SplineSet
54 0 m 1xc8
 54 554 l 1
 176 554 l 1
 176 500 l 1xb0
 211 552 239 567 296 567 c 2
 306 567 l 1
 306 439 l 1
 226 437 187 394 187 308 c 2
 187 0 l 1
 54 0 l 1xc8
EndSplineSet
EndChar

StartChar: s
Encoding: 115 115 84
Width: 438
GlyphClass: 2
Flags: MW
HStem: -13 122<203.5 240.5 203.5 273.5> 445 122<204.5 233>
VStem: 35 133<390 411.5 390 445.5> 283 133<147.5 172>
AnchorPoint: "Anchor-0" 220 630 basechar 0
LayerCount: 2
Fore
SplineSet
15 176 m 1
 149 176 l 1
 162 129 184 109 223 109 c 0
 258 109 283 132 283 163 c 0
 283 181 274 196 258 206 c 0
 244 215 239 217 189 234 c 0
 78 271 35 317 35 398 c 0
 35 493 115 567 219 567 c 0
 276 567 330 543 365 502 c 0
 389 473 399 446 401 401 c 1
 271 401 l 1
 265 430 247 445 219 445 c 0
 190 445 168 425 168 398 c 0
 168 382 177 369 194 361 c 0
 208 355 208 355 262 338 c 0
 374 304 416 260 416 176 c 0
 416 70 329 -13 218 -13 c 0
 149 -13 85 18 50 67 c 0
 29 97 20 124 15 176 c 1
EndSplineSet
EndChar

StartChar: t
Encoding: 116 116 85
Width: 303
GlyphClass: 2
Flags: MW
HStem: 0 21G<78 78 78 211> 433 121<13 78 13 78 211 291> 719 20G<78 211 211 211>
VStem: 78 133<0 433 0 433 554 739>
AnchorPoint: "Anchor-0" 144 805 basechar 0
LayerCount: 2
Fore
SplineSet
78 0 m 1
 78 433 l 1
 13 433 l 1
 13 554 l 1
 78 554 l 1
 78 739 l 1
 211 739 l 1
 211 554 l 1
 291 554 l 1
 291 433 l 1
 211 433 l 1
 211 0 l 1
 78 0 l 1
EndSplineSet
EndChar

StartChar: u
Encoding: 117 117 86
Width: 599
GlyphClass: 2
Flags: MW
HStem: -13 122<273 296.5> 0 21G<422 545 422 422> 534 20G<52 185 185 185 412 545 545 545>
VStem: 52 133<257 283 283 554> 412 133<293 554 0 554> 422 123<0 53 53 53>
AnchorPoint: "Anchor-0" 298 630 basechar 0
LayerCount: 2
Fore
SplineSet
545 554 m 1xb8
 545 0 l 1
 422 0 l 1
 422 53 l 1x74
 371 4 330 -13 263 -13 c 0
 188 -13 127 18 91 74 c 0
 62 119 52 166 52 257 c 2
 52 554 l 1
 185 554 l 1
 185 283 l 2
 185 206 193 167 213 142 c 0
 232 120 256 109 290 109 c 0
 336 109 374 128 393 162 c 0
 407 187 412 222 412 293 c 2
 412 554 l 1
 545 554 l 1xb8
EndSplineSet
EndChar

StartChar: v
Encoding: 118 118 87
Width: 558
GlyphClass: 2
Flags: MW
HStem: 0 21G<226 226 226 332> 534 20G<3 151 151 151 405 555 555 555>
AnchorPoint: "Anchor-0" 279 630 basechar 0
LayerCount: 2
Fore
SplineSet
226 0 m 1
 3 554 l 1
 151 554 l 1
 279 187 l 1
 405 554 l 1
 555 554 l 1
 332 0 l 1
 226 0 l 1
EndSplineSet
EndChar

StartChar: w
Encoding: 119 119 88
Width: 781
GlyphClass: 2
Flags: MW
HStem: 0 21G<201 201 201 283 495 495 495 578> 534 20G<3 146 146 146 338 444 444 444 636 778 778 778>
AnchorPoint: "Anchor-0" 390 630 basechar 0
LayerCount: 2
Fore
SplineSet
201 0 m 1
 3 554 l 1
 146 554 l 1
 245 216 l 1
 338 554 l 1
 444 554 l 1
 535 216 l 1
 636 554 l 1
 778 554 l 1
 578 0 l 1
 495 0 l 1
 390 359 l 1
 283 0 l 1
 201 0 l 1
EndSplineSet
EndChar

StartChar: x
Encoding: 120 120 89
Width: 558
GlyphClass: 2
Flags: MW
HStem: 0 21G<3 3 3 163 395 395 395 555> 534 20G<29 179 179 179 377 527 527 527>
AnchorPoint: "Anchor-0" 279 630 basechar 0
LayerCount: 2
Fore
SplineSet
3 0 m 1
 199 286 l 1
 29 554 l 1
 179 554 l 1
 279 387 l 1
 377 554 l 1
 527 554 l 1
 358 286 l 1
 555 0 l 1
 395 0 l 1
 279 190 l 1
 163 0 l 1
 3 0 l 1
EndSplineSet
EndChar

StartChar: y
Encoding: 121 121 90
Width: 568
GlyphClass: 2
Flags: MW
HStem: -185 21G<102 102 102 245> 534 20G<3 155 155 155 412 565 565 565>
AnchorPoint: "Anchor-0" 284 630 basechar 0
LayerCount: 2
Fore
SplineSet
102 -185 m 1
 206 52 l 1
 3 554 l 1
 155 554 l 1
 278 195 l 1
 412 554 l 1
 565 554 l 1
 245 -185 l 1
 102 -185 l 1
EndSplineSet
EndChar

StartChar: z
Encoding: 122 122 91
Width: 482
GlyphClass: 2
Flags: MW
HStem: 0 119<30 30 189 452> 435 119<58 274 58 433 58 433>
AnchorPoint: "Anchor-0" 241 630 basechar 0
LayerCount: 2
Fore
SplineSet
30 0 m 1
 30 119 l 1
 274 435 l 1
 58 435 l 1
 58 554 l 1
 433 554 l 1
 433 435 l 1
 189 119 l 1
 452 119 l 1
 452 0 l 1
 30 0 l 1
EndSplineSet
EndChar

StartChar: braceleft
Encoding: 123 123 92
Width: 335
GlyphClass: 2
Flags: MW
HStem: -128 80<305 305> 265 81<40 40> 659 80<305 305>
VStem: 121 105<11.5 54 54 167 167 177 444 557>
CounterMasks: 1 e0
LayerCount: 2
Fore
SplineSet
226 557 m 2
 226 434 l 2
 226 356 203 323 136 305 c 1
 202 289 226 255 226 177 c 2
 226 54 l 2
 226 -31 234 -42 305 -48 c 1
 305 -128 l 1
 289 -129 272 -129 262 -129 c 0
 163 -129 121 -87 121 10 c 2
 121 167 l 2
 121 227 96 258 40 265 c 1
 40 346 l 1
 96 353 121 384 121 444 c 2
 121 601 l 2
 121 698 163 740 262 740 c 0
 272 740 289 740 305 739 c 1
 305 659 l 1
 234 653 226 642 226 557 c 2
EndSplineSet
EndChar

StartChar: bar
Encoding: 124 124 93
Width: 599
GlyphClass: 2
Flags: MW
HStem: 0 21G<240 359 240 240> 719 20G<240 359 359 359>
VStem: 240 119<0 739 0 739>
LayerCount: 2
Fore
SplineSet
359 739 m 1
 359 0 l 1
 240 0 l 1
 240 739 l 1
 359 739 l 1
EndSplineSet
EndChar

StartChar: braceright
Encoding: 125 125 94
Width: 335
GlyphClass: 2
Flags: MW
HStem: -128 80<30 30> 265 81<295 295> 659 80<30 30>
VStem: 109 105<54 167 434 444 444 557 557 599.5>
CounterMasks: 1 e0
LayerCount: 2
Fore
SplineSet
109 54 m 2
 109 177 l 2
 109 255 132 288 199 306 c 1
 133 322 109 356 109 434 c 2
 109 557 l 2
 109 642 101 653 30 659 c 1
 30 739 l 1
 46 740 63 740 73 740 c 0
 172 740 214 698 214 601 c 2
 214 444 l 2
 214 384 239 353 295 346 c 1
 295 265 l 1
 239 258 214 227 214 167 c 2
 214 10 l 2
 214 -87 172 -129 73 -129 c 0
 63 -129 46 -129 30 -128 c 1
 30 -48 l 1
 101 -42 109 -31 109 54 c 2
EndSplineSet
EndChar

StartChar: asciitilde
Encoding: 126 126 95
Width: 600
GlyphClass: 2
Flags: MW
HStem: 230 117<402.5 422.5 402.5 434> 295 117<188.5 205.5>
LayerCount: 2
Fore
SplineSet
488 421 m 1x80
 552 347 l 1
 500 262 461 230 407 230 c 0x80
 386 230 352 239 316 254 c 2
 262 276 l 2
 226 291 213 295 198 295 c 0
 179 295 163 287 149 271 c 0
 145 266 145 266 118 224 c 0
 115 221 113 217 111 214 c 2
 48 289 l 1
 72 330 80 342 96 361 c 0
 121 393 158 412 196 412 c 0x40
 220 412 248 406 273 396 c 2
 340 369 l 2
 394 347 394 347 411 347 c 0
 434 347 463 374 488 421 c 1x80
EndSplineSet
EndChar

StartChar: uni0401
Encoding: 161 1025 97
Width: 524
GlyphClass: 2
Flags: MW
HStem: 0 131<208 468 208 468> 303 131<208 457 208 457> 608 131<208 468 208 208> 805 133<98 231 98 231 308 441 98 308>
VStem: 71 137<131 303 434 608> 98 133<805 938 805 938> 308 133<805 938 805 938>
AnchorPoint: "Anchor-0" 269 1015 basechar 0
LayerCount: 2
Fore
SplineSet
71 0 m 1xfa
 71 739 l 1
 468 739 l 1
 468 608 l 1
 208 608 l 1
 208 434 l 1
 457 434 l 1
 457 303 l 1
 208 303 l 1
 208 131 l 1
 468 131 l 1
 468 0 l 1
 71 0 l 1xfa
98 805 m 1xf6
 98 938 l 1
 231 938 l 1
 231 805 l 1
 98 805 l 1xf6
308 805 m 1
 308 938 l 1
 441 938 l 1
 441 805 l 1
 308 805 l 1
EndSplineSet
EndChar

StartChar: uni0402
Encoding: 162 1026 98
Width: 693
GlyphClass: 2
Flags: MW
HStem: -13 131<400 430 400 471> 0 21G<154 291 154 154> 319 131<291 340 340 349 291 340> 608 131<7 154 7 468 291 291 291 468>
VStem: 154 137<0 319 0 450 450 608> 528 138<191.5 267>
AnchorPoint: "Anchor-0" 230 805 basechar 0
LayerCount: 2
Fore
SplineSet
400 -13 m 1xbc
 400 118 l 1xbc
 460 118 528 156 528 227 c 0
 528 307 445 319 349 319 c 2
 291 319 l 1
 291 0 l 1
 154 0 l 1x7c
 154 608 l 1
 7 608 l 1
 7 739 l 1
 468 739 l 1
 468 608 l 1
 291 608 l 1
 291 450 l 1
 340 450 l 2
 453 450 506 443 551 421 c 0
 623 386 666 310 666 224 c 0
 666 68 542 -13 400 -13 c 1xbc
EndSplineSet
EndChar

StartChar: uni0403
Encoding: 163 1027 99
Width: 467
GlyphClass: 2
Flags: MW
HStem: 0 21G<71 208 71 71> 608 131<208 460 208 208> 788 212<211 384>
VStem: 71 137<0 608 0 739 0 739> 160 278<866 908>
AnchorPoint: "Anchor-0" 265 1015 basechar 0
LayerCount: 2
Fore
SplineSet
211 788 m 1x28
 160 866 l 1
 384 1000 l 1
 438 908 l 1
 211 788 l 1x28
460 608 m 1xd0
 208 608 l 1
 208 0 l 1
 71 0 l 1
 71 739 l 1
 460 739 l 1
 460 608 l 1xd0
EndSplineSet
EndChar

StartChar: uni0404
Encoding: 164 1028 100
Width: 802
GlyphClass: 2
Flags: MW
HStem: -13 132<364.5 457.5 364.5 501> 307 131<183 546 183 546 182 546> 620 132<381 462>
VStem: 36 510<307 438 307 476.5>
AnchorPoint: "Anchor-0" 420 805 basechar 0
LayerCount: 2
Fore
SplineSet
605 206 m 1
 766 206 l 1
 708 71 577 -13 425 -13 c 0
 209 -13 36 158 36 372 c 0
 36 581 207 752 416 752 c 0
 509 752 598 720 667 662 c 0
 714 622 738 589 766 527 c 1
 613 527 l 1
 563 592 505 620 419 620 c 0
 343 620 280 592 235 539 c 0
 211 511 193 476 183 438 c 1
 546 438 l 1
 546 307 l 1
 182 307 l 1
 210 199 307 119 422 119 c 0
 493 119 544 143 605 206 c 1
EndSplineSet
EndChar

StartChar: uni0405
Encoding: 165 1029 101
Width: 524
GlyphClass: 2
Flags: MW
HStem: -13 132<231.5 291.5 231.5 328.5> 620 132<237.5 283>
VStem: 46 138<531 567 531 600.5> 362 136<182.5 225>
AnchorPoint: "Anchor-0" 261 805 basechar 0
LayerCount: 2
Fore
SplineSet
19 211 m 1
 162 211 l 1
 168 149 201 119 262 119 c 0
 321 119 362 156 362 209 c 0
 362 241 350 267 325 286 c 0
 303 302 298 305 200 341 c 0
 100 378 46 449 46 542 c 0
 46 659 141 752 261 752 c 0
 332 752 398 721 438 668 c 0
 465 632 477 596 480 542 c 1
 338 542 l 1
 334 592 306 620 260 620 c 0
 215 620 184 589 184 545 c 0
 184 517 199 494 227 477 c 0
 236 471 239 470 307 445 c 0
 380 417 403 405 432 378 c 0
 476 338 498 286 498 224 c 0
 498 90 395 -13 262 -13 c 0
 181 -13 107 22 64 81 c 0
 35 120 23 155 19 211 c 1
EndSplineSet
EndChar

StartChar: uni0406
Encoding: 166 1030 102
Width: 279
GlyphClass: 2
Flags: MW
HStem: 0 21G<71 71 71 208> 719 20G<71 208 208 208>
VStem: 71 137<0 739 0 739>
AnchorPoint: "Anchor-0" 139 805 basechar 0
LayerCount: 2
Fore
SplineSet
71 0 m 1
 71 739 l 1
 208 739 l 1
 208 0 l 1
 71 0 l 1
EndSplineSet
EndChar

StartChar: uni0407
Encoding: 167 1031 103
Width: 279
GlyphClass: 2
Flags: MW
HStem: 0 21G<71 71 71 208> 719 20G<71 208 208 208> 805 133<-32 101 -32 101 178 311 -32 178>
VStem: -32 133<805 938 805 938> 71 137<0 739 0 739> 178 133<805 938 805 938>
AnchorPoint: "Anchor-0" 139 1015 basechar 0
LayerCount: 2
Fore
SplineSet
71 0 m 1xe8
 71 739 l 1
 208 739 l 1
 208 0 l 1
 71 0 l 1xe8
-32 805 m 1xf0
 -32 938 l 1
 101 938 l 1
 101 805 l 1
 -32 805 l 1xf0
178 805 m 1xe4
 178 938 l 1
 311 938 l 1
 311 805 l 1
 178 805 l 1xe4
EndSplineSet
EndChar

StartChar: uni0408
Encoding: 168 1032 104
Width: 494
GlyphClass: 2
Flags: MW
HStem: -13 132<203 242 203 285> 719 20G<286 423 423 423>
VStem: 286 137<216 739>
AnchorPoint: "Anchor-0" 354 805 basechar 0
LayerCount: 2
Fore
SplineSet
286 739 m 1
 423 739 l 1
 423 212 l 2
 423 73 347 -13 223 -13 c 0
 159 -13 100 13 62 57 c 0
 34 89 23 118 18 175 c 1
 155 175 l 1
 164 138 186 119 220 119 c 0
 264 119 286 151 286 216 c 2
 286 739 l 1
EndSplineSet
EndChar

StartChar: uni0409
Encoding: 169 1033 105
Width: 1012
GlyphClass: 2
Flags: MW
HStem: 0 131<610 661> 319 131<610 659 610 658> 719 20G<473 610 610 610>
VStem: 473 137<131 319 450 513 513 513> 847 138<204.5 247>
AnchorPoint: "Anchor-0" 540 805 basechar 0
LayerCount: 2
Fore
SplineSet
167 0 m 1
 2 0 l 1
 473 739 l 1
 610 739 l 1
 610 450 l 1
 659 450 l 2
 772 450 825 443 870 421 c 0
 942 386 985 310 985 224 c 0
 985 142 947 75 880 37 c 0
 831 9 774 0 661 0 c 2
 473 0 l 1
 473 513 l 1
 167 0 l 1
610 319 m 1
 610 131 l 1
 665 131 l 2
 719 131 744 133 770 138 c 0
 818 149 847 182 847 227 c 0
 847 267 818 298 771 309 c 0
 744 316 706 319 658 319 c 2
 610 319 l 1
EndSplineSet
EndChar

StartChar: uni040A
Encoding: 170 1034 106
Width: 1004
GlyphClass: 2
Flags: MW
HStem: 0 131<602 653> 319 131<208 465 208 465 602 650> 719 20G<71 208 208 208 465 602 602 602>
VStem: 71 137<0 319 450 739> 465 137<131 319 131 319 131 319 450 739> 839 138<204.5 247>
AnchorPoint: "Anchor-0" 531 805 basechar 0
LayerCount: 2
Fore
SplineSet
71 0 m 1
 71 739 l 1
 208 739 l 1
 208 450 l 1
 465 450 l 1
 465 739 l 1
 602 739 l 1
 602 450 l 1
 651 450 l 2
 764 450 817 443 862 421 c 0
 934 386 977 310 977 224 c 0
 977 142 939 75 872 37 c 0
 823 9 766 0 653 0 c 2
 465 0 l 1
 465 319 l 1
 208 319 l 1
 208 0 l 1
 71 0 l 1
602 319 m 1
 602 131 l 1
 657 131 l 2
 711 131 736 133 762 138 c 0
 810 149 839 182 839 227 c 0
 839 267 810 298 763 309 c 0
 736 316 698 319 650 319 c 2
 602 319 l 1
EndSplineSet
EndChar

StartChar: uni040B
Encoding: 171 1035 107
Width: 702
GlyphClass: 2
Flags: MW
HStem: 0 21G<154 291 154 154 513 651 513 513> 321 131<369.5 419.5> 608 131<7 154 7 468 291 291 291 468>
VStem: 154 137<0 317 0 448 448 608> 513 138<0 224 0 262>
AnchorPoint: "Anchor-0" 235 805 basechar 0
LayerCount: 2
Fore
SplineSet
513 0 m 1
 513 224 l 2
 513 300 463 321 376 321 c 0
 345 321 312 320 291 317 c 1
 291 0 l 1
 154 0 l 1
 154 608 l 1
 7 608 l 1
 7 739 l 1
 468 739 l 1
 468 608 l 1
 291 608 l 1
 291 448 l 1
 291 448 322 452 417 452 c 0
 544 452 651 371 651 224 c 2
 651 0 l 1
 513 0 l 1
EndSplineSet
EndChar

StartChar: uni040C
Encoding: 172 1036 108
Width: 614
GlyphClass: 2
Flags: MW
HStem: 0 21G<71 71 71 208 437 437 437 602> 719 20G<71 208 208 208 437 602 602 602> 788 212<269 442>
VStem: 71 137<0 325 420 739> 218 278<866 908>
AnchorPoint: "Anchor-0" 323 1015 basechar 0
LayerCount: 2
Fore
SplineSet
269 788 m 1
 218 866 l 1
 442 1000 l 1
 496 908 l 1
 269 788 l 1
71 0 m 1
 71 739 l 1
 208 739 l 1
 208 420 l 1
 437 739 l 1
 602 739 l 1
 324 376 l 1
 602 0 l 1
 437 0 l 1
 208 325 l 1
 208 0 l 1
 71 0 l 1
EndSplineSet
EndChar

StartChar: uni00AD
Encoding: 173 173 109
Width: 337
GlyphClass: 2
Flags: MW
HStem: 229 118<30 307 30 307>
VStem: 30 277<229 347 229 347>
LayerCount: 2
Fore
SplineSet
30 229 m 1
 30 347 l 1
 307 347 l 1
 307 229 l 1
 30 229 l 1
EndSplineSet
EndChar

StartChar: uni040E
Encoding: 174 1038 110
Width: 599
GlyphClass: 2
Flags: MW
HStem: 0 21G<155 285 155 155> 719 20G<4 152 152 152 447 595 595 595> 796 65<278.5 319.5 278.5 344>
VStem: 122 115<909.5 937> 361 115<909.5 937>
AnchorPoint: "Anchor-0" 299 1015 basechar 0
LayerCount: 2
Fore
SplineSet
122 937 m 1
 237 937 l 1
 237 882 258 861 299 861 c 0
 340 861 361 882 361 937 c 1
 476 937 l 1
 460 842 389 796 299 796 c 0
 209 796 138 842 122 937 c 1
285 0 m 1
 155 0 l 1
 231 194 l 1
 4 739 l 1
 152 739 l 1
 298 363 l 1
 447 739 l 1
 595 739 l 1
 285 0 l 1
EndSplineSet
EndChar

StartChar: uni040F
Encoding: 175 1039 111
Width: 666
GlyphClass: 2
Flags: MW
HStem: 0 131<208 261 405 458 208 595 405 405> 719 20G<71 208 208 208 458 595 595 595>
VStem: 71 137<131 739 131 739 131 739> 287 92<-145 -145> 458 137<131 739 0 739>
CounterMasks: 1 38
AnchorPoint: "Anchor-0" 333 805 basechar 0
LayerCount: 2
Fore
SplineSet
595 739 m 1
 595 0 l 1
 405 0 l 1
 379 -145 l 1
 287 -145 l 1
 261 0 l 1
 71 0 l 1
 71 739 l 1
 208 739 l 1
 208 131 l 1
 458 131 l 1
 458 739 l 1
 595 739 l 1
EndSplineSet
EndChar

StartChar: uni0410
Encoding: 176 1040 112
Width: 740
GlyphClass: 2
Flags: MW
HStem: 0 21G<7 7 7 158 582 582 582 733> 191 131<290 448 290 503 240 448> 719 20G<315 423 423 423>
AnchorPoint: "Anchor-0" 370 805 basechar 0
LayerCount: 2
Fore
SplineSet
7 0 m 1
 315 739 l 1
 423 739 l 1
 733 0 l 1
 582 0 l 1
 503 191 l 1
 240 191 l 1
 158 0 l 1
 7 0 l 1
290 322 m 1
 448 322 l 1
 369 546 l 1
 290 322 l 1
EndSplineSet
EndChar

StartChar: uni0411
Encoding: 177 1041 113
Width: 599
GlyphClass: 2
Flags: MW
HStem: 0 131<208 256> 331 131<208 254 208 252> 608 131<208 208 208 516>
VStem: 71 137<131 331 131 462 462 608> 425 138<209.5 254>
AnchorPoint: "Anchor-0" 281 805 basechar 0
LayerCount: 2
Fore
SplineSet
208 331 m 1
 208 131 l 1
 258 131 l 2
 307 131 330 134 354 139 c 0
 398 150 425 186 425 233 c 0
 425 275 398 309 355 320 c 0
 330 327 296 331 252 331 c 2
 208 331 l 1
208 608 m 1
 208 462 l 1
 254 462 l 2
 361 462 411 455 454 432 c 0
 522 396 563 318 563 230 c 0
 563 146 527 77 464 38 c 0
 418 9 363 0 256 0 c 2
 71 0 l 1
 71 739 l 1
 516 739 l 1
 516 608 l 1
 208 608 l 1
EndSplineSet
EndChar

StartChar: uni0412
Encoding: 178 1042 114
Width: 587
GlyphClass: 2
Flags: MW
HStem: 0 131<208 268> 320 134<208 252 252 273 208 252> 605 134<208 223 223 264 208 208>
VStem: 71 137<131 131 131 320 454 605> 370 137<507 555.5> 413 138<191.5 243 181 256.5>
AnchorPoint: "Anchor-0" 281 805 basechar 0
LayerCount: 2
Fore
SplineSet
71 0 m 1xf4
 71 739 l 1
 223 739 l 2
 336 739 382 730 427 700 c 0
 478 666 507 609 507 542 c 0xf8
 507 472 484 434 425 403 c 1
 474 383 496 368 517 339 c 0
 539 309 551 266 551 220 c 0
 551 142 514 75 450 38 c 0
 405 12 347 0 268 0 c 2
 71 0 l 1xf4
208 131 m 1
 276 131 l 2
 372 131 413 159 413 224 c 0xf4
 413 289 368 320 273 320 c 2
 208 320 l 1
 208 131 l 1
208 454 m 1
 252 454 l 2
 335 454 370 477 370 530 c 0xf8
 370 581 335 605 264 605 c 2
 208 605 l 1
 208 454 l 1
EndSplineSet
EndChar

StartChar: uni0413
Encoding: 179 1043 115
Width: 467
GlyphClass: 2
Flags: MW
HStem: 0 21G<71 208 71 71> 608 131<208 460 208 208>
VStem: 71 137<0 608 0 739 0 739>
AnchorPoint: "Anchor-0" 265 805 basechar 0
LayerCount: 2
Fore
SplineSet
460 608 m 1
 208 608 l 1
 208 0 l 1
 71 0 l 1
 71 739 l 1
 460 739 l 1
 460 608 l 1
EndSplineSet
EndChar

StartChar: uni0414
Encoding: 180 1044 116
Width: 840
GlyphClass: 2
Flags: MW
HStem: -145 276<14 110 14 112 730 826 730 730> 0 131<254 586 14 138> 719 20G<365 475 475 475>
VStem: 14 96<-145 131> 730 96<-145 -145>
AnchorPoint: "Anchor-0" 420 805 basechar 0
LayerCount: 2
Fore
SplineSet
826 -145 m 1xb8
 730 -145 l 1xb8
 702 0 l 1
 138 0 l 1x78
 110 -145 l 1
 14 -145 l 1
 14 131 l 1xb8
 112 131 l 1
 365 739 l 1
 475 739 l 1
 728 131 l 1x78
 826 131 l 1
 826 -145 l 1xb8
254 131 m 1x78
 586 131 l 1
 420 536 l 1
 254 131 l 1x78
EndSplineSet
Substitution2: "'locl' Localized Forms in Cyrillic lookup 8 subtable" uni0414.loclBGR
EndChar

StartChar: uni0415
Encoding: 181 1045 117
Width: 524
GlyphClass: 2
Flags: MW
HStem: 0 131<208 468 208 468> 303 131<208 457 208 457> 608 131<208 468 208 208>
VStem: 71 137<131 303 434 608>
AnchorPoint: "Anchor-0" 269 805 basechar 0
LayerCount: 2
Fore
SplineSet
71 0 m 1
 71 739 l 1
 468 739 l 1
 468 608 l 1
 208 608 l 1
 208 434 l 1
 457 434 l 1
 457 303 l 1
 208 303 l 1
 208 131 l 1
 468 131 l 1
 468 0 l 1
 71 0 l 1
EndSplineSet
EndChar

StartChar: uni0416
Encoding: 182 1046 118
Width: 913
GlyphClass: 2
Flags: MW
HStem: 0 21G<12 175 12 12 388 525 388 388 738 901 738 738> 719 20G<12 175 175 175 388 525 525 525 738 901 901 901>
VStem: 388 137<0 345 0 345 400 739>
AnchorPoint: "Anchor-0" 456 805 basechar 0
LayerCount: 2
Fore
SplineSet
525 400 m 1
 738 739 l 1
 901 739 l 1
 654 376 l 1
 901 0 l 1
 738 0 l 1
 525 345 l 1
 525 0 l 1
 388 0 l 1
 388 345 l 1
 175 0 l 1
 12 0 l 1
 259 376 l 1
 12 739 l 1
 175 739 l 1
 388 400 l 1
 388 739 l 1
 525 739 l 1
 525 400 l 1
EndSplineSet
Substitution2: "'locl' Localized Forms in Cyrillic lookup 8 subtable" uni0416.loclBGR
EndChar

StartChar: uni0417
Encoding: 183 1047 119
Width: 554
GlyphClass: 2
Flags: MW
HStem: -13 132<244.5 303.5 244.5 341.5> 330 120<224 259 224 275.5> 621 131<249.5 298.5>
VStem: 30 138<195.5 225 195.5 225> 362 133<505 558.5> 380 138<195.5 259 159.5 264.5>
AnchorPoint: "Anchor-0" 276 805 basechar 0
LayerCount: 2
Fore
SplineSet
224 330 m 1xf4
 224 450 l 1
 294 450 362 467 362 535 c 0
 362 582 323 621 274 621 c 0
 225 621 186 582 186 535 c 1
 53 535 l 1
 53 655 151 752 274 752 c 0
 397 752 495 655 495 535 c 0xf8
 495 475 464 414 401 394 c 1
 469 370 518 293 518 225 c 0
 518 94 409 -13 274 -13 c 0
 139 -13 30 94 30 225 c 1
 168 225 l 1
 168 166 215 119 274 119 c 0
 333 119 380 166 380 225 c 0
 380 304 327 330 224 330 c 1xf4
EndSplineSet
EndChar

StartChar: uni0418
Encoding: 184 1048 120
Width: 738
GlyphClass: 2
Flags: MW
HStem: 0 21G<71 210 71 71 531 667 531 531> 719 20G<71 207 207 207 528 667 667 667>
VStem: 71 136<227 739 227 739 227 739> 531 136<0 512 512 512>
AnchorPoint: "Anchor-0" 369 805 basechar 0
LayerCount: 2
Fore
SplineSet
528 739 m 1
 667 739 l 1
 667 0 l 1
 531 0 l 1
 531 512 l 1
 210 0 l 1
 71 0 l 1
 71 739 l 1
 207 739 l 1
 207 227 l 1
 528 739 l 1
EndSplineSet
EndChar

StartChar: uni0419
Encoding: 185 1049 121
Width: 738
GlyphClass: 2
Flags: MW
HStem: 0 21G<71 210 71 71 531 667 531 531> 719 20G<71 207 207 207 528 667 667 667> 796 65<348.5 389.5 348.5 414>
VStem: 71 136<227 739 227 739 227 739> 192 115<909.5 937> 431 115<909.5 937> 531 136<0 512 512 512>
AnchorPoint: "Anchor-0" 369 1015 basechar 0
LayerCount: 2
Fore
SplineSet
192 937 m 1x2c
 307 937 l 1
 307 882 328 861 369 861 c 0
 410 861 431 882 431 937 c 1
 546 937 l 1
 530 842 459 796 369 796 c 0
 279 796 208 842 192 937 c 1x2c
528 739 m 1xd2
 667 739 l 1
 667 0 l 1
 531 0 l 1
 531 512 l 1
 210 0 l 1
 71 0 l 1
 71 739 l 1
 207 739 l 1
 207 227 l 1
 528 739 l 1xd2
EndSplineSet
EndChar

StartChar: uni041A
Encoding: 186 1050 122
Width: 614
GlyphClass: 2
Flags: MW
HStem: 0 21G<71 71 71 208 437 437 437 602> 719 20G<71 208 208 208 437 602 602 602>
VStem: 71 137<0 325 420 739>
AnchorPoint: "Anchor-0" 323 805 basechar 0
LayerCount: 2
Fore
SplineSet
71 0 m 1
 71 739 l 1
 208 739 l 1
 208 420 l 1
 437 739 l 1
 602 739 l 1
 324 376 l 1
 602 0 l 1
 437 0 l 1
 208 325 l 1
 208 0 l 1
 71 0 l 1
EndSplineSet
Substitution2: "'locl' Localized Forms in Cyrillic lookup 8 subtable" uni041A.loclBGR
EndChar

StartChar: uni041B
Encoding: 187 1051 123
Width: 740
GlyphClass: 2
Flags: MW
HStem: 0 21G<7 155 7 7 585 585 585 733> 719 20G<316 424 424 424>
AnchorPoint: "Anchor-0" 370 805 basechar 0
LayerCount: 2
Fore
SplineSet
370 551 m 1
 155 0 l 1
 7 0 l 1
 316 739 l 1
 424 739 l 1
 733 0 l 1
 585 0 l 1
 370 551 l 1
EndSplineSet
Substitution2: "'locl' Localized Forms in Cyrillic lookup 8 subtable" uni041B.loclBGR
EndChar

StartChar: uni041C
Encoding: 188 1052 124
Width: 914
GlyphClass: 2
Flags: MW
HStem: 0 21G<71 71 71 208 401 401 401 513 706 706 706 843> 719 20G<71 259 259 259 655 843 843 843>
VStem: 71 137<0 554 0 739> 706 137<0 554 554 554>
AnchorPoint: "Anchor-0" 457 805 basechar 0
LayerCount: 2
Fore
SplineSet
71 0 m 1
 71 739 l 1
 259 739 l 1
 458 179 l 1
 655 739 l 1
 843 739 l 1
 843 0 l 1
 706 0 l 1
 706 554 l 1
 513 0 l 1
 401 0 l 1
 208 554 l 1
 208 0 l 1
 71 0 l 1
EndSplineSet
EndChar

StartChar: uni041D
Encoding: 189 1053 125
Width: 680
GlyphClass: 2
Flags: MW
HStem: 0 21G<71 71 71 208 472 472 472 609> 310 131<208 472 208 472> 719 20G<71 208 208 208 472 609 609 609>
VStem: 71 137<0 310 441 739> 472 137<0 310 310 310 441 739 0 739>
AnchorPoint: "Anchor-0" 340 805 basechar 0
LayerCount: 2
Fore
SplineSet
71 0 m 1
 71 739 l 1
 208 739 l 1
 208 441 l 1
 472 441 l 1
 472 739 l 1
 609 739 l 1
 609 0 l 1
 472 0 l 1
 472 310 l 1
 208 310 l 1
 208 0 l 1
 71 0 l 1
EndSplineSet
EndChar

StartChar: uni041E
Encoding: 190 1054 126
Width: 842
GlyphClass: 2
Flags: MW
HStem: -13 132<354 494 354 532.5> 620 132<350.5 490>
VStem: 36 138<299.5 439.5 299.5 477> 668 138<296.5 440.5>
AnchorPoint: "Anchor-0" 421 805 basechar 0
LayerCount: 2
Fore
SplineSet
427 752 m 0
 637 752 806 581 806 370 c 0
 806 154 640 -13 425 -13 c 0
 208 -13 36 155 36 369 c 0
 36 585 206 752 427 752 c 0
418 620 m 0
 283 620 174 509 174 370 c 0
 174 229 284 119 424 119 c 0
 564 119 668 225 668 368 c 0
 668 513 562 620 418 620 c 0
EndSplineSet
EndChar

StartChar: uni041F
Encoding: 191 1055 127
Width: 666
GlyphClass: 2
Flags: MW
HStem: 0 21G<71 71 71 208 458 458 458 595> 608 131<208 458 208 208>
VStem: 71 137<0 608 0 739 0 739> 458 137<0 608 608 608>
AnchorPoint: "Anchor-0" 333 805 basechar 0
LayerCount: 2
Fore
SplineSet
71 0 m 1
 71 739 l 1
 595 739 l 1
 595 0 l 1
 458 0 l 1
 458 608 l 1
 208 608 l 1
 208 0 l 1
 71 0 l 1
EndSplineSet
EndChar

StartChar: uni0420
Encoding: 192 1056 128
Width: 573
GlyphClass: 2
Flags: MW
HStem: 0 21G<71 71 71 208> 281 131<208 248 248 252 208 248> 608 131<208 254 208 208>
VStem: 71 137<0 281 412 608> 405 138<487 531.5>
AnchorPoint: "Anchor-0" 287 805 basechar 0
LayerCount: 2
Fore
SplineSet
71 0 m 1
 71 739 l 1
 254 739 l 2
 355 739 405 729 449 701 c 0
 509 662 543 594 543 511 c 0
 543 423 504 347 440 311 c 0
 400 289 353 281 252 281 c 2
 208 281 l 1
 208 0 l 1
 71 0 l 1
208 412 m 1
 248 412 l 2
 288 412 320 415 342 422 c 0
 381 433 405 466 405 508 c 0
 405 555 381 590 341 601 c 0
 320 606 299 608 254 608 c 2
 208 608 l 1
 208 412 l 1
EndSplineSet
EndChar

StartChar: uni0421
Encoding: 193 1057 129
Width: 802
GlyphClass: 2
Flags: MW
HStem: -13 132<353.5 457.5 353.5 501> 620 132<381 462>
VStem: 36 138<302 401 302 476.5>
AnchorPoint: "Anchor-0" 420 805 basechar 0
LayerCount: 2
Fore
SplineSet
605 206 m 1
 766 206 l 1
 708 71 577 -13 425 -13 c 0
 209 -13 36 158 36 372 c 0
 36 581 207 752 416 752 c 0
 509 752 598 720 667 662 c 0
 714 622 738 589 766 527 c 1
 613 527 l 1
 563 592 505 620 419 620 c 0
 343 620 280 592 235 539 c 0
 197 495 174 431 174 371 c 0
 174 233 285 119 422 119 c 0
 493 119 544 143 605 206 c 1
EndSplineSet
EndChar

StartChar: uni0422
Encoding: 194 1058 130
Width: 425
GlyphClass: 2
Flags: MW
HStem: 0 21G<144 144 144 281> 608 131<7 144 7 418 281 281 281 418>
VStem: 144 137<0 608 0 608>
AnchorPoint: "Anchor-0" 212 805 basechar 0
LayerCount: 2
Fore
SplineSet
144 0 m 1
 144 608 l 1
 7 608 l 1
 7 739 l 1
 418 739 l 1
 418 608 l 1
 281 608 l 1
 281 0 l 1
 144 0 l 1
EndSplineSet
EndChar

StartChar: uni0423
Encoding: 195 1059 131
Width: 599
GlyphClass: 2
Flags: MW
HStem: 0 21G<155 285 155 155> 719 20G<4 152 152 152 447 595 595 595>
AnchorPoint: "Anchor-0" 299 805 basechar 0
LayerCount: 2
Fore
SplineSet
285 0 m 1
 155 0 l 1
 231 194 l 1
 4 739 l 1
 152 739 l 1
 298 363 l 1
 447 739 l 1
 595 739 l 1
 285 0 l 1
EndSplineSet
EndChar

StartChar: uni0424
Encoding: 196 1060 132
Width: 811
GlyphClass: 2
Flags: MW
HStem: 0 21G<337 474 337 337> 57 134<337 337> 560 135<337 337> 719 20G<337 474 474 474>
VStem: 30 138<331.5 420.5 331.5 457> 337 137<0 57 0 57 191 560 560 560 695 739> 643 138<331.5 420.5>
CounterMasks: 1 0e
AnchorPoint: "Anchor-0" 405 805 basechar 0
LayerCount: 2
Fore
SplineSet
474 561 m 1
 474 191 l 1
 574 214 643 287 643 376 c 0
 643 465 574 538 474 561 c 1
337 191 m 1
 337 560 l 1
 237 537 168 465 168 376 c 0
 168 287 237 214 337 191 c 1
337 695 m 1
 337 739 l 1
 474 739 l 1
 474 695 l 1
 651 668 781 538 781 376 c 0
 781 214 651 84 474 57 c 1
 474 0 l 1
 337 0 l 1
 337 57 l 1
 161 84 30 214 30 376 c 0
 30 538 161 668 337 695 c 1
EndSplineSet
EndChar

StartChar: uni0425
Encoding: 197 1061 133
Width: 685
GlyphClass: 2
Flags: MW
HStem: 0 21G<7 7 7 170 519 519 519 678> 719 20G<7 170 170 170 519 678 678 678>
AnchorPoint: "Anchor-0" 342 805 basechar 0
LayerCount: 2
Fore
SplineSet
7 0 m 1
 261 368 l 1
 7 739 l 1
 170 739 l 1
 342 481 l 1
 519 739 l 1
 678 739 l 1
 422 368 l 1
 678 0 l 1
 519 0 l 1
 342 255 l 1
 170 0 l 1
 7 0 l 1
EndSplineSet
EndChar

StartChar: uni0426
Encoding: 198 1062 134
Width: 717
GlyphClass: 2
Flags: MW
HStem: 0 131<208 448 208 571> 719 20G<71 208 208 208 448 585 585 585>
VStem: 71 137<131 739 131 739 131 739> 448 137<131 739 131 739> 599 96<-145 131>
AnchorPoint: "Anchor-0" 328 805 basechar 0
LayerCount: 2
Fore
SplineSet
448 739 m 1
 585 739 l 1
 585 131 l 1
 695 131 l 1
 695 -145 l 1
 599 -145 l 1
 571 0 l 1
 71 0 l 1
 71 739 l 1
 208 739 l 1
 208 131 l 1
 448 131 l 1
 448 739 l 1
EndSplineSet
EndChar

StartChar: uni0427
Encoding: 199 1063 135
Width: 627
GlyphClass: 2
Flags: MW
HStem: 0 21G<419 556 419 419> 267 131<256 295.5> 719 20G<50 187 187 187 419 556 556 556>
VStem: 50 137<490 525 525 739> 419 137<0 283 283 283 409 739 0 739>
AnchorPoint: "Anchor-0" 311 805 basechar 0
LayerCount: 2
Fore
SplineSet
50 739 m 1
 187 739 l 1
 187 525 l 2
 187 434 216 398 296 398 c 0
 348 398 382 401 419 409 c 1
 419 739 l 1
 556 739 l 1
 556 0 l 1
 419 0 l 1
 419 283 l 1
 368 274 319 267 272 267 c 0
 147 267 50 315 50 490 c 2
 50 739 l 1
EndSplineSet
EndChar

StartChar: uni0428
Encoding: 200 1064 136
Width: 895
GlyphClass: 2
Flags: MW
HStem: 0 131<208 379 516 687> 719 20G<71 208 208 208 379 516 516 516 687 824 824 824>
VStem: 71 137<131 739 131 739 131 739> 379 137<131 739 131 739> 687 137<131 739>
CounterMasks: 1 38
AnchorPoint: "Anchor-0" 447 805 basechar 0
LayerCount: 2
Fore
SplineSet
824 0 m 1
 71 0 l 1
 71 739 l 1
 208 739 l 1
 208 131 l 1
 379 131 l 1
 379 739 l 1
 516 739 l 1
 516 131 l 1
 687 131 l 1
 687 739 l 1
 824 739 l 1
 824 0 l 1
EndSplineSet
EndChar

StartChar: uni0429
Encoding: 201 1065 137
Width: 956
GlyphClass: 2
Flags: MW
HStem: 0 131<208 379 516 687> 719 20G<71 208 208 208 379 516 516 516 687 824 824 824>
VStem: 71 137<131 739 131 739 131 739> 379 137<131 739 131 739> 687 137<131 739>
CounterMasks: 1 38
AnchorPoint: "Anchor-0" 447 805 basechar 0
LayerCount: 2
Fore
SplineSet
824 131 m 1
 934 131 l 1
 934 -145 l 1
 838 -145 l 1
 810 0 l 1
 71 0 l 1
 71 739 l 1
 208 739 l 1
 208 131 l 1
 379 131 l 1
 379 739 l 1
 516 739 l 1
 516 131 l 1
 687 131 l 1
 687 739 l 1
 824 739 l 1
 824 131 l 1
EndSplineSet
EndChar

StartChar: uni042A
Encoding: 202 1066 138
Width: 711
GlyphClass: 2
Flags: MW
HStem: 0 131<309 360> 319 131<309 358 309 357> 608 131<7 172 7 309>
VStem: 172 137<131 319 131 450 450 608 608 608> 546 138<204.5 247>
AnchorPoint: "Anchor-0" 240 805 basechar 0
LayerCount: 2
Fore
SplineSet
309 319 m 1
 309 131 l 1
 364 131 l 2
 418 131 443 133 469 138 c 0
 517 149 546 182 546 227 c 0
 546 267 517 298 470 309 c 0
 443 316 405 319 357 319 c 2
 309 319 l 1
172 608 m 1
 7 608 l 1
 7 739 l 1
 309 739 l 1
 309 450 l 1
 358 450 l 2
 471 450 524 443 569 421 c 0
 641 386 684 310 684 224 c 0
 684 142 646 75 579 37 c 0
 530 9 473 0 360 0 c 2
 172 0 l 1
 172 608 l 1
EndSplineSet
EndChar

StartChar: uni042B
Encoding: 203 1067 139
Width: 865
GlyphClass: 2
Flags: MW
HStem: 0 131<208 259> 319 131<208 257 208 256> 719 20G<71 208 208 208 657 794 794 794>
VStem: 71 137<131 319 450 739> 445 138<204.5 247> 657 137<0 739 0 739>
AnchorPoint: "Anchor-0" 432 805 basechar 0
LayerCount: 2
Fore
SplineSet
71 739 m 1
 208 739 l 1
 208 450 l 1
 257 450 l 2
 370 450 423 443 468 421 c 0
 540 386 583 310 583 224 c 0
 583 142 545 75 478 37 c 0
 429 9 372 0 259 0 c 2
 71 0 l 1
 71 739 l 1
208 319 m 1
 208 131 l 1
 263 131 l 2
 317 131 342 133 368 138 c 0
 416 149 445 182 445 227 c 0
 445 267 416 298 369 309 c 0
 342 316 304 319 256 319 c 2
 208 319 l 1
794 739 m 1
 794 0 l 1
 657 0 l 1
 657 739 l 1
 794 739 l 1
EndSplineSet
EndChar

StartChar: uni042C
Encoding: 204 1068 140
Width: 610
GlyphClass: 2
Flags: MW
HStem: 0 131<208 259> 319 131<208 257 208 256> 719 20G<71 208 208 208>
VStem: 71 137<131 319 450 739> 445 138<204.5 247>
AnchorPoint: "Anchor-0" 139 805 basechar 0
LayerCount: 2
Fore
SplineSet
71 739 m 1
 208 739 l 1
 208 450 l 1
 257 450 l 2
 370 450 423 443 468 421 c 0
 540 386 583 310 583 224 c 0
 583 142 545 75 478 37 c 0
 429 9 372 0 259 0 c 2
 71 0 l 1
 71 739 l 1
208 319 m 1
 208 131 l 1
 263 131 l 2
 317 131 342 133 368 138 c 0
 416 149 445 182 445 227 c 0
 445 267 416 298 369 309 c 0
 342 316 304 319 256 319 c 2
 208 319 l 1
EndSplineSet
EndChar

StartChar: uni042D
Encoding: 205 1069 141
Width: 802
GlyphClass: 2
Flags: MW
HStem: -13 132<344.5 437.5 344.5 485> 307 131<256 619 256 620 256 619> 620 132<340 421>
VStem: 256 510<307 438 438 438>
AnchorPoint: "Anchor-0" 382 805 basechar 0
LayerCount: 2
Fore
SplineSet
197 206 m 1
 258 143 309 119 380 119 c 0
 495 119 592 199 620 307 c 1
 256 307 l 1
 256 438 l 1
 619 438 l 1
 609 476 591 511 567 539 c 0
 522 592 459 620 383 620 c 0
 297 620 239 592 189 527 c 1
 36 527 l 1
 64 589 88 622 135 662 c 0
 204 720 293 752 386 752 c 0
 595 752 766 581 766 372 c 0
 766 158 593 -13 377 -13 c 0
 225 -13 94 71 36 206 c 1
 197 206 l 1
EndSplineSet
EndChar

StartChar: uni042E
Encoding: 206 1070 142
Width: 1109
GlyphClass: 2
Flags: MW
HStem: -19 132<613.5 756.5 613.5 795> 0 21G<71 208 71 71> 310 131<208 295 208 297> 626 132<610 752.5> 719 20G<71 208 208 208>
VStem: 71 137<0 310 0 441 441 739> 295 134<310 310> 935 138<295 442>
AnchorPoint: "Anchor-0" 605 805 basechar 0
LayerCount: 2
Fore
SplineSet
679 626 m 0xb7
 541 626 429 512 429 370 c 0
 429 226 542 113 685 113 c 0
 828 113 935 222 935 368 c 0
 935 516 826 626 679 626 c 0xb7
688 758 m 0
 901 758 1073 584 1073 370 c 0
 1073 151 904 -19 686 -19 c 0xb7
 486 -19 323 122 295 310 c 1
 208 310 l 1
 208 0 l 1
 71 0 l 1
 71 739 l 1
 208 739 l 1x6f
 208 441 l 1
 297 441 l 1
 330 624 489 758 688 758 c 0
EndSplineSet
EndChar

StartChar: uni042F
Encoding: 207 1071 143
Width: 605
GlyphClass: 2
Flags: MW
HStem: 0 21G<22 180 22 22 397 534 397 397> 608 131<325.5 534 350 397>
VStem: 52 138<479 525.5 479 546.5> 397 137<0 267 267 267 398 608 608 608>
AnchorPoint: "Anchor-0" 300 805 basechar 0
LayerCount: 2
Fore
SplineSet
397 398 m 1
 397 608 l 1
 349 608 l 2
 302 608 279 605 257 600 c 0
 215 589 190 550 190 501 c 0
 190 457 215 420 256 409 c 0
 279 402 313 398 355 398 c 2
 397 398 l 1
534 0 m 1
 397 0 l 1
 397 267 l 1
 341 267 l 1
 180 0 l 1
 22 0 l 1
 197 282 l 1
 182 286 170 291 158 298 c 0
 92 335 52 414 52 504 c 0
 52 589 87 660 149 700 c 0
 194 729 246 739 350 739 c 2
 534 739 l 1
 534 0 l 1
EndSplineSet
Substitution2: "'locl' Localized Forms in Cyrillic lookup 8 subtable" uni042F.loclBGR
EndChar

StartChar: uni0430
Encoding: 208 1072 144
Width: 667
GlyphClass: 2
Flags: MW
HStem: -13 122<277.5 346> 0 21G<491 613 491 491> 445 122<275.5 350 228 370.5> 534 20G<491 613 613 613>
VStem: 28 134<223.5 322 223.5 359.5> 491 122<0 72 72 72 480 554 0 554>
AnchorPoint: "Anchor-0" 347 630 basechar 0
LayerCount: 2
Fore
SplineSet
613 554 m 1x1c
 613 0 l 1
 491 0 l 1x5c
 491 72 l 1
 438 11 385 -13 307 -13 c 0
 145 -13 28 108 28 275 c 0
 28 444 146 567 310 567 c 0xac
 390 567 445 541 491 480 c 1
 491 554 l 1
 613 554 l 1x1c
322 445 m 0xac
 229 445 162 372 162 272 c 0
 162 175 229 109 326 109 c 0
 422 109 487 176 487 275 c 0
 487 375 419 445 322 445 c 0xac
EndSplineSet
EndChar

StartChar: uni0431
Encoding: 209 1073 145
Width: 651
GlyphClass: 2
Flags: MW
HStem: -13 122<284 372.5 284 410> 437 119<283 371.5>
VStem: 39 99<451 451 451 526.5> 489 134<227 319>
AnchorPoint: "Anchor-0" 329 840 basechar 0
LayerCount: 2
Fore
SplineSet
326 437 m 0
 240 437 168 364 168 274 c 0
 168 181 240 109 328 109 c 0
 417 109 489 181 489 273 c 0
 489 365 417 437 326 437 c 0
330 556 m 0
 491 556 623 430 623 273 c 0
 623 114 491 -13 329 -13 c 0
 231 -13 139 30 86 117 c 0
 41 191 39 302 39 415 c 0
 39 638 137 761 345 777 c 2
 586 796 l 1
 586 677 l 1
 350 657 l 2
 207 645 139 577 138 451 c 1
 140 450 l 1
 162 493 235 556 330 556 c 0
EndSplineSet
Substitution2: "'locl' Localized Forms in Cyrillic lookup 8 subtable" uni0431.loclBGR
Substitution2: "'ss02' Style Set 2 lookup 2 subtable" uni0431.serbian
EndChar

StartChar: uni0432
Encoding: 210 1074 146
Width: 541
GlyphClass: 2
Flags: MW
HStem: 0 121<187 308 308 317> 237 97<187 281 187 281 281 308> 433 121<187 187 187 281>
VStem: 54 133<121 237 334 433> 364 127<369 399> 375 134<161.5 196.5>
AnchorPoint: "Anchor-0" 254 630 basechar 0
LayerCount: 2
Fore
SplineSet
187 433 m 1xf8
 187 334 l 1
 281 334 l 2
 337 334 364 354 364 384 c 0
 364 414 336 433 281 433 c 2
 187 433 l 1xf8
187 237 m 1
 187 121 l 1
 308 121 l 2
 348 121 375 144 375 179 c 0xf4
 375 214 348 237 308 237 c 2
 187 237 l 1
426 288 m 1
 466 273 509 238 509 179 c 0xf4
 509 81 432 0 317 0 c 2
 54 0 l 1
 54 554 l 1
 282 554 l 2
 403 554 491 498 491 384 c 0xf8
 491 340 460 302 426 288 c 1
EndSplineSet
Substitution2: "'locl' Localized Forms in Cyrillic lookup 8 subtable" uni0432.loclBGR
EndChar

StartChar: uni0433
Encoding: 211 1075 147
Width: 386
GlyphClass: 2
Flags: MW
HStem: 0 21G<54 187 54 54> 433 121<187 368 187 187>
VStem: 54 133<0 433 0 554 0 554>
AnchorPoint: "Anchor-0" 211 630 basechar 0
LayerCount: 2
Fore
SplineSet
368 554 m 1
 368 433 l 1
 187 433 l 1
 187 0 l 1
 54 0 l 1
 54 554 l 1
 368 554 l 1
EndSplineSet
Substitution2: "'locl' Localized Forms in Cyrillic lookup 8 subtable" uni0433.loclBGR
EndChar

StartChar: uni0434
Encoding: 212 1076 148
Width: 676
GlyphClass: 2
Flags: MW
HStem: -132 253<10 95 10 106 10 95 581 666> 0 121<233 443 10 134> 534 20G<280 396 396 396>
AnchorPoint: "Anchor-0" 338 630 basechar 0
LayerCount: 2
Fore
SplineSet
666 -132 m 1xa0
 571 -132 l 1xa0
 543 0 l 1
 134 0 l 1x60
 106 -132 l 1
 10 -132 l 1
 10 121 l 1
 95 121 l 1
 280 554 l 1
 396 554 l 1
 581 121 l 1
 666 121 l 1
 666 -132 l 1xa0
443 121 m 1x60
 338 371 l 1
 233 121 l 1
 443 121 l 1x60
EndSplineSet
Substitution2: "'locl' Localized Forms in Cyrillic lookup 8 subtable" uni0434.loclBGR
EndChar

StartChar: uni0435
Encoding: 213 1077 149
Width: 634
GlyphClass: 2
Flags: MW
HStem: -13 122<285.5 352.5 285.5 373.5> 218 117<172 475 168 601 172 172> 445 122<282.5 363>
AnchorPoint: "Anchor-0" 324 630 basechar 0
LayerCount: 2
Fore
SplineSet
601 218 m 1
 172 218 l 1
 188 151 246 109 325 109 c 0
 380 109 413 124 447 164 c 1
 592 164 l 1
 583 136 569 113 548 87 c 0
 490 19 419 -13 328 -13 c 0
 159 -13 28 113 28 275 c 0
 28 438 157 567 320 567 c 0
 485 567 606 441 606 269 c 0
 606 249 605 237 601 218 c 1
168 335 m 1
 475 335 l 1
 458 406 404 445 322 445 c 0
 243 445 189 407 168 335 c 1
EndSplineSet
EndChar

StartChar: uni0436
Encoding: 214 1078 150
Width: 819
GlyphClass: 2
Flags: MW
HStem: 0 21G<2 164 2 2 343 476 343 343 655 817 655 655> 534 20G<14 169 169 169 343 476 476 476 650 805 805 805>
VStem: 343 133<0 258 0 258 296 554>
AnchorPoint: "Anchor-0" 409 630 basechar 0
LayerCount: 2
Fore
SplineSet
476 296 m 1
 650 554 l 1
 805 554 l 1
 606 279 l 1
 817 0 l 1
 655 0 l 1
 476 258 l 1
 476 0 l 1
 343 0 l 1
 343 258 l 1
 164 0 l 1
 2 0 l 1
 213 279 l 1
 14 554 l 1
 169 554 l 1
 343 296 l 1
 343 554 l 1
 476 554 l 1
 476 296 l 1
EndSplineSet
Substitution2: "'locl' Localized Forms in Cyrillic lookup 8 subtable" uni0436.loclBGR
EndChar

StartChar: uni0437
Encoding: 215 1079 151
Width: 478
GlyphClass: 2
Flags: MW
HStem: -13 122<213.5 256.5 213.5 293> 243 88<198 231> 447 121<216 252.5>
VStem: 297 129<371 407.5> 312 134<156.5 201 123 205>
AnchorPoint: "Anchor-0" 235 630 basechar 0
LayerCount: 2
Fore
SplineSet
198 243 m 1xe8
 198 331 l 1
 264 331 297 346 297 393 c 0
 297 422 270 447 235 447 c 0
 197 447 173 423 167 393 c 1
 42 393 l 1
 49 492 129 568 235 568 c 0
 341 568 426 490 426 393 c 0xf0
 426 349 396 303 347 292 c 1
 347 291 l 1
 402 277 446 227 446 175 c 0
 446 71 351 -13 235 -13 c 0
 119 -13 31 73 24 175 c 1
 156 175 l 1
 160 137 192 109 235 109 c 0
 278 109 312 138 312 175 c 0
 312 235 265 242 198 243 c 1xe8
EndSplineSet
Substitution2: "'locl' Localized Forms in Cyrillic lookup 8 subtable" uni0437.loclBGR
EndChar

StartChar: uni0438
Encoding: 216 1080 152
Width: 623
GlyphClass: 2
Flags: MW
HStem: 0 21G<54 189 54 54 437 569 437 437> 534 20G<54 186 186 186 434 569 569 569>
VStem: 54 132<188 554 188 554 188 554> 437 132<0 366 366 366>
AnchorPoint: "Anchor-0" 311 630 basechar 0
LayerCount: 2
Fore
SplineSet
434 554 m 1
 569 554 l 1
 569 0 l 1
 437 0 l 1
 437 366 l 1
 189 0 l 1
 54 0 l 1
 54 554 l 1
 186 554 l 1
 186 188 l 1
 434 554 l 1
EndSplineSet
Substitution2: "'locl' Localized Forms in Cyrillic lookup 8 subtable" uni0438.loclBGR
EndChar

StartChar: uni0439
Encoding: 217 1081 153
Width: 623
GlyphClass: 2
Flags: MW
HStem: 0 21G<54 189 54 54 437 569 437 437> 534 20G<54 186 186 186 434 569 569 569> 616 59<289.5 334.5 289.5 357.5> 726 20G<147 248 248 248 376 477 477 477>
VStem: 54 132<188 554 188 554 188 554> 147 101<721 746> 376 101<721 746> 437 132<0 366 366 366>
AnchorPoint: "Anchor-0" 311 840 basechar 0
LayerCount: 2
Fore
SplineSet
147 746 m 1x36
 248 746 l 1
 248 696 267 675 312 675 c 0
 357 675 376 696 376 746 c 1
 477 746 l 1
 462 656 403 616 312 616 c 0
 221 616 162 656 147 746 c 1x36
434 554 m 1xc9
 569 554 l 1
 569 0 l 1
 437 0 l 1
 437 366 l 1
 189 0 l 1
 54 0 l 1
 54 554 l 1
 186 554 l 1
 186 188 l 1
 434 554 l 1xc9
EndSplineSet
Substitution2: "'locl' Localized Forms in Cyrillic lookup 8 subtable" uni0439.loclBGR
EndChar

StartChar: uni043A
Encoding: 218 1082 154
Width: 554
GlyphClass: 2
Flags: MW
HStem: 0 21G<54 54 54 187 379 379 379 552> 534 20G<54 187 187 187 379 540 540 540>
VStem: 54 133<0 255 299 554>
AnchorPoint: "Anchor-0" 305 630 basechar 0
LayerCount: 2
Fore
SplineSet
54 0 m 1
 54 554 l 1
 187 554 l 1
 187 299 l 1
 379 554 l 1
 540 554 l 1
 319 279 l 1
 552 0 l 1
 379 0 l 1
 187 255 l 1
 187 0 l 1
 54 0 l 1
EndSplineSet
Substitution2: "'locl' Localized Forms in Cyrillic lookup 8 subtable" uni043A.loclBGR
EndChar

StartChar: uni043B
Encoding: 219 1083 155
Width: 572
GlyphClass: 2
Flags: MW
HStem: 0 21G<3 145 3 3 427 569 427 427> 534 20G<234 338 338 338>
AnchorPoint: "Anchor-0" 286 630 basechar 0
LayerCount: 2
Fore
SplineSet
569 0 m 1
 427 0 l 1
 286 368 l 1
 145 0 l 1
 3 0 l 1
 234 554 l 1
 338 554 l 1
 569 0 l 1
EndSplineSet
Substitution2: "'locl' Localized Forms in Cyrillic lookup 8 subtable" uni043B.loclBGR
EndChar

StartChar: uni043C
Encoding: 220 1084 156
Width: 746
GlyphClass: 2
Flags: MW
HStem: 0 21G<54 187 54 54 559 559 559 692> 534 20G<54 206 206 206 540 692 692 692>
VStem: 54 133<0 366 0 554> 559 133<0 366 366 366>
AnchorPoint: "Anchor-0" 373 630 basechar 0
LayerCount: 2
Fore
SplineSet
412 115 m 1
 334 115 l 1
 187 366 l 1
 187 0 l 1
 54 0 l 1
 54 554 l 1
 206 554 l 1
 373 270 l 1
 540 554 l 1
 692 554 l 1
 692 0 l 1
 559 0 l 1
 559 366 l 1
 412 115 l 1
EndSplineSet
EndChar

StartChar: uni043D
Encoding: 221 1085 157
Width: 618
GlyphClass: 2
Flags: MW
HStem: 0 21G<54 187 54 54 431 564 431 431> 219 121<187 431 187 431> 534 20G<54 187 187 187 431 564 564 564>
VStem: 54 133<0 219 0 340 340 554> 431 133<0 219 219 219 340 554>
AnchorPoint: "Anchor-0" 309 630 basechar 0
LayerCount: 2
Fore
SplineSet
564 0 m 1
 431 0 l 1
 431 219 l 1
 187 219 l 1
 187 0 l 1
 54 0 l 1
 54 554 l 1
 187 554 l 1
 187 340 l 1
 431 340 l 1
 431 554 l 1
 564 554 l 1
 564 0 l 1
EndSplineSet
EndChar

StartChar: uni043E
Encoding: 222 1086 158
Width: 645
GlyphClass: 2
Flags: MW
HStem: -13 122<278 366.5 278 404> 445 122<277 365.5>
VStem: 28 134<230.5 323 230.5 357> 483 134<230 323.5>
AnchorPoint: "Anchor-0" 322 630 basechar 0
LayerCount: 2
Fore
SplineSet
325 567 m 0
 486 567 617 436 617 276 c 0
 617 117 485 -13 323 -13 c 0
 160 -13 28 117 28 276 c 0
 28 438 159 567 325 567 c 0
320 445 m 0
 234 445 162 369 162 277 c 0
 162 184 234 109 322 109 c 0
 411 109 483 184 483 276 c 0
 483 371 411 445 320 445 c 0
EndSplineSet
EndChar

StartChar: uni043F
Encoding: 223 1087 159
Width: 618
GlyphClass: 2
Flags: MW
HStem: 0 21G<54 187 54 54 431 564 431 431> 433 121<187 431 187 187>
VStem: 54 133<0 433 0 554 0 554> 431 133<0 433 433 433>
AnchorPoint: "Anchor-0" 309 630 basechar 0
LayerCount: 2
Fore
SplineSet
564 0 m 1
 431 0 l 1
 431 433 l 1
 187 433 l 1
 187 0 l 1
 54 0 l 1
 54 554 l 1
 564 554 l 1
 564 0 l 1
EndSplineSet
Substitution2: "'locl' Localized Forms in Cyrillic lookup 8 subtable" uni043F.loclBGR
EndChar

StartChar: uni0440
Encoding: 224 1088 160
Width: 662
GlyphClass: 2
Flags: MW
HStem: -185 21G<54 54 54 187> -13 122<323 386.5 296 437> 445 122<320.5 385> 534 20G<54 176 176 176>
VStem: 54 122<489 554 489 554 489 554> 54 133<-185 52 -185 554> 500 134<229 324.5>
AnchorPoint: "Anchor-0" 328 630 basechar 0
LayerCount: 2
Fore
SplineSet
54 -185 m 1xe6
 54 554 l 1
 176 554 l 1
 176 489 l 1xda
 219 540 283 567 358 567 c 0
 518 567 634 446 634 279 c 0
 634 111 517 -13 357 -13 c 0
 289 -13 238 7 187 52 c 1
 187 -185 l 1
 54 -185 l 1xe6
338 445 m 0xe2
 248 445 179 372 179 275 c 0
 179 181 250 109 342 109 c 0
 431 109 500 182 500 276 c 0
 500 373 432 445 338 445 c 0xe2
EndSplineSet
EndChar

StartChar: uni0441
Encoding: 225 1089 161
Width: 625
GlyphClass: 2
Flags: MW
HStem: -13 122<277 350.5 277 389> 445 122<273.5 350>
VStem: 28 134<229.5 327 229.5 358.5>
AnchorPoint: "Anchor-0" 320 630 basechar 0
LayerCount: 2
Fore
SplineSet
449 182 m 1
 599 182 l 1
 553 58 454 -13 324 -13 c 0
 160 -13 28 116 28 277 c 0
 28 440 156 567 320 567 c 0
 399 567 474 538 528 485 c 0
 563 451 580 423 599 369 c 1
 449 369 l 1
 422 421 380 445 320 445 c 0
 227 445 162 376 162 278 c 0
 162 181 231 109 323 109 c 0
 378 109 416 131 449 182 c 1
EndSplineSet
EndChar

StartChar: uni0442
Encoding: 226 1090 162
Width: 427
GlyphClass: 2
Flags: MW
HStem: 0 21G<147 280 147 147> 433 121<18 147 18 409 280 409 280 280>
VStem: 147 133<0 433 0 433>
AnchorPoint: "Anchor-0" 213 630 basechar 0
LayerCount: 2
Fore
SplineSet
409 433 m 1
 280 433 l 1
 280 0 l 1
 147 0 l 1
 147 433 l 1
 18 433 l 1
 18 554 l 1
 409 554 l 1
 409 433 l 1
EndSplineSet
Substitution2: "'locl' Localized Forms in Cyrillic lookup 8 subtable" uni0442.loclBGR
EndChar

StartChar: uni0443
Encoding: 227 1091 163
Width: 568
GlyphClass: 2
Flags: MW
HStem: -185 21G<102 102 102 245> 534 20G<3 155 155 155 412 565 565 565>
AnchorPoint: "Anchor-0" 284 630 basechar 0
LayerCount: 2
Fore
SplineSet
102 -185 m 1
 206 52 l 1
 3 554 l 1
 155 554 l 1
 278 195 l 1
 412 554 l 1
 565 554 l 1
 245 -185 l 1
 102 -185 l 1
EndSplineSet
EndChar

StartChar: uni0444
Encoding: 228 1092 164
Width: 779
GlyphClass: 2
Flags: MW
HStem: -185 21G<323 456 323 323> -10 123<323 323> 441 123<323 323> 719 20G<323 456 456 456>
VStem: 33 134<229 323 229 360> 323 133<-185 -10 -185 -10 113 441 564 739> 612 134<229 323>
CounterMasks: 1 0e
AnchorPoint: "Anchor-0" 389 805 basechar 0
LayerCount: 2
Fore
SplineSet
323 739 m 1
 456 739 l 1
 456 564 l 1
 663 547 746 444 746 276 c 0
 746 108 663 7 456 -10 c 1
 456 -185 l 1
 323 -185 l 1
 323 -10 l 1
 117 7 33 108 33 276 c 0
 33 444 117 546 323 564 c 1
 323 739 l 1
323 441 m 1
 212 426 167 370 167 276 c 0
 167 182 212 127 323 113 c 1
 323 441 l 1
456 113 m 1
 568 127 612 182 612 276 c 0
 612 370 568 426 456 441 c 1
 456 113 l 1
EndSplineSet
EndChar

StartChar: uni0445
Encoding: 229 1093 165
Width: 558
GlyphClass: 2
Flags: MW
HStem: 0 21G<3 3 3 163 395 395 395 555> 534 20G<29 179 179 179 377 527 527 527>
AnchorPoint: "Anchor-0" 279 630 basechar 0
LayerCount: 2
Fore
SplineSet
3 0 m 1
 199 286 l 1
 29 554 l 1
 179 554 l 1
 279 387 l 1
 377 554 l 1
 527 554 l 1
 358 286 l 1
 555 0 l 1
 395 0 l 1
 279 190 l 1
 163 0 l 1
 3 0 l 1
EndSplineSet
EndChar

StartChar: uni0446
Encoding: 230 1094 166
Width: 662
GlyphClass: 2
Flags: MW
HStem: 0 121<187 410 187 525> 534 20G<54 187 187 187 410 543 543 543>
VStem: 54 133<121 554 121 554 121 554> 410 133<121 554 121 554>
AnchorPoint: "Anchor-0" 298 630 basechar 0
LayerCount: 2
Fore
SplineSet
543 554 m 1
 543 121 l 1
 649 121 l 1
 649 -132 l 1
 553 -132 l 1
 525 0 l 1
 54 0 l 1
 54 554 l 1
 187 554 l 1
 187 121 l 1
 410 121 l 1
 410 554 l 1
 543 554 l 1
EndSplineSet
Substitution2: "'locl' Localized Forms in Cyrillic lookup 8 subtable" uni0446.loclBGR
EndChar

StartChar: uni0447
Encoding: 231 1095 167
Width: 534
GlyphClass: 2
Flags: MW
HStem: 0 21G<347 480 347 347> 186 121<224 245> 534 20G<35 168 168 168 347 480 480 480>
VStem: 35 133<393 554> 347 133<0 199 199 199 316 554 0 554>
AnchorPoint: "Anchor-0" 256 630 basechar 0
LayerCount: 2
Fore
SplineSet
480 554 m 1
 480 0 l 1
 347 0 l 1
 347 199 l 1
 295 189 265 186 225 186 c 0
 106 186 35 262 35 393 c 2
 35 554 l 1
 168 554 l 1
 168 393 l 2
 168 326 188 307 260 307 c 0
 292 307 319 310 347 316 c 1
 347 554 l 1
 480 554 l 1
EndSplineSet
EndChar

StartChar: uni0448
Encoding: 232 1096 168
Width: 833
GlyphClass: 2
Flags: MW
HStem: 0 121<187 350 483 646> 534 20G<54 187 187 187 350 483 483 483 646 779 779 779>
VStem: 54 133<121 554 121 554 121 554> 350 133<121 554 121 554> 646 133<121 554>
CounterMasks: 1 38
AnchorPoint: "Anchor-0" 416 630 basechar 0
LayerCount: 2
Fore
SplineSet
779 0 m 1
 54 0 l 1
 54 554 l 1
 187 554 l 1
 187 121 l 1
 350 121 l 1
 350 554 l 1
 483 554 l 1
 483 121 l 1
 646 121 l 1
 646 554 l 1
 779 554 l 1
 779 0 l 1
EndSplineSet
Substitution2: "'locl' Localized Forms in Cyrillic lookup 8 subtable" uni0448.loclBGR
EndChar

StartChar: uni0449
Encoding: 233 1097 169
Width: 898
GlyphClass: 2
Flags: MW
HStem: 0 121<187 350 483 646> 534 20G<54 187 187 187 350 483 483 483 646 779 779 779>
VStem: 54 133<121 554 121 554 121 554> 350 133<121 554 121 554> 646 133<121 554 121 554>
CounterMasks: 1 38
AnchorPoint: "Anchor-0" 416 630 basechar 0
LayerCount: 2
Fore
SplineSet
885 121 m 1
 885 -132 l 1
 789 -132 l 1
 761 0 l 1
 54 0 l 1
 54 554 l 1
 187 554 l 1
 187 121 l 1
 350 121 l 1
 350 554 l 1
 483 554 l 1
 483 121 l 1
 646 121 l 1
 646 554 l 1
 779 554 l 1
 779 121 l 1
 885 121 l 1
EndSplineSet
Substitution2: "'locl' Localized Forms in Cyrillic lookup 8 subtable" uni0449.loclBGR
EndChar

StartChar: uni044A
Encoding: 234 1098 170
Width: 620
GlyphClass: 2
Flags: MW
HStem: 0 121<295 397 397 406> 243 121<295 406 295 397> 433 121<18 162 18 295>
VStem: 162 133<121 243 364 433 433 433> 464 134<164.5 199.5>
AnchorPoint: "Anchor-0" 228 630 basechar 0
LayerCount: 2
Fore
SplineSet
406 364 m 2
 521 364 598 280 598 182 c 0
 598 84 521 0 406 0 c 2
 162 0 l 1
 162 433 l 1
 18 433 l 1
 18 554 l 1
 295 554 l 1
 295 364 l 1
 406 364 l 2
295 243 m 1
 295 121 l 1
 397 121 l 2
 437 121 464 147 464 182 c 0
 464 217 437 243 397 243 c 2
 295 243 l 1
EndSplineSet
Substitution2: "'locl' Localized Forms in Cyrillic lookup 8 subtable" uni044A.loclBGR
EndChar

StartChar: uni044B
Encoding: 235 1099 171
Width: 727
GlyphClass: 2
Flags: MW
HStem: 0 121<187 289 289 298> 243 121<187 298 187 289> 534 20G<54 187 187 187 540 673 673 673>
VStem: 54 133<121 243 121 364 364 554> 356 134<164.5 199.5> 540 133<0 554 0 554>
AnchorPoint: "Anchor-0" 363 630 basechar 0
LayerCount: 2
Fore
SplineSet
187 243 m 1
 187 121 l 1
 289 121 l 2
 329 121 356 147 356 182 c 0
 356 217 329 243 289 243 c 2
 187 243 l 1
298 364 m 2
 413 364 490 280 490 182 c 0
 490 84 413 0 298 0 c 2
 54 0 l 1
 54 554 l 1
 187 554 l 1
 187 364 l 1
 298 364 l 2
540 0 m 1
 540 554 l 1
 673 554 l 1
 673 0 l 1
 540 0 l 1
EndSplineSet
Substitution2: "'locl' Localized Forms in Cyrillic lookup 8 subtable" uni044B.loclBGR
EndChar

StartChar: uni044C
Encoding: 236 1100 172
Width: 512
GlyphClass: 2
Flags: MW
HStem: 0 121<187 289 289 298> 243 121<187 298 187 289> 534 20G<54 187 187 187>
VStem: 54 133<121 243 121 364 364 554> 356 134<164.5 199.5>
AnchorPoint: "Anchor-0" 120 630 basechar 0
LayerCount: 2
Fore
SplineSet
187 243 m 1
 187 121 l 1
 289 121 l 2
 329 121 356 147 356 182 c 0
 356 217 329 243 289 243 c 2
 187 243 l 1
298 364 m 2
 413 364 490 280 490 182 c 0
 490 84 413 0 298 0 c 2
 54 0 l 1
 54 554 l 1
 187 554 l 1
 187 364 l 1
 298 364 l 2
EndSplineSet
Substitution2: "'locl' Localized Forms in Cyrillic lookup 8 subtable" uni044C.loclBGR
EndChar

StartChar: uni044D
Encoding: 237 1101 173
Width: 619
GlyphClass: 2
Flags: MW
HStem: -13 122<271.5 332 271.5 377> 220 117<214 448 214 449> 445 122<272 335.5>
VStem: 214 377<220 337 337 337>
AnchorPoint: "Anchor-0" 298 630 basechar 0
LayerCount: 2
Fore
SplineSet
181 167 m 1
 212 127 247 109 296 109 c 0
 368 109 426 154 448 220 c 1
 214 220 l 1
 214 337 l 1
 449 337 l 1
 429 403 372 445 299 445 c 0
 245 445 206 426 179 384 c 1
 26 384 l 1
 70 491 167 567 299 567 c 0
 463 567 591 440 591 277 c 0
 591 116 459 -13 295 -13 c 0
 170 -13 74 52 26 167 c 1
 181 167 l 1
EndSplineSet
EndChar

StartChar: uni044E
Encoding: 238 1102 174
Width: 871
GlyphClass: 2
Flags: MW
HStem: -17 122<499 589.5 499 627> 0 21G<54 187 54 54> 219 121<187 252 187 253> 449 122<498 588.5> 534 20G<54 187 187 187>
VStem: 54 133<0 219 0 340 340 554> 709 134<229 324.5>
AnchorPoint: "Anchor-0" 470 630 basechar 0
LayerCount: 2
Fore
SplineSet
542 449 m 0xb6
 454 449 380 371 380 277 c 0
 380 182 454 105 544 105 c 0
 635 105 709 182 709 276 c 0
 709 373 635 449 542 449 c 0xb6
547 571 m 0
 710 571 843 438 843 276 c 0
 843 115 709 -17 545 -17 c 0xb6
 400 -17 279 85 252 219 c 1
 187 219 l 1
 187 0 l 1
 54 0 l 1
 54 554 l 1
 187 554 l 1x6e
 187 340 l 1
 253 340 l 1
 282 473 402 571 547 571 c 0
EndSplineSet
Substitution2: "'locl' Localized Forms in Cyrillic lookup 8 subtable" uni044E.loclBGR
EndChar

StartChar: uni044F
Encoding: 239 1103 175
Width: 513
GlyphClass: 2
Flags: MW
HStem: 0 21G<17 177 17 17 326 459 326 326> 433 121<230 239 239 326>
VStem: 38 134<355.5 390.5 355.5 422> 326 133<0 192 192 192 313 433 433 433>
AnchorPoint: "Anchor-0" 257 630 basechar 0
LayerCount: 2
Fore
SplineSet
326 313 m 1
 326 433 l 1
 239 433 l 2
 199 433 172 408 172 373 c 0
 172 338 199 313 239 313 c 2
 326 313 l 1
157 204 m 1
 84 231 38 298 38 373 c 0
 38 471 115 554 230 554 c 2
 459 554 l 1
 459 0 l 1
 326 0 l 1
 326 192 l 1
 294 192 l 1
 177 0 l 1
 17 0 l 1
 157 204 l 1
EndSplineSet
Substitution2: "'locl' Localized Forms in Cyrillic lookup 8 subtable" uni044F.loclBGR
EndChar

StartChar: uni2116
Encoding: 240 8470 176
Width: 1050
GlyphClass: 2
Flags: MW
HStem: 0 21G<71 71 71 208 471 471 471 627> 307 101<684 992 684 992> 444 89<820.5 855.5 820.5 881> 663 89<820.5 855.5> 719 20G<71 227 227 227 490 627 627 627>
VStem: 71 137<0 506 0 739> 490 137<233 739 0 739> 682 92<580 616 580 640.5> 902 92<580 616>
LayerCount: 2
Fore
SplineSet
838 752 m 0xf780
 924 752 994 683 994 598 c 0
 994 513 924 444 838 444 c 0
 752 444 682 513 682 598 c 0
 682 683 752 752 838 752 c 0xf780
838 663 m 0
 803 663 774 634 774 598 c 0
 774 562 803 533 838 533 c 0
 873 533 902 562 902 598 c 0
 902 634 873 663 838 663 c 0
684 307 m 1
 684 408 l 1
 992 408 l 1
 992 307 l 1
 684 307 l 1
71 0 m 1
 71 739 l 1
 227 739 l 1
 490 233 l 1
 490 739 l 1
 627 739 l 1xef80
 627 0 l 1
 471 0 l 1
 208 506 l 1
 208 0 l 1
 71 0 l 1
EndSplineSet
EndChar

StartChar: uni0451
Encoding: 241 1105 177
Width: 634
GlyphClass: 2
Flags: MW
HStem: -13 122<285.5 352.5 285.5 373.5> 218 117<172 475 168 601 172 172> 445 122<282.5 363> 630 133<153 286 153 286 363 496 153 363>
VStem: 153 133<630 763 630 763> 363 133<630 763 630 763>
AnchorPoint: "Anchor-0" 324 840 basechar 0
LayerCount: 2
Fore
SplineSet
601 218 m 1
 172 218 l 1
 188 151 246 109 325 109 c 0
 380 109 413 124 447 164 c 1
 592 164 l 1
 583 136 569 113 548 87 c 0
 490 19 419 -13 328 -13 c 0
 159 -13 28 113 28 275 c 0
 28 438 157 567 320 567 c 0
 485 567 606 441 606 269 c 0
 606 249 605 237 601 218 c 1
168 335 m 1
 475 335 l 1
 458 406 404 445 322 445 c 0
 243 445 189 407 168 335 c 1
153 630 m 1
 153 763 l 1
 286 763 l 1
 286 630 l 1
 153 630 l 1
363 630 m 1
 363 763 l 1
 496 763 l 1
 496 630 l 1
 363 630 l 1
EndSplineSet
EndChar

StartChar: uni0452
Encoding: 242 1106 178
Width: 675
GlyphClass: 2
Flags: MW
HStem: -185 121<400 425.5 400 454> 0 21G<132 265 132 132 623 623> 347 123<377 421> 554 117<13 132 13 132 265 405> 719 20G<132 265 265 265>
VStem: 132 133<0 183 418 554 671 739> 490 133<13 185 185 215>
AnchorPoint: "Anchor-0" 368 805 basechar 0
LayerCount: 2
Fore
SplineSet
623 0 m 2
 623 -106 508 -185 400 -185 c 1
 400 -64 l 1
 451 -64 490 -35 490 13 c 2
 490 185 l 2
 490 302 460 347 382 347 c 0
 336 347 302 328 283 291 c 0
 270 267 265 236 265 183 c 2
 265 0 l 1
 132 0 l 1
 132 554 l 1
 13 554 l 1
 13 671 l 1
 132 671 l 1
 132 739 l 1
 265 739 l 1
 265 671 l 1
 405 671 l 1
 405 554 l 1
 265 554 l 1
 265 418 l 1
 305 454 348 470 406 470 c 0
 487 470 553 437 589 378 c 0
 614 337 623 293 623 215 c 2
 623 0 l 2
EndSplineSet
EndChar

StartChar: uni0453
Encoding: 243 1107 179
Width: 386
GlyphClass: 2
Flags: MW
HStem: 0 21G<54 187 54 54> 433 121<187 368 187 187> 613 212<157 330>
VStem: 54 133<0 433 0 554 0 554> 106 278<691 733>
AnchorPoint: "Anchor-0" 211 840 basechar 0
LayerCount: 2
Fore
SplineSet
157 613 m 1x28
 106 691 l 1
 330 825 l 1
 384 733 l 1
 157 613 l 1x28
368 554 m 1xd0
 368 433 l 1
 187 433 l 1
 187 0 l 1
 54 0 l 1
 54 554 l 1
 368 554 l 1xd0
EndSplineSet
EndChar

StartChar: uni0454
Encoding: 244 1108 180
Width: 619
GlyphClass: 2
Flags: MW
HStem: -13 122<285 345.5 285 384.5> 220 117<169 403 169 169> 445 122<281.5 345>
VStem: 26 377<220 337 220 358.5>
AnchorPoint: "Anchor-0" 321 630 basechar 0
LayerCount: 2
Fore
SplineSet
436 167 m 1
 591 167 l 1
 543 52 447 -13 322 -13 c 0
 158 -13 26 116 26 277 c 0
 26 440 154 567 318 567 c 0
 450 567 547 491 591 384 c 1
 438 384 l 1
 411 426 372 445 318 445 c 0
 245 445 188 403 168 337 c 1
 403 337 l 1
 403 220 l 1
 169 220 l 1
 191 154 249 109 321 109 c 0
 370 109 405 127 436 167 c 1
EndSplineSet
EndChar

StartChar: uni0455
Encoding: 245 1109 181
Width: 438
GlyphClass: 2
Flags: MW
HStem: -13 122<203.5 240.5 203.5 273.5> 445 122<204.5 233>
VStem: 35 133<390 411.5 390 445.5> 283 133<147.5 172>
AnchorPoint: "Anchor-0" 220 630 basechar 0
LayerCount: 2
Fore
SplineSet
15 176 m 1
 149 176 l 1
 162 129 184 109 223 109 c 0
 258 109 283 132 283 163 c 0
 283 181 274 196 258 206 c 0
 244 215 239 217 189 234 c 0
 78 271 35 317 35 398 c 0
 35 493 115 567 219 567 c 0
 276 567 330 543 365 502 c 0
 389 473 399 446 401 401 c 1
 271 401 l 1
 265 430 247 445 219 445 c 0
 190 445 168 425 168 398 c 0
 168 382 177 369 194 361 c 0
 208 355 208 355 262 338 c 0
 374 304 416 260 416 176 c 0
 416 70 329 -13 218 -13 c 0
 149 -13 85 18 50 67 c 0
 29 97 20 124 15 176 c 1
EndSplineSet
EndChar

StartChar: uni0456
Encoding: 246 1110 182
Width: 241
GlyphClass: 2
Flags: MW
HStem: 0 21G<54 54 54 187> 534 20G<54 187 187 187> 614 125<54 187 54 187>
VStem: 54 133<0 554 0 554 614 739>
AnchorPoint: "Anchor-0" 120 805 basechar 0
LayerCount: 2
Fore
SplineSet
54 0 m 1
 54 554 l 1
 187 554 l 1
 187 0 l 1
 54 0 l 1
54 614 m 1
 54 739 l 1
 187 739 l 1
 187 614 l 1
 54 614 l 1
EndSplineSet
Substitution2: "Single Substitution lookup 3 subtable" uni0456.dotless
EndChar

StartChar: uni0457
Encoding: 247 1111 183
Width: 241
GlyphClass: 2
Flags: MW
HStem: 0 21G<54 54 54 187> 534 20G<54 187 187 187> 630 133<-51 82 -51 82 159 292 -51 159>
VStem: -51 133<630 763 630 763> 54 133<0 554 0 554> 159 133<630 763 630 763>
AnchorPoint: "Anchor-0" 120 840 basechar 0
LayerCount: 2
Fore
SplineSet
54 0 m 1xe8
 54 554 l 1
 187 554 l 1
 187 0 l 1
 54 0 l 1xe8
-51 630 m 1xf0
 -51 763 l 1
 82 763 l 1
 82 630 l 1
 -51 630 l 1xf0
159 630 m 1xe4
 159 763 l 1
 292 763 l 1
 292 630 l 1
 159 630 l 1xe4
EndSplineSet
EndChar

StartChar: uni0458
Encoding: 248 1112 184
Width: 255
GlyphClass: 2
Flags: MW
HStem: -185 21G<13 38.5> 534 20G<68 201 201 201> 614 125<68 201 68 201>
VStem: 68 133<40 554 614 739>
AnchorPoint: "Anchor-0" 134 805 basechar 0
LayerCount: 2
Fore
SplineSet
68 554 m 1
 201 554 l 1
 201 37 l 2
 201 -46 183 -99 142 -137 c 0
 109 -168 64 -185 13 -185 c 1
 13 -56 l 1
 63 -47 68 -38 68 40 c 2
 68 554 l 1
68 614 m 1
 68 739 l 1
 201 739 l 1
 201 614 l 1
 68 614 l 1
EndSplineSet
Substitution2: "Single Substitution lookup 3 subtable" uni0458.dotless
EndChar

StartChar: uni0459
Encoding: 249 1113 185
Width: 813
GlyphClass: 2
Flags: MW
HStem: 0 121<488 590 590 599> 243 121<488 599 488 590> 534 20G<355 488 488 488>
VStem: 355 133<121 243 121 334 121 334> 657 134<164.5 199.5>
AnchorPoint: "Anchor-0" 419 630 basechar 0
LayerCount: 2
Fore
SplineSet
599 364 m 2
 714 364 791 280 791 182 c 0
 791 84 714 0 599 0 c 2
 355 0 l 1
 355 334 l 1
 154 0 l 1
 2 0 l 1
 355 554 l 1
 488 554 l 1
 488 364 l 1
 599 364 l 2
488 243 m 1
 488 121 l 1
 590 121 l 2
 630 121 657 147 657 182 c 0
 657 217 630 243 590 243 c 2
 488 243 l 1
EndSplineSet
EndChar

StartChar: uni045A
Encoding: 250 1114 186
Width: 877
GlyphClass: 2
Flags: MW
HStem: 0 121<552 654 654 663> 219 121<187 419 187 419> 243 121<552 663 552 654> 534 20G<54 187 187 187 419 552 552 552>
VStem: 54 133<0 219 0 340 340 554> 419 133<121 219 219 219 364 554> 721 134<164.5 199.5>
AnchorPoint: "Anchor-0" 476 630 basechar 0
LayerCount: 2
Fore
SplineSet
663 364 m 2xbe
 778 364 855 280 855 182 c 0
 855 84 778 0 663 0 c 2
 419 0 l 1
 419 219 l 1
 187 219 l 1
 187 0 l 1
 54 0 l 1
 54 554 l 1
 187 554 l 1
 187 340 l 1
 419 340 l 1xde
 419 554 l 1
 552 554 l 1
 552 364 l 1
 663 364 l 2xbe
552 243 m 1xbe
 552 121 l 1
 654 121 l 2
 694 121 721 147 721 182 c 0
 721 217 694 243 654 243 c 2
 552 243 l 1xbe
EndSplineSet
EndChar

StartChar: uni045B
Encoding: 251 1115 187
Width: 675
GlyphClass: 2
Flags: MW
HStem: 0 21G<132 265 132 132 490 623 490 490> 347 123<377 421> 554 117<13 132 13 132 265 405> 719 20G<132 265 265 265>
VStem: 132 133<0 183 418 554 671 739> 490 133<0 185 185 215 0 243.5>
AnchorPoint: "Anchor-0" 368 805 basechar 0
LayerCount: 2
Fore
SplineSet
132 554 m 1
 13 554 l 1
 13 671 l 1
 132 671 l 1
 132 739 l 1
 265 739 l 1
 265 671 l 1
 405 671 l 1
 405 554 l 1
 265 554 l 1
 265 418 l 1
 305 454 348 470 406 470 c 0
 487 470 553 437 589 378 c 0
 614 337 623 293 623 215 c 2
 623 0 l 1
 490 0 l 1
 490 185 l 2
 490 302 460 347 382 347 c 0
 336 347 302 328 283 291 c 0
 270 267 265 236 265 183 c 2
 265 0 l 1
 132 0 l 1
 132 554 l 1
EndSplineSet
EndChar

StartChar: uni045C
Encoding: 252 1116 188
Width: 554
GlyphClass: 2
Flags: MW
HStem: 0 21G<54 54 54 187 379 379 379 552> 534 20G<54 187 187 187 379 540 540 540> 613 212<251 424>
VStem: 54 133<0 255 299 554> 200 278<691 733>
AnchorPoint: "Anchor-0" 305 840 basechar 0
LayerCount: 2
Fore
SplineSet
251 613 m 1
 200 691 l 1
 424 825 l 1
 478 733 l 1
 251 613 l 1
54 0 m 1
 54 554 l 1
 187 554 l 1
 187 299 l 1
 379 554 l 1
 540 554 l 1
 319 279 l 1
 552 0 l 1
 379 0 l 1
 187 255 l 1
 187 0 l 1
 54 0 l 1
EndSplineSet
EndChar

StartChar: section
Encoding: 253 167 189
Width: 560
GlyphClass: 2
Flags: MW
HStem: -157 122<264.5 310 264.5 347> 563 21G<366 492 366 366> 630 122<259 305.5>
VStem: 35 117<342.5 364.5 342.5 378> 55 134<43 55> 85 127<568 596.5> 372 127<11 44.5> 400 124<266.5 290>
LayerCount: 2
Fore
SplineSet
492 563 m 1xe4
 366 563 l 1
 357 610 331 630 280 630 c 0
 238 630 212 612 212 581 c 0
 212 555 233 531 273 512 c 2
 437 431 l 2
 490 405 524 351 524 292 c 0xe5
 524 237 497 186 449 150 c 1
 485 114 499 79 499 31 c 0
 499 -79 410 -157 284 -157 c 0
 206 -157 143 -128 101 -75 c 0
 72 -38 60 -4 55 55 c 1
 189 55 l 1xea
 189 31 190 23 196 10 c 0
 211 -18 244 -35 285 -35 c 0
 335 -35 372 -8 372 30 c 0
 372 59 358 73 299 103 c 2
 136 187 l 2
 68 221 35 274 35 347 c 0xf2
 35 409 58 452 113 493 c 1
 93 523 85 550 85 586 c 0
 85 684 167 752 286 752 c 0
 406 752 476 687 492 563 c 1xe4
340 339 m 2
 191 413 l 1
 163 391 152 375 152 354 c 0xf1
 152 331 169 313 212 291 c 2
 363 215 l 1
 386 231 400 255 400 278 c 0
 400 302 388 314 340 339 c 2
EndSplineSet
EndChar

StartChar: uni045E
Encoding: 254 1118 190
Width: 568
GlyphClass: 2
Flags: MW
HStem: -185 21G<102 102 102 245> 534 20G<3 155 155 155 412 565 565 565> 616 59<261.5 306.5 261.5 329.5> 726 20G<119 220 220 220 348 449 449 449>
VStem: 119 101<721 746> 348 101<721 746>
AnchorPoint: "Anchor-0" 284 840 basechar 0
LayerCount: 2
Fore
SplineSet
119 746 m 1
 220 746 l 1
 220 696 239 675 284 675 c 0
 329 675 348 696 348 746 c 1
 449 746 l 1
 434 656 375 616 284 616 c 0
 193 616 134 656 119 746 c 1
102 -185 m 1
 206 52 l 1
 3 554 l 1
 155 554 l 1
 278 195 l 1
 412 554 l 1
 565 554 l 1
 245 -185 l 1
 102 -185 l 1
EndSplineSet
EndChar

StartChar: uni045F
Encoding: 255 1119 191
Width: 618
GlyphClass: 2
Flags: MW
HStem: 0 121<187 236 382 431 187 564 382 382> 534 20G<54 187 187 187 431 564 564 564>
VStem: 54 133<121 554 121 554 121 554> 263 92<-139 -139> 431 133<121 554 0 554>
CounterMasks: 1 38
AnchorPoint: "Anchor-0" 309 630 basechar 0
LayerCount: 2
Fore
SplineSet
54 554 m 1
 187 554 l 1
 187 121 l 1
 431 121 l 1
 431 554 l 1
 564 554 l 1
 564 0 l 1
 382 0 l 1
 355 -139 l 1
 263 -139 l 1
 236 0 l 1
 54 0 l 1
 54 554 l 1
EndSplineSet
EndChar

StartChar: exclamdown
Encoding: 257 161 192
Width: 321
GlyphClass: 2
Flags: MW
HStem: -185 21G<94 227 94 94> 426 128<94 227 94 227>
VStem: 94 133<-185 366 -185 366 426 554>
LayerCount: 2
Fore
SplineSet
227 366 m 1
 227 -185 l 1
 94 -185 l 1
 94 366 l 1
 227 366 l 1
227 554 m 1
 227 426 l 1
 94 426 l 1
 94 554 l 1
 227 554 l 1
EndSplineSet
EndChar

StartChar: cent
Encoding: 258 162 193
Width: 560
GlyphClass: 2
Flags: MW
HStem: 39 231<254 302 254 348 223 302> 489 226<251 299.5>
VStem: 44 133<349.5 410.5 347.5 415> 223 125<39 148 39 148 611 715>
LayerCount: 2
Fore
SplineSet
348 39 m 1
 223 39 l 1
 223 148 l 1
 173 159 141 177 108 213 c 0
 67 256 44 318 44 381 c 0
 44 449 72 514 121 559 c 0
 151 586 177 599 223 611 c 1
 223 715 l 1
 348 715 l 1
 348 611 l 1
 434 590 498 525 516 443 c 1
 374 443 l 1
 354 471 318 489 281 489 c 0
 221 489 177 442 177 379 c 0
 177 316 223 270 285 270 c 0
 319 270 345 282 370 310 c 1
 516 310 l 1
 482 221 428 169 348 148 c 1
 348 39 l 1
EndSplineSet
EndChar

StartChar: sterling
Encoding: 259 163 194
Width: 560
GlyphClass: 2
Flags: MW
HStem: 0 125<41 180 41 180 41 301> 310 125<0 58 0 142 0 58 301 301 301 408> 630 122<251 305>
VStem: 41 133<500.5 544.5 496 582> 200 133<189 218 189 218> 430 133<203 228.5>
LayerCount: 2
Fore
SplineSet
41 0 m 1
 41 125 l 1
 180 125 l 1
 193 147 200 171 200 197 c 0
 200 239 184 270 142 310 c 1
 0 310 l 1
 0 435 l 1
 58 435 l 1
 46 462 41 485 41 516 c 0
 41 648 146 752 280 752 c 0
 408 752 503 666 514 541 c 1
 379 541 l 1
 365 598 329 630 281 630 c 0
 221 630 174 578 174 511 c 0
 174 481 182 457 201 435 c 1
 408 435 l 1
 408 310 l 1
 301 310 l 1
 325 264 333 236 333 200 c 0
 333 178 328 149 320 125 c 1
 350 125 368 129 384 138 c 0
 413 155 430 186 430 220 c 0
 430 237 428 249 420 274 c 1
 552 274 l 1
 560 253 563 240 563 222 c 0
 563 157 535 95 488 54 c 0
 441 14 393 0 301 0 c 2
 41 0 l 1
EndSplineSet
EndChar

StartChar: currency
Encoding: 260 164 195
Width: 560
GlyphClass: 2
Flags: MW
HStem: 153 120<258.5 303.5> 526 120<256.5 303.5 256.5 316.5>
VStem: 33 120<375.5 425> 407 122<373.5 424.5 373.5 434>
LayerCount: 2
Fore
SplineSet
27 574 m 1
 107 654 l 1
 152 610 l 1
 194 635 233 646 280 646 c 0
 327 646 369 635 412 610 c 1
 457 653 l 1
 534 572 l 1
 492 529 l 1
 521 479 529 450 529 399 c 0
 529 348 520 317 491 271 c 1
 533 228 l 1
 456 148 l 1
 412 190 l 1
 371 166 326 153 281 153 c 0
 236 153 190 166 150 190 c 1
 106 148 l 1
 27 229 l 1
 69 272 l 1
 40 327 33 351 33 400 c 0
 33 450 40 473 69 529 c 1
 27 574 l 1
281 526 m 0
 211 526 153 469 153 401 c 0
 153 330 211 273 281 273 c 0
 351 273 407 329 407 398 c 0
 407 470 352 526 281 526 c 0
EndSplineSet
EndChar

StartChar: yen
Encoding: 261 165 196
Width: 560
GlyphClass: 2
Flags: MW
HStem: 0 21G<211 211 211 344> 187 88<15 211 15 211 344 541> 380 88<15 109 15 155 15 109 449 541> 719 20G<-32 117 117 117 438 592 592 592>
VStem: 211 133<0 187 0 187 0 275>
LayerCount: 2
Fore
SplineSet
211 0 m 1
 211 187 l 1
 15 187 l 1
 15 275 l 1
 211 275 l 1
 155 380 l 1
 15 380 l 1
 15 468 l 1
 109 468 l 1
 -32 739 l 1
 117 739 l 1
 277 398 l 1
 438 739 l 1
 592 739 l 1
 449 468 l 1
 541 468 l 1
 541 380 l 1
 401 380 l 1
 344 275 l 1
 541 275 l 1
 541 187 l 1
 344 187 l 1
 344 0 l 1
 211 0 l 1
EndSplineSet
EndChar

StartChar: brokenbar
Encoding: 262 166 197
Width: 600
GlyphClass: 2
Flags: MW
HStem: 0 21G<240 359 240 240> 719 20G<240 359 359 359>
VStem: 240 119<0 302 0 302 437 739>
LayerCount: 2
Fore
SplineSet
359 739 m 1
 359 437 l 1
 240 437 l 1
 240 739 l 1
 359 739 l 1
359 302 m 1
 359 0 l 1
 240 0 l 1
 240 302 l 1
 359 302 l 1
EndSplineSet
EndChar

StartChar: dieresis
Encoding: 263 168 198
Width: 471
GlyphClass: 2
Flags: MW
HStem: 630 133<64 197 64 197 274 407 64 274>
VStem: 64 133<630 763 630 763> 274 133<630 763 630 763>
LayerCount: 2
Fore
SplineSet
64 630 m 1
 64 763 l 1
 197 763 l 1
 197 630 l 1
 64 630 l 1
274 630 m 1
 274 763 l 1
 407 763 l 1
 407 630 l 1
 274 630 l 1
EndSplineSet
EndChar

StartChar: copyright
Encoding: 264 169 199
Width: 791
GlyphClass: 2
Flags: MW
HStem: -13 80<311 479.5 311 502> 157 93<367.5 421 367.5 451.5> 494 93<367.5 421.5> 675 77<309.5 478.5>
VStem: 10 80<286.5 453.5 286.5 476> 183 105<338.5 407.5 338.5 432.5> 701 80<286 454.5>
LayerCount: 2
Fore
SplineSet
499 320 m 1
 610 320 l 1
 586 222 502 157 401 157 c 0
 279 157 183 252 183 372 c 0
 183 493 278 587 400 587 c 0
 502 587 594 515 610 422 c 1
 499 422 l 1
 483 466 444 494 399 494 c 0
 336 494 288 442 288 373 c 0
 288 304 336 250 399 250 c 0
 443 250 477 274 499 320 c 1
400 752 m 0
 609 752 781 579 781 369 c 0
 781 158 608 -13 396 -13 c 0
 183 -13 10 158 10 369 c 0
 10 583 182 752 400 752 c 0
392 675 m 0
 227 675 90 537 90 370 c 0
 90 203 227 67 395 67 c 0
 564 67 701 203 701 369 c 0
 701 540 565 675 392 675 c 0
EndSplineSet
EndChar

StartChar: ordfeminine
Encoding: 265 170 200
Width: 382
GlyphClass: 2
Flags: MW
HStem: 310 70<33 344 33 344> 431 74<164.5 192.5> 676 74<164 196.5 136 209.5> 719 20G<274 340 340 340>
VStem: 30 76<565.5 613 565.5 636.5> 274 66<441 482 482 482 700 739 441 739>
LayerCount: 2
Fore
SplineSet
340 739 m 1xdc
 340 441 l 1
 274 441 l 1
 274 482 l 1
 249 449 213 431 172 431 c 0
 92 431 30 501 30 592 c 0
 30 681 95 750 177 750 c 0xec
 216 750 248 734 274 700 c 1
 274 739 l 1
 340 739 l 1xdc
186 676 m 0
 142 676 106 637 106 589 c 0
 106 542 142 505 187 505 c 0
 233 505 268 542 268 591 c 0
 268 640 233 676 186 676 c 0
33 310 m 1
 33 380 l 1
 344 380 l 1
 344 310 l 1
 33 310 l 1
EndSplineSet
EndChar

StartChar: guillemotleft
Encoding: 266 171 201
Width: 460
GlyphClass: 2
Flags: W
LayerCount: 2
Fore
SplineSet
397 108 m 1
 258 239 l 1
 258 339 l 1
 397 469 l 1
 397 346 l 1
 330 289 l 1
 397 231 l 1
 397 108 l 1
184 108 m 1
 45 239 l 1
 45 339 l 1
 184 469 l 1
 184 346 l 1
 117 289 l 1
 184 231 l 1
 184 108 l 1
EndSplineSet
EndChar

StartChar: logicalnot
Encoding: 267 172 202
Width: 600
GlyphClass: 2
Flags: MW
HStem: 359 114<44 434 44 548>
VStem: 434 114<182 359 359 359>
LayerCount: 2
Fore
SplineSet
44 473 m 1
 548 473 l 1
 548 182 l 1
 434 182 l 1
 434 359 l 1
 44 359 l 1
 44 473 l 1
EndSplineSet
EndChar

StartChar: registered
Encoding: 268 174 203
Width: 791
GlyphClass: 2
Flags: MW
HStem: -13 80<311 479.5 311 502> 486 93<352 382 382 390 352 352> 675 77<309.5 478.5>
VStem: 10 80<286.5 453.5 286.5 476> 251 101<166 300 372 486> 458 101<411.5 448> 701 80<286 454.5>
LayerCount: 2
Fore
SplineSet
251 166 m 1
 251 579 l 1
 382 579 l 2
 451 579 480 572 508 549 c 0
 540 524 559 481 559 437 c 0
 559 369 519 318 457 307 c 1
 569 166 l 1
 448 166 l 1
 352 300 l 1
 352 166 l 1
 251 166 l 1
352 372 m 1
 389 372 l 2
 433 372 458 393 458 430 c 0
 458 466 434 486 390 486 c 2
 352 486 l 1
 352 372 l 1
400 752 m 0
 609 752 781 579 781 369 c 0
 781 158 608 -13 396 -13 c 0
 183 -13 10 158 10 369 c 0
 10 583 182 752 400 752 c 0
392 675 m 0
 227 675 90 537 90 370 c 0
 90 203 227 67 395 67 c 0
 564 67 701 203 701 369 c 0
 701 540 565 675 392 675 c 0
EndSplineSet
EndChar

StartChar: macron
Encoding: 269 175 204
Width: 405
GlyphClass: 2
Flags: MW
HStem: 648 100<64 341 64 341>
VStem: 64 277<648 748 648 748>
LayerCount: 2
Fore
SplineSet
64 648 m 1
 64 748 l 1
 341 748 l 1
 341 648 l 1
 64 648 l 1
EndSplineSet
EndChar

StartChar: degree
Encoding: 270 176 205
Width: 400
GlyphClass: 2
Flags: MW
HStem: 380 57<174 226 174 242> 629 57<174 226>
VStem: 50 56<506.5 559 506.5 576.5> 293 57<506 560>
LayerCount: 2
Fore
SplineSet
204 686 m 0
 286 686 350 619 350 533 c 0
 350 447 284 380 200 380 c 0
 116 380 50 448 50 534 c 0
 50 619 117 686 204 686 c 0
200 629 m 0
 148 629 106 585 106 533 c 0
 106 480 148 437 200 437 c 0
 252 437 293 479 293 533 c 0
 293 587 252 629 200 629 c 0
EndSplineSet
EndChar

StartChar: plusminus
Encoding: 271 177 206
Width: 600
GlyphClass: 2
Flags: MW
HStem: 0 118<48 552 48 552> 340 118<48 240 48 240 360 552>
VStem: 240 120<175 340 175 340 458 653>
LayerCount: 2
Fore
SplineSet
240 458 m 1
 240 653 l 1
 360 653 l 1
 360 458 l 1
 552 458 l 1
 552 340 l 1
 360 340 l 1
 360 175 l 1
 240 175 l 1
 240 340 l 1
 48 340 l 1
 48 458 l 1
 240 458 l 1
552 118 m 1
 552 0 l 1
 48 0 l 1
 48 118 l 1
 552 118 l 1
EndSplineSet
EndChar

StartChar: uni00B2
Encoding: 272 178 207
Width: 336
GlyphClass: 2
Flags: MW
HStem: 296 80<143 324 143 324> 668 79<147.5 189.5>
VStem: 10 87<582 605.5> 238 88<589.5 621.5>
LayerCount: 2
Fore
SplineSet
13 296 m 1
 13 370 l 1
 183 518 l 2
 224 555 238 576 238 603 c 0
 238 640 209 668 170 668 c 0
 125 668 98 637 97 582 c 1
 10 582 l 1
 10 629 17 657 38 685 c 0
 65 724 115 747 169 747 c 0
 259 747 326 685 326 601 c 0
 326 549 296 498 237 451 c 2
 143 376 l 1
 324 376 l 1
 324 296 l 1
 13 296 l 1
EndSplineSet
EndChar

StartChar: uni00B3
Encoding: 273 179 208
Width: 336
GlyphClass: 2
Flags: MW
HStem: 288 79<147.5 190.5 147.5 215.5> 506 82<127 127 127 148> 668 78<154 179.5>
VStem: 3 88<435 435> 36 89<628 628> 210 88<615 641> 243 87<416 457.5>
LayerCount: 2
Fore
SplineSet
127 506 m 1xf2
 127 588 l 1
 188 589 210 600 210 630 c 0
 210 652 192 668 167 668 c 0
 141 668 130 657 125 628 c 1
 36 628 l 1
 40 669 48 689 71 710 c 0
 95 733 129 746 166 746 c 0
 242 746 298 695 298 625 c 0xec
 298 593 286 568 264 551 c 1
 306 531 330 491 330 439 c 0
 330 352 262 288 169 288 c 0
 75 288 8 348 3 435 c 1
 91 435 l 1
 97 392 126 367 169 367 c 0
 212 367 243 396 243 436 c 0
 243 479 206 506 148 506 c 2
 127 506 l 1xf2
EndSplineSet
EndChar

StartChar: acute
Encoding: 274 180 209
Width: 406
GlyphClass: 2
Flags: MW
HStem: 613 212<115 288>
VStem: 64 278<691 733>
LayerCount: 2
Fore
SplineSet
115 613 m 1
 64 691 l 1
 288 825 l 1
 342 733 l 1
 115 613 l 1
EndSplineSet
EndChar

StartChar: mu
Encoding: 275 181 210
Width: 601
GlyphClass: 2
Flags: MW
HStem: -185 21G<54 187 54 54> -13 122<287 325.5 287 325.5> 0 21G<424 547 424 424> 534 20G<54 187 187 187 414 547 547 547>
VStem: 54 133<-185 52 252 293 293 554> 414 133<293 554 0 554> 424 123<0 53 53 53>
LayerCount: 2
Fore
SplineSet
187 52 m 1xda
 187 -185 l 1
 54 -185 l 1
 54 554 l 1
 187 554 l 1
 187 293 l 2
 187 211 190 192 211 162 c 0
 234 128 268 109 306 109 c 0
 345 109 380 129 397 162 c 0
 409 187 414 222 414 293 c 2
 414 554 l 1
 547 554 l 1xdc
 547 0 l 1
 424 0 l 1xba
 424 53 l 1
 384 5 351 -13 300 -13 c 0
 253 -13 220 6 187 52 c 1xda
EndSplineSet
EndChar

StartChar: paragraph
Encoding: 276 182 211
Width: 600
GlyphClass: 2
Flags: MW
HStem: 632 107<342 426 342 342>
VStem: 37 305<473.5 572.5> 241 101<-128 330 330 330> 426 101<-128 632 632 632>
LayerCount: 2
Fore
SplineSet
241 -128 m 1xb0
 241 330 l 1xb0
 119 332 37 414 37 533 c 0xd0
 37 612 75 678 140 711 c 0
 177 729 234 739 309 739 c 2
 527 739 l 1
 527 -128 l 1
 426 -128 l 1
 426 632 l 1
 342 632 l 1
 342 -128 l 1
 241 -128 l 1xb0
EndSplineSet
EndChar

StartChar: periodcentered
Encoding: 277 183 212
Width: 281
GlyphClass: 2
Flags: MW
HStem: 300 133<74 207 74 207>
VStem: 74 133<300 433 300 433>
LayerCount: 2
Fore
SplineSet
74 300 m 1
 74 433 l 1
 207 433 l 1
 207 300 l 1
 74 300 l 1
EndSplineSet
EndChar

StartChar: cedilla
Encoding: 278 184 213
Width: 324
GlyphClass: 2
Flags: MW
HStem: -251 55<154.5 174 154.5 192.5> -106 55<164.5 174.5> -20 20G<109 161 161 161>
VStem: 202 58<-162.5 -138>
LayerCount: 2
Fore
SplineSet
109 0 m 1
 161 0 l 1
 140 -58 l 1
 153 -53 160 -51 169 -51 c 0
 219 -51 260 -97 260 -152 c 0
 260 -211 221 -251 164 -251 c 0
 113 -251 72 -216 64 -166 c 1
 125 -166 l 1
 134 -186 146 -196 163 -196 c 0
 185 -196 202 -175 202 -150 c 0
 202 -126 185 -106 164 -106 c 0
 149 -106 139 -113 125 -133 c 1
 73 -107 l 1
 109 0 l 1
EndSplineSet
EndChar

StartChar: uni00B9
Encoding: 279 185 214
Width: 336
GlyphClass: 2
Flags: MW
HStem: 659 80<81 140 81 228>
VStem: 81 147<659 739 296 739> 140 88<296 659 659 659>
LayerCount: 2
Fore
SplineSet
140 296 m 1xa0
 140 659 l 1xa0
 81 659 l 1
 81 739 l 1
 228 739 l 1xc0
 228 296 l 1
 140 296 l 1xa0
EndSplineSet
EndChar

StartChar: ordmasculine
Encoding: 280 186 215
Width: 367
GlyphClass: 2
Flags: MW
HStem: 311 70<30 337 30 337> 442 74<160.5 207 160.5 226.5> 680 70<160.5 204.5>
VStem: 30 73<574.5 620.5 574.5 640.5> 264 73<574.5 620.5>
LayerCount: 2
Fore
SplineSet
186 750 m 0
 269 750 337 681 337 597 c 0
 337 511 269 442 184 442 c 0
 99 442 30 512 30 598 c 0
 30 683 99 750 186 750 c 0
182 680 m 0
 139 680 103 643 103 598 c 0
 103 551 137 516 184 516 c 0
 230 516 264 551 264 598 c 0
 264 643 227 680 182 680 c 0
30 311 m 1
 30 381 l 1
 337 381 l 1
 337 311 l 1
 30 311 l 1
EndSplineSet
EndChar

StartChar: guillemotright
Encoding: 281 187 216
Width: 460
GlyphClass: 2
Flags: W
LayerCount: 2
Fore
SplineSet
63 108 m 1
 63 231 l 1
 130 289 l 1
 63 346 l 1
 63 469 l 1
 202 339 l 1
 202 239 l 1
 63 108 l 1
276 108 m 1
 276 231 l 1
 343 289 l 1
 276 346 l 1
 276 469 l 1
 415 339 l 1
 415 239 l 1
 276 108 l 1
EndSplineSet
EndChar

StartChar: onequarter
Encoding: 282 188 217
Width: 840
GlyphClass: 2
Flags: MW
HStem: 0 21G<177 177 177 272 657 657 657 745> 66 76<555 657 555 657 745 793> 659 80<51 110 51 198>
VStem: 51 147<659 739 296 739> 110 88<296 659 659 659> 657 88<0 66 0 66 142 296 296 296>
LayerCount: 2
Fore
SplineSet
177 0 m 1xe4
 483 739 l 1
 578 739 l 1
 272 0 l 1
 177 0 l 1xe4
463 133 m 1
 671 443 l 1
 745 443 l 1
 745 142 l 1
 793 142 l 1
 793 66 l 1
 745 66 l 1
 745 0 l 1
 657 0 l 1
 657 66 l 1
 463 66 l 1
 463 133 l 1
657 142 m 1
 657 296 l 1
 555 142 l 1
 657 142 l 1
110 296 m 1xec
 110 659 l 1xec
 51 659 l 1
 51 739 l 1
 198 739 l 1xf4
 198 296 l 1
 110 296 l 1xec
EndSplineSet
EndChar

StartChar: onehalf
Encoding: 283 189 218
Width: 840
GlyphClass: 2
Flags: MW
HStem: 0 80<600 781 600 781> 372 79<604.5 646.5> 659 80<47 106 47 194>
VStem: 47 147<659 739 296 739> 106 88<296 659 659 659> 467 87<286 310> 695 88<293.5 325.5>
LayerCount: 2
Fore
SplineSet
152 0 m 1xe6
 458 739 l 1
 553 739 l 1
 247 0 l 1
 152 0 l 1xe6
106 296 m 1xee
 106 659 l 1xee
 47 659 l 1
 47 739 l 1
 194 739 l 1xf6
 194 296 l 1
 106 296 l 1xee
470 0 m 1
 470 74 l 1
 640 222 l 2
 681 259 695 280 695 307 c 0
 695 344 666 372 627 372 c 0
 582 372 555 341 554 286 c 1
 467 286 l 1
 467 334 475 361 495 389 c 0
 522 428 572 451 626 451 c 0
 716 451 783 389 783 305 c 0
 783 253 753 202 694 155 c 2
 600 80 l 1
 781 80 l 1
 781 0 l 1
 470 0 l 1
EndSplineSet
EndChar

StartChar: threequarters
Encoding: 284 190 219
Width: 840
GlyphClass: 2
Flags: MW
HStem: 0 21G<252 252 252 347 702 702 702 790> 66 76<600 702 600 702 790 838> 288 79<150.5 193.5 150.5 218.5> 506 82<130 130 130 151> 668 78<157 182.5> 719 20G<558 653 653 653>
VStem: 6 88<435 435> 39 89<628 628> 213 88<615 641> 246 87<416 457.5> 702 88<0 66 0 66 142 296 296 296>
LayerCount: 2
Fore
SplineSet
252 0 m 1xf420
 558 739 l 1
 653 739 l 1
 347 0 l 1
 252 0 l 1xf420
508 133 m 1
 716 443 l 1
 790 443 l 1
 790 142 l 1
 838 142 l 1
 838 66 l 1
 790 66 l 1
 790 0 l 1
 702 0 l 1
 702 66 l 1
 508 66 l 1
 508 133 l 1
702 142 m 1
 702 296 l 1
 600 142 l 1
 702 142 l 1
130 506 m 1
 130 588 l 1
 191 589 213 600 213 630 c 0
 213 652 195 668 170 668 c 0
 144 668 133 657 128 628 c 1
 39 628 l 1
 43 669 51 689 74 710 c 0
 98 733 132 746 169 746 c 0
 245 746 301 695 301 625 c 0xf9a0
 301 593 289 568 267 551 c 1
 309 531 333 491 333 439 c 0
 333 352 265 288 172 288 c 0
 78 288 11 348 6 435 c 1
 94 435 l 1
 100 392 129 367 172 367 c 0
 215 367 246 396 246 436 c 0xfa60
 246 479 209 506 151 506 c 2
 130 506 l 1
EndSplineSet
EndChar

StartChar: questiondown
Encoding: 285 191 220
Width: 519
GlyphClass: 2
Flags: MW
HStem: -198 132<235.5 290 235.5 294.5> 426 128<202 335 202 335>
VStem: 35 133<0 42.5 0 64.5> 202 133<354 367 317.5 367 426 554> 355 133<34 34>
LayerCount: 2
Fore
SplineSet
202 367 m 1
 335 367 l 1
 335 352 l 2
 335 283 323 236 295 196 c 0
 275 166 268 159 213 112 c 0
 183 86 168 58 168 27 c 0
 168 -27 208 -66 263 -66 c 0
 317 -66 347 -33 355 34 c 1
 488 34 l 1
 482 -35 468 -77 437 -115 c 0
 394 -168 329 -198 260 -198 c 0
 131 -198 35 -100 35 31 c 0
 35 98 60 142 137 210 c 0
 191 257 202 283 202 354 c 2
 202 367 l 1
335 554 m 1
 335 426 l 1
 202 426 l 1
 202 554 l 1
 335 554 l 1
EndSplineSet
EndChar

StartChar: Agrave
Encoding: 286 192 221
Width: 740
GlyphClass: 2
Flags: MW
HStem: 0 21G<7 7 7 158 582 582 582 733> 191 131<290 448 290 503 240 448> 719 20G<315 423 423 423>
AnchorPoint: "Anchor-0" 370 1015 basechar 0
LayerCount: 2
Fore
SplineSet
7 0 m 1
 315 739 l 1
 423 739 l 1
 733 0 l 1
 582 0 l 1
 503 191 l 1
 240 191 l 1
 158 0 l 1
 7 0 l 1
290 322 m 1
 448 322 l 1
 369 546 l 1
 290 322 l 1
197 912 m 1
 254 1000 l 1
 476 867 l 1
 423 788 l 1
 197 912 l 1
EndSplineSet
EndChar

StartChar: Aacute
Encoding: 287 193 222
Width: 740
GlyphClass: 2
Flags: MW
HStem: 0 21G<7 7 7 158 582 582 582 733> 191 131<290 448 290 503 240 448> 719 20G<315 423 423 423>
AnchorPoint: "Anchor-0" 370 1015 basechar 0
LayerCount: 2
Fore
SplineSet
7 0 m 1
 315 739 l 1
 423 739 l 1
 733 0 l 1
 582 0 l 1
 503 191 l 1
 240 191 l 1
 158 0 l 1
 7 0 l 1
290 322 m 1
 448 322 l 1
 369 546 l 1
 290 322 l 1
315 788 m 1
 264 866 l 1
 488 1000 l 1
 542 908 l 1
 315 788 l 1
EndSplineSet
EndChar

StartChar: Acircumflex
Encoding: 288 194 223
Width: 740
GlyphClass: 2
Flags: MW
HStem: 0 21G<7 7 7 158 582 582 582 733> 191 131<290 448 290 503 240 448> 719 20G<315 423 423 423>
AnchorPoint: "Anchor-0" 370 1015 basechar 0
LayerCount: 2
Fore
SplineSet
7 0 m 1
 315 739 l 1
 423 739 l 1
 733 0 l 1
 582 0 l 1
 503 191 l 1
 240 191 l 1
 158 0 l 1
 7 0 l 1
290 322 m 1
 448 322 l 1
 369 546 l 1
 290 322 l 1
171 805 m 1
 318 943 l 1
 425 943 l 1
 570 805 l 1
 425 805 l 1
 372 869 l 1
 318 805 l 1
 171 805 l 1
EndSplineSet
EndChar

StartChar: Atilde
Encoding: 289 195 224
Width: 740
GlyphClass: 2
Flags: MW
HStem: 0 21G<7 7 7 158 582 582 582 733> 191 131<290 448 290 503 240 448> 719 20G<315 423 423 423> 811 102<408 459.5> 836 102<316 319 287 337.5>
AnchorPoint: "Anchor-0" 370 1015 basechar 0
LayerCount: 2
Fore
SplineSet
7 0 m 1xe0
 315 739 l 1
 423 739 l 1
 733 0 l 1
 582 0 l 1
 503 191 l 1
 240 191 l 1
 158 0 l 1
 7 0 l 1xe0
290 322 m 1
 448 322 l 1
 369 546 l 1
 290 322 l 1
259 811 m 1xf0
 205 891 l 1
 240 926 266 938 308 938 c 0xe8
 330 938 339 936 368 924 c 0
 388 916 401 913 415 913 c 0
 441 913 461 923 482 947 c 1
 536 866 l 1
 504 827 477 811 442 811 c 0xf0
 427 811 409 815 383 824 c 0
 356 834 346 836 329 836 c 0xe8
 303 836 297 834 259 811 c 1xf0
EndSplineSet
EndChar

StartChar: Adieresis
Encoding: 290 196 225
Width: 740
GlyphClass: 2
Flags: MW
HStem: 0 21G<7 7 7 158 582 582 582 733> 191 131<290 448 290 503 240 448> 719 20G<315 423 423 423> 805 133<199 332 199 332 409 542 199 409>
VStem: 199 133<805 938 805 938> 409 133<805 938 805 938>
AnchorPoint: "Anchor-0" 370 1015 basechar 0
LayerCount: 2
Fore
SplineSet
7 0 m 1
 315 739 l 1
 423 739 l 1
 733 0 l 1
 582 0 l 1
 503 191 l 1
 240 191 l 1
 158 0 l 1
 7 0 l 1
290 322 m 1
 448 322 l 1
 369 546 l 1
 290 322 l 1
199 805 m 1
 199 938 l 1
 332 938 l 1
 332 805 l 1
 199 805 l 1
409 805 m 1
 409 938 l 1
 542 938 l 1
 542 805 l 1
 409 805 l 1
EndSplineSet
EndChar

StartChar: Aring
Encoding: 291 197 226
Width: 740
GlyphClass: 2
Flags: MW
HStem: 0 21G<7 7 7 158 582 582 582 733> 191 131<290 448 290 503 240 448> 719 20G<315 423 423 423> 785 67<360 380 360 398.5> 924 67<359.5 379.5>
VStem: 267 67<878 898 878 916.5> 406 67<878 898>
AnchorPoint: "Anchor-0" 370 1015 basechar 0
LayerCount: 2
Fore
SplineSet
7 0 m 1
 315 739 l 1
 423 739 l 1
 733 0 l 1
 582 0 l 1
 503 191 l 1
 240 191 l 1
 158 0 l 1
 7 0 l 1
290 322 m 1
 448 322 l 1
 369 546 l 1
 290 322 l 1
371 991 m 0
 427 991 473 944 473 888 c 0
 473 831 427 785 370 785 c 0
 313 785 267 831 267 888 c 0
 267 945 313 991 371 991 c 0
369 924 m 0
 350 924 334 908 334 888 c 0
 334 868 350 852 370 852 c 0
 390 852 406 868 406 888 c 0
 406 908 390 924 369 924 c 0
EndSplineSet
EndChar

StartChar: AE
Encoding: 292 198 227
Width: 884
GlyphClass: 2
Flags: MW
HStem: 0 131<610 828 610 828> 191 131<358 473 358 473 279 473> 303 131<610 817 610 817> 608 131<610 828 610 610>
VStem: 473 137<131 191 191 191 434 513 513 513>
AnchorPoint: "Anchor-0" 470 805 basechar 0
LayerCount: 2
Fore
SplineSet
2 0 m 1xd8
 489 739 l 1
 828 739 l 1
 828 608 l 1
 610 608 l 1
 610 434 l 1
 817 434 l 1
 817 303 l 1
 610 303 l 1xb8
 610 131 l 1
 828 131 l 1
 828 0 l 1
 473 0 l 1
 473 191 l 1
 279 191 l 1
 167 0 l 1
 2 0 l 1xd8
358 322 m 1xd8
 473 322 l 1
 473 513 l 1
 358 322 l 1xd8
EndSplineSet
EndChar

StartChar: Ccedilla
Encoding: 293 199 228
Width: 802
GlyphClass: 2
Flags: MW
HStem: -251 55<403.5 423 403.5 441.5> -106 55<413.5 423.5> -13 132<405 405 405 419> 620 132<381 462>
VStem: 36 138<302 401 302 476.5> 451 58<-163 -138>
AnchorPoint: "Anchor-0" 420 805 basechar 0
LayerCount: 2
Fore
SplineSet
405 -13 m 1
 389 -58 l 1
 402 -53 409 -51 418 -51 c 0
 468 -51 509 -97 509 -152 c 0
 509 -211 470 -251 413 -251 c 0
 362 -251 321 -216 313 -166 c 1
 375 -166 l 1
 383 -186 395 -196 412 -196 c 0
 434 -196 451 -176 451 -150 c 0
 451 -126 434 -106 413 -106 c 0
 398 -106 388 -113 375 -133 c 1
 322 -107 l 1
 355 -7 l 1
 176 20 36 186 36 372 c 0
 36 581 207 752 416 752 c 0
 509 752 598 720 667 662 c 0
 714 622 738 589 766 527 c 1
 613 527 l 1
 563 592 505 620 419 620 c 0
 343 620 280 592 235 539 c 0
 197 495 174 431 174 371 c 0
 174 233 285 119 422 119 c 0
 493 119 544 143 605 206 c 1
 766 206 l 1
 706 69 575 -13 419 -13 c 2
 405 -13 l 1
EndSplineSet
EndChar

StartChar: Egrave
Encoding: 294 200 229
Width: 524
GlyphClass: 2
Flags: MW
HStem: 0 131<208 468 208 468> 303 131<208 457 208 457> 608 131<208 468 208 208>
VStem: 71 137<131 303 434 608>
AnchorPoint: "Anchor-0" 269 1015 basechar 0
LayerCount: 2
Fore
SplineSet
71 0 m 1
 71 739 l 1
 468 739 l 1
 468 608 l 1
 208 608 l 1
 208 434 l 1
 457 434 l 1
 457 303 l 1
 208 303 l 1
 208 131 l 1
 468 131 l 1
 468 0 l 1
 71 0 l 1
90 912 m 1
 147 1000 l 1
 369 867 l 1
 316 788 l 1
 90 912 l 1
EndSplineSet
EndChar

StartChar: Eacute
Encoding: 295 201 230
Width: 524
GlyphClass: 2
Flags: MW
HStem: 0 131<208 468 208 468> 303 131<208 457 208 457> 608 131<208 468 208 208>
VStem: 71 137<131 303 434 608>
AnchorPoint: "Anchor-0" 269 1015 basechar 0
LayerCount: 2
Fore
SplineSet
71 0 m 1
 71 739 l 1
 468 739 l 1
 468 608 l 1
 208 608 l 1
 208 434 l 1
 457 434 l 1
 457 303 l 1
 208 303 l 1
 208 131 l 1
 468 131 l 1
 468 0 l 1
 71 0 l 1
228 788 m 1
 177 866 l 1
 401 1000 l 1
 455 908 l 1
 228 788 l 1
EndSplineSet
EndChar

StartChar: Ecircumflex
Encoding: 296 202 231
Width: 524
GlyphClass: 2
Flags: MW
HStem: 0 131<208 468 208 468> 303 131<208 457 208 457> 608 131<208 468 208 208>
VStem: 71 137<131 303 434 608>
AnchorPoint: "Anchor-0" 269 1015 basechar 0
LayerCount: 2
Fore
SplineSet
71 0 m 1
 71 739 l 1
 468 739 l 1
 468 608 l 1
 208 608 l 1
 208 434 l 1
 457 434 l 1
 457 303 l 1
 208 303 l 1
 208 131 l 1
 468 131 l 1
 468 0 l 1
 71 0 l 1
67 805 m 1
 214 943 l 1
 321 943 l 1
 466 805 l 1
 321 805 l 1
 268 869 l 1
 214 805 l 1
 67 805 l 1
EndSplineSet
EndChar

StartChar: Edieresis
Encoding: 297 203 232
Width: 524
GlyphClass: 2
Flags: MW
HStem: 0 131<208 468 208 468> 303 131<208 457 208 457> 608 131<208 468 208 208> 805 133<98 231 98 231 308 441 98 308>
VStem: 71 137<131 303 434 608> 98 133<805 938 805 938> 308 133<805 938 805 938>
AnchorPoint: "Anchor-0" 269 1015 basechar 0
LayerCount: 2
Fore
SplineSet
71 0 m 1xfa
 71 739 l 1
 468 739 l 1
 468 608 l 1
 208 608 l 1
 208 434 l 1
 457 434 l 1
 457 303 l 1
 208 303 l 1
 208 131 l 1
 468 131 l 1
 468 0 l 1
 71 0 l 1xfa
98 805 m 1xf6
 98 938 l 1
 231 938 l 1
 231 805 l 1
 98 805 l 1xf6
308 805 m 1
 308 938 l 1
 441 938 l 1
 441 805 l 1
 308 805 l 1
EndSplineSet
EndChar

StartChar: Igrave
Encoding: 298 204 233
Width: 279
GlyphClass: 2
Flags: MW
HStem: 0 21G<71 71 71 208> 719 20G<71 208 208 208>
VStem: 71 137<0 739 0 739>
AnchorPoint: "Anchor-0" 139 1015 basechar 0
LayerCount: 2
Fore
SplineSet
71 0 m 1
 71 739 l 1
 208 739 l 1
 208 0 l 1
 71 0 l 1
7 912 m 1
 64 1000 l 1
 286 867 l 1
 233 788 l 1
 7 912 l 1
EndSplineSet
EndChar

StartChar: Iacute
Encoding: 299 205 234
Width: 279
GlyphClass: 2
Flags: MW
HStem: 0 21G<71 71 71 208> 719 20G<71 208 208 208>
VStem: 71 137<0 739 0 739>
AnchorPoint: "Anchor-0" 139 1015 basechar 0
LayerCount: 2
Fore
SplineSet
71 0 m 1
 71 739 l 1
 208 739 l 1
 208 0 l 1
 71 0 l 1
58 788 m 1
 7 866 l 1
 231 1000 l 1
 285 908 l 1
 58 788 l 1
EndSplineSet
EndChar

StartChar: Icircumflex
Encoding: 300 206 235
Width: 279
GlyphClass: 2
Flags: MW
HStem: 0 21G<71 71 71 208> 719 20G<71 208 208 208>
VStem: 71 137<0 739 0 739>
AnchorPoint: "Anchor-0" 139 1015 basechar 0
LayerCount: 2
Fore
SplineSet
71 0 m 1
 71 739 l 1
 208 739 l 1
 208 0 l 1
 71 0 l 1
-60 805 m 1
 87 943 l 1
 194 943 l 1
 339 805 l 1
 194 805 l 1
 141 869 l 1
 87 805 l 1
 -60 805 l 1
EndSplineSet
EndChar

StartChar: Idieresis
Encoding: 301 207 236
Width: 279
GlyphClass: 2
Flags: MW
HStem: 0 21G<71 71 71 208> 719 20G<71 208 208 208> 805 133<-32 101 -32 101 178 311 -32 178>
VStem: -32 133<805 938 805 938> 71 137<0 739 0 739> 178 133<805 938 805 938>
AnchorPoint: "Anchor-0" 139 1015 basechar 0
LayerCount: 2
Fore
SplineSet
71 0 m 1xe8
 71 739 l 1
 208 739 l 1
 208 0 l 1
 71 0 l 1xe8
-32 805 m 1xf0
 -32 938 l 1
 101 938 l 1
 101 805 l 1
 -32 805 l 1xf0
178 805 m 1xe4
 178 938 l 1
 311 938 l 1
 311 805 l 1
 178 805 l 1xe4
EndSplineSet
EndChar

StartChar: Eth
Encoding: 302 208 237
Width: 744
GlyphClass: 2
Flags: MW
HStem: 0 131<253 283 283 288> 315 107<20 116 20 116 253 407> 608 131<253 280 253 253>
VStem: 116 137<131 131 131 315 422 608> 570 138<323.5 416.5>
AnchorPoint: "Anchor-0" 360 805 basechar 0
LayerCount: 2
Fore
SplineSet
116 0 m 1
 116 315 l 1
 20 315 l 1
 20 422 l 1
 116 422 l 1
 116 739 l 1
 285 739 l 2
 406 739 495 720 555 681 c 0
 653 618 708 505 708 368 c 0
 708 215 639 93 521 38 c 0
 462 11 397 0 288 0 c 2
 116 0 l 1
253 131 m 1
 283 131 l 2
 365 131 422 141 464 164 c 0
 529 200 570 279 570 368 c 0
 570 465 525 545 452 581 c 0
 410 601 365 608 280 608 c 2
 253 608 l 1
 253 422 l 1
 407 422 l 1
 407 315 l 1
 253 315 l 1
 253 131 l 1
EndSplineSet
EndChar

StartChar: Ntilde
Encoding: 303 209 238
Width: 741
GlyphClass: 2
Flags: MW
HStem: 0 21G<71 71 71 208 517 517 517 670> 719 20G<71 227 227 227 533 670 670 670> 811 102<415 466.5> 836 102<323 326 294 344.5>
VStem: 71 137<0 537 0 739> 533 137<201 739 0 739>
AnchorPoint: "Anchor-0" 370 1015 basechar 0
LayerCount: 2
Fore
SplineSet
71 0 m 1xcc
 71 739 l 1
 227 739 l 1
 533 201 l 1
 533 739 l 1
 670 739 l 1
 670 0 l 1
 517 0 l 1
 208 537 l 1
 208 0 l 1
 71 0 l 1xcc
266 811 m 1xec
 212 891 l 1
 247 926 273 938 315 938 c 0xdc
 337 938 346 936 375 924 c 0
 395 916 408 913 422 913 c 0
 448 913 468 923 489 947 c 1
 543 866 l 1
 511 827 484 811 449 811 c 0xec
 434 811 416 815 390 824 c 0
 363 834 353 836 336 836 c 0xdc
 310 836 304 834 266 811 c 1xec
EndSplineSet
EndChar

StartChar: Ograve
Encoding: 304 210 239
Width: 842
GlyphClass: 2
Flags: MW
HStem: -13 132<354 494 354 532.5> 620 132<350.5 490>
VStem: 36 138<299.5 439.5 299.5 477> 668 138<296.5 440.5>
AnchorPoint: "Anchor-0" 421 1015 basechar 0
LayerCount: 2
Fore
SplineSet
427 752 m 0
 637 752 806 581 806 370 c 0
 806 154 640 -13 425 -13 c 0
 208 -13 36 155 36 369 c 0
 36 585 206 752 427 752 c 0
418 620 m 0
 283 620 174 509 174 370 c 0
 174 229 284 119 424 119 c 0
 564 119 668 225 668 368 c 0
 668 513 562 620 418 620 c 0
282 912 m 1
 339 1000 l 1
 561 867 l 1
 508 788 l 1
 282 912 l 1
EndSplineSet
EndChar

StartChar: Oacute
Encoding: 305 211 240
Width: 842
GlyphClass: 2
Flags: MW
HStem: -13 132<354 494 354 532.5> 620 132<350.5 490>
VStem: 36 138<299.5 439.5 299.5 477> 668 138<296.5 440.5>
AnchorPoint: "Anchor-0" 421 1015 basechar 0
LayerCount: 2
Fore
SplineSet
427 752 m 0
 637 752 806 581 806 370 c 0
 806 154 640 -13 425 -13 c 0
 208 -13 36 155 36 369 c 0
 36 585 206 752 427 752 c 0
418 620 m 0
 283 620 174 509 174 370 c 0
 174 229 284 119 424 119 c 0
 564 119 668 225 668 368 c 0
 668 513 562 620 418 620 c 0
333 788 m 1
 282 866 l 1
 506 1000 l 1
 560 908 l 1
 333 788 l 1
EndSplineSet
EndChar

StartChar: Ocircumflex
Encoding: 306 212 241
Width: 842
GlyphClass: 2
Flags: MW
HStem: -13 132<354 494 354 532.5> 620 132<350.5 490>
VStem: 36 138<299.5 439.5 299.5 477> 668 138<296.5 440.5>
AnchorPoint: "Anchor-0" 421 1015 basechar 0
LayerCount: 2
Fore
SplineSet
427 752 m 0
 637 752 806 581 806 370 c 0
 806 154 640 -13 425 -13 c 0
 208 -13 36 155 36 369 c 0
 36 585 206 752 427 752 c 0
418 620 m 0
 283 620 174 509 174 370 c 0
 174 229 284 119 424 119 c 0
 564 119 668 225 668 368 c 0
 668 513 562 620 418 620 c 0
222 805 m 1
 369 943 l 1
 476 943 l 1
 621 805 l 1
 476 805 l 1
 423 869 l 1
 369 805 l 1
 222 805 l 1
EndSplineSet
EndChar

StartChar: Otilde
Encoding: 307 213 242
Width: 842
GlyphClass: 2
Flags: MW
HStem: -13 132<354 494 354 532.5> 620 132<350.5 490> 811 102<459 510.5> 836 102<367 370 338 388.5>
VStem: 36 138<299.5 439.5 299.5 477> 668 138<296.5 440.5>
AnchorPoint: "Anchor-0" 421 1015 basechar 0
LayerCount: 2
Fore
SplineSet
427 752 m 0xcc
 637 752 806 581 806 370 c 0
 806 154 640 -13 425 -13 c 0
 208 -13 36 155 36 369 c 0
 36 585 206 752 427 752 c 0xcc
418 620 m 0
 283 620 174 509 174 370 c 0
 174 229 284 119 424 119 c 0
 564 119 668 225 668 368 c 0
 668 513 562 620 418 620 c 0
310 811 m 1xec
 256 891 l 1
 291 926 317 938 359 938 c 0xdc
 381 938 390 936 419 924 c 0
 439 916 452 913 466 913 c 0
 492 913 512 923 533 947 c 1
 587 866 l 1
 555 827 528 811 493 811 c 0xec
 478 811 460 815 434 824 c 0
 407 834 397 836 380 836 c 0xdc
 354 836 348 834 310 811 c 1xec
EndSplineSet
EndChar

StartChar: Odieresis
Encoding: 308 214 243
Width: 842
GlyphClass: 2
Flags: MW
HStem: -13 132<354 494 354 532.5> 620 132<350.5 490> 805 133<250 383 250 383 460 593 250 460>
VStem: 36 138<299.5 439.5 299.5 477> 250 133<805 938 805 938> 460 133<805 938 805 938> 668 138<296.5 440.5>
AnchorPoint: "Anchor-0" 421 1015 basechar 0
LayerCount: 2
Fore
SplineSet
427 752 m 0
 637 752 806 581 806 370 c 0
 806 154 640 -13 425 -13 c 0
 208 -13 36 155 36 369 c 0
 36 585 206 752 427 752 c 0
418 620 m 0
 283 620 174 509 174 370 c 0
 174 229 284 119 424 119 c 0
 564 119 668 225 668 368 c 0
 668 513 562 620 418 620 c 0
250 805 m 1
 250 938 l 1
 383 938 l 1
 383 805 l 1
 250 805 l 1
460 805 m 1
 460 938 l 1
 593 938 l 1
 593 805 l 1
 460 805 l 1
EndSplineSet
EndChar

StartChar: multiply
Encoding: 309 215 244
Width: 600
GlyphClass: 2
Flags: W
LayerCount: 2
Fore
SplineSet
382 366 m 1
 552 196 l 1
 470 114 l 1
 300 284 l 1
 130 114 l 1
 48 196 l 1
 218 366 l 1
 48 536 l 1
 130 618 l 1
 300 448 l 1
 470 618 l 1
 552 536 l 1
 382 366 l 1
EndSplineSet
EndChar

StartChar: Oslash
Encoding: 310 216 245
Width: 845
GlyphClass: 2
Flags: MW
HStem: -13 132<410 496 410 535> 620 132<352.5 438>
VStem: 36 138<339 440 339 476> 671 138<297 400.5>
AnchorPoint: "Anchor-0" 422 805 basechar 0
LayerCount: 2
Fore
SplineSet
744 743 m 1
 683 653 l 1
 766 578 809 479 809 370 c 0
 809 154 643 -13 427 -13 c 0
 367 -13 312 -1 259 23 c 1
 199 -65 l 1
 103 0 l 1
 162 87 l 1
 82 159 36 262 36 370 c 0
 36 582 207 752 422 752 c 0
 480 752 531 741 587 717 c 1
 649 809 l 1
 744 743 l 1
607 540 m 1
 335 135 l 1
 367 124 394 119 426 119 c 0
 566 119 671 226 671 368 c 0
 671 433 649 491 607 540 c 1
239 201 m 1
 511 605 l 1
 482 615 454 620 422 620 c 0
 283 620 174 510 174 370 c 0
 174 308 197 249 239 201 c 1
EndSplineSet
EndChar

StartChar: Ugrave
Encoding: 311 217 246
Width: 641
GlyphClass: 2
Flags: MW
HStem: -13 132<300 340.5 300 359> 719 20G<71 208 208 208 433 570 570 570>
VStem: 71 137<271 739> 433 137<271 739>
AnchorPoint: "Anchor-0" 320 1015 basechar 0
LayerCount: 2
Fore
SplineSet
71 739 m 1
 208 739 l 1
 208 271 l 2
 208 216 212 193 226 169 c 0
 245 138 280 119 320 119 c 0
 361 119 396 138 415 169 c 0
 429 193 433 216 433 271 c 2
 433 739 l 1
 570 739 l 1
 570 271 l 2
 570 182 554 126 517 78 c 0
 472 21 398 -13 320 -13 c 0
 231 -13 150 31 108 102 c 0
 82 146 71 195 71 271 c 2
 71 739 l 1
141 912 m 1
 198 1000 l 1
 420 867 l 1
 367 788 l 1
 141 912 l 1
EndSplineSet
EndChar

StartChar: Uacute
Encoding: 312 218 247
Width: 641
GlyphClass: 2
Flags: MW
HStem: -13 132<300 340.5 300 359> 719 20G<71 208 208 208 433 570 570 570>
VStem: 71 137<271 739> 433 137<271 739>
AnchorPoint: "Anchor-0" 320 1015 basechar 0
LayerCount: 2
Fore
SplineSet
71 739 m 1
 208 739 l 1
 208 271 l 2
 208 216 212 193 226 169 c 0
 245 138 280 119 320 119 c 0
 361 119 396 138 415 169 c 0
 429 193 433 216 433 271 c 2
 433 739 l 1
 570 739 l 1
 570 271 l 2
 570 182 554 126 517 78 c 0
 472 21 398 -13 320 -13 c 0
 231 -13 150 31 108 102 c 0
 82 146 71 195 71 271 c 2
 71 739 l 1
273 788 m 1
 222 866 l 1
 446 1000 l 1
 500 908 l 1
 273 788 l 1
EndSplineSet
EndChar

StartChar: Ucircumflex
Encoding: 313 219 248
Width: 641
GlyphClass: 2
Flags: MW
HStem: -13 132<300 340.5 300 359> 719 20G<71 208 208 208 433 570 570 570>
VStem: 71 137<271 739> 433 137<271 739>
AnchorPoint: "Anchor-0" 320 1015 basechar 0
LayerCount: 2
Fore
SplineSet
71 739 m 1
 208 739 l 1
 208 271 l 2
 208 216 212 193 226 169 c 0
 245 138 280 119 320 119 c 0
 361 119 396 138 415 169 c 0
 429 193 433 216 433 271 c 2
 433 739 l 1
 570 739 l 1
 570 271 l 2
 570 182 554 126 517 78 c 0
 472 21 398 -13 320 -13 c 0
 231 -13 150 31 108 102 c 0
 82 146 71 195 71 271 c 2
 71 739 l 1
121 805 m 1
 268 943 l 1
 375 943 l 1
 520 805 l 1
 375 805 l 1
 322 869 l 1
 268 805 l 1
 121 805 l 1
EndSplineSet
EndChar

StartChar: Udieresis
Encoding: 314 220 249
Width: 641
GlyphClass: 2
Flags: MW
HStem: -13 132<300 340.5 300 359> 719 20G<71 208 208 208 433 570 570 570> 805 133<149 282 149 282 359 492 149 359>
VStem: 71 137<271 739> 149 133<805 938 805 938> 359 133<805 938 805 938> 433 137<271 739>
AnchorPoint: "Anchor-0" 320 1015 basechar 0
LayerCount: 2
Fore
SplineSet
71 739 m 1xf2
 208 739 l 1
 208 271 l 2
 208 216 212 193 226 169 c 0
 245 138 280 119 320 119 c 0
 361 119 396 138 415 169 c 0
 429 193 433 216 433 271 c 2
 433 739 l 1
 570 739 l 1
 570 271 l 2
 570 182 554 126 517 78 c 0
 472 21 398 -13 320 -13 c 0
 231 -13 150 31 108 102 c 0
 82 146 71 195 71 271 c 2
 71 739 l 1xf2
149 805 m 1xe8
 149 938 l 1
 282 938 l 1
 282 805 l 1
 149 805 l 1xe8
359 805 m 1xe4
 359 938 l 1
 492 938 l 1
 492 805 l 1
 359 805 l 1xe4
EndSplineSet
EndChar

StartChar: Yacute
Encoding: 315 221 250
Width: 637
GlyphClass: 2
Flags: MW
HStem: 0 21G<250 250 250 387> 719 20G<7 155 155 155 482 630 630 630>
VStem: 250 137<0 273 0 273>
AnchorPoint: "Anchor-0" 318 1015 basechar 0
LayerCount: 2
Fore
SplineSet
250 0 m 1
 250 273 l 1
 7 739 l 1
 155 739 l 1
 319 399 l 1
 482 739 l 1
 630 739 l 1
 387 273 l 1
 387 0 l 1
 250 0 l 1
271 788 m 1
 220 866 l 1
 444 1000 l 1
 498 908 l 1
 271 788 l 1
EndSplineSet
EndChar

StartChar: Thorn
Encoding: 316 222 251
Width: 576
GlyphClass: 2
Flags: MW
HStem: 0 21G<71 71 71 208> 149 131<208 248 248 252 208 248> 477 131<208 254 208 254> 719 20G<71 208 208 208>
VStem: 71 137<0 149 280 477 608 739> 405 138<355.5 400.5>
AnchorPoint: "Anchor-0" 280 805 basechar 0
LayerCount: 2
Fore
SplineSet
71 0 m 1
 71 739 l 1
 208 739 l 1
 208 608 l 1
 254 608 l 2
 355 608 405 598 449 570 c 0
 509 531 543 463 543 380 c 0
 543 291 504 215 440 179 c 0
 400 157 353 149 252 149 c 2
 208 149 l 1
 208 0 l 1
 71 0 l 1
208 280 m 1
 248 280 l 2
 288 280 320 283 342 290 c 0
 381 301 405 334 405 377 c 0
 405 424 381 459 341 470 c 0
 320 475 299 477 254 477 c 2
 208 477 l 1
 208 280 l 1
EndSplineSet
EndChar

StartChar: germandbls
Encoding: 317 223 252
Width: 616
GlyphClass: 2
Flags: MW
HStem: -13 122<340 388.5 340 421.5> 0 21G<54 54 54 176> 315 118<258 269 258 269> 630 122<245 300>
VStem: 54 122<0 79 0 487> 54 133<189 189 189 487 487 503> 359 134<513 564.5> 453 134<177.5 225.5>
AnchorPoint: "Anchor-0" 277 805 basechar 0
LayerCount: 2
Fore
SplineSet
54 0 m 1x79
 54 487 l 2
 54 553 64 600 86 643 c 0
 122 711 193 752 275 752 c 0
 399 752 493 663 493 546 c 0x76
 493 480 470 437 418 408 c 1
 466 397 489 387 518 364 c 0
 564 327 587 278 587 216 c 0
 587 82 490 -13 353 -13 c 0xb1
 271 -13 213 17 176 79 c 1
 176 0 l 1
 54 0 l 1x79
187 189 m 1
 269 189 l 1
 278 143 317 109 363 109 c 0
 414 109 453 150 453 205 c 0xb5
 453 246 432 281 396 298 c 0
 366 312 341 315 269 315 c 2
 258 315 l 1
 258 433 l 1
 269 433 l 2
 321 433 359 477 359 536 c 0
 359 593 326 630 274 630 c 0
 216 630 187 588 187 503 c 2
 187 189 l 1
EndSplineSet
EndChar

StartChar: agrave
Encoding: 318 224 253
Width: 667
GlyphClass: 2
Flags: MW
HStem: -13 122<277.5 346> 0 21G<491 613 491 491> 445 122<275.5 350 228 370.5> 534 20G<491 613 613 613>
VStem: 28 134<223.5 322 223.5 359.5> 491 122<0 72 72 72 480 554 0 554>
AnchorPoint: "Anchor-0" 347 840 basechar 0
LayerCount: 2
Fore
SplineSet
613 554 m 1x1c
 613 0 l 1
 491 0 l 1x5c
 491 72 l 1
 438 11 385 -13 307 -13 c 0
 145 -13 28 108 28 275 c 0
 28 444 146 567 310 567 c 0xac
 390 567 445 541 491 480 c 1
 491 554 l 1
 613 554 l 1x1c
322 445 m 0xac
 229 445 162 372 162 272 c 0
 162 175 229 109 326 109 c 0
 422 109 487 176 487 275 c 0
 487 375 419 445 322 445 c 0xac
168 737 m 1
 225 825 l 1
 447 692 l 1
 394 613 l 1
 168 737 l 1
EndSplineSet
EndChar

StartChar: aacute
Encoding: 319 225 254
Width: 667
GlyphClass: 2
Flags: MW
HStem: -13 122<277.5 346> 0 21G<491 613 491 491> 445 122<275.5 350 228 370.5> 534 20G<491 613 613 613>
VStem: 28 134<223.5 322 223.5 359.5> 491 122<0 72 72 72 480 554 0 554>
AnchorPoint: "Anchor-0" 347 840 basechar 0
LayerCount: 2
Fore
SplineSet
613 554 m 1x1c
 613 0 l 1
 491 0 l 1x5c
 491 72 l 1
 438 11 385 -13 307 -13 c 0
 145 -13 28 108 28 275 c 0
 28 444 146 567 310 567 c 0xac
 390 567 445 541 491 480 c 1
 491 554 l 1
 613 554 l 1x1c
322 445 m 0xac
 229 445 162 372 162 272 c 0
 162 175 229 109 326 109 c 0
 422 109 487 176 487 275 c 0
 487 375 419 445 322 445 c 0xac
293 613 m 1
 242 691 l 1
 466 825 l 1
 520 733 l 1
 293 613 l 1
EndSplineSet
EndChar

StartChar: acircumflex
Encoding: 320 226 255
Width: 667
GlyphClass: 2
Flags: MW
HStem: -13 122<277.5 346> 0 21G<491 613 491 491> 445 122<275.5 350 228 370.5> 534 20G<491 613 613 613>
VStem: 28 134<223.5 322 223.5 359.5> 491 122<0 72 72 72 480 554 0 554>
AnchorPoint: "Anchor-0" 347 840 basechar 0
LayerCount: 2
Fore
SplineSet
613 554 m 1x1c
 613 0 l 1
 491 0 l 1x5c
 491 72 l 1
 438 11 385 -13 307 -13 c 0
 145 -13 28 108 28 275 c 0
 28 444 146 567 310 567 c 0xac
 390 567 445 541 491 480 c 1
 491 554 l 1
 613 554 l 1x1c
322 445 m 0xac
 229 445 162 372 162 272 c 0
 162 175 229 109 326 109 c 0
 422 109 487 176 487 275 c 0
 487 375 419 445 322 445 c 0xac
144 630 m 1
 291 768 l 1
 398 768 l 1
 543 630 l 1
 398 630 l 1
 345 694 l 1
 291 630 l 1
 144 630 l 1
EndSplineSet
EndChar

StartChar: atilde
Encoding: 321 227 256
Width: 667
GlyphClass: 2
Flags: MW
HStem: -13 122<277.5 346> 0 21G<491 613 491 491> 445 122<275.5 350 228 370.5> 534 20G<491 613 613 613> 636 102<381 432.5> 661 102<289 292 260 310.5>
VStem: 28 134<223.5 322 223.5 359.5> 491 122<0 72 72 72 480 554 0 554>
AnchorPoint: "Anchor-0" 347 840 basechar 0
LayerCount: 2
Fore
SplineSet
613 554 m 1x13
 613 0 l 1
 491 0 l 1x53
 491 72 l 1
 438 11 385 -13 307 -13 c 0
 145 -13 28 108 28 275 c 0
 28 444 146 567 310 567 c 0xa3
 390 567 445 541 491 480 c 1
 491 554 l 1
 613 554 l 1x13
322 445 m 0xa3
 229 445 162 372 162 272 c 0
 162 175 229 109 326 109 c 0
 422 109 487 176 487 275 c 0
 487 375 419 445 322 445 c 0xa3
232 636 m 1x0b
 178 716 l 1
 213 751 239 763 281 763 c 0x07
 303 763 312 761 341 749 c 0
 361 741 374 738 388 738 c 0
 414 738 434 748 455 772 c 1
 509 691 l 1
 477 652 450 636 415 636 c 0x0b
 400 636 382 640 356 649 c 0
 329 659 319 661 302 661 c 0x07
 276 661 270 659 232 636 c 1x0b
EndSplineSet
EndChar

StartChar: adieresis
Encoding: 322 228 257
Width: 667
GlyphClass: 2
Flags: MW
HStem: -13 122<277.5 346> 0 21G<491 613 491 491> 445 122<275.5 350 228 370.5> 534 20G<491 613 613 613> 630 133<172 305 172 305 382 515 172 382>
VStem: 28 134<223.5 322 223.5 359.5> 172 133<630 763 630 763> 382 133<630 763 630 763> 491 122<0 72 72 72 480 554 0 554>
AnchorPoint: "Anchor-0" 345 840 basechar 0
LayerCount: 2
Fore
SplineSet
613 554 m 1x1e80
 613 0 l 1
 491 0 l 1x5e80
 491 72 l 1
 438 11 385 -13 307 -13 c 0
 145 -13 28 108 28 275 c 0
 28 444 146 567 310 567 c 0xae80
 390 567 445 541 491 480 c 1
 491 554 l 1
 613 554 l 1x1e80
322 445 m 0xae
 229 445 162 372 162 272 c 0
 162 175 229 109 326 109 c 0
 422 109 487 176 487 275 c 0
 487 375 419 445 322 445 c 0xae
172 630 m 1
 172 763 l 1
 305 763 l 1
 305 630 l 1
 172 630 l 1
382 630 m 1x0f
 382 763 l 1
 515 763 l 1
 515 630 l 1
 382 630 l 1x0f
EndSplineSet
EndChar

StartChar: aring
Encoding: 323 229 258
Width: 667
GlyphClass: 2
Flags: MW
HStem: -13 122<277.5 346> 0 21G<491 613 491 491> 445 122<275.5 350 228 370.5> 534 20G<491 613 613 613> 610 67<334 354 334 372.5> 749 67<333.5 353.5>
VStem: 28 134<223.5 322 223.5 359.5> 241 67<703 723 703 741.5> 380 67<703 723> 491 122<0 72 72 72 480 554 0 554>
AnchorPoint: "Anchor-0" 345 840 basechar 0
LayerCount: 2
Fore
SplineSet
613 554 m 1x1fc0
 613 0 l 1
 491 0 l 1x5fc0
 491 72 l 1
 438 11 385 -13 307 -13 c 0
 145 -13 28 108 28 275 c 0
 28 444 146 567 310 567 c 0xafc0
 390 567 445 541 491 480 c 1
 491 554 l 1
 613 554 l 1x1fc0
322 445 m 0xafc0
 229 445 162 372 162 272 c 0
 162 175 229 109 326 109 c 0
 422 109 487 176 487 275 c 0
 487 375 419 445 322 445 c 0xafc0
345 816 m 0
 401 816 447 769 447 713 c 0
 447 656 401 610 344 610 c 0
 287 610 241 656 241 713 c 0
 241 770 287 816 345 816 c 0
343 749 m 0
 324 749 308 733 308 713 c 0
 308 693 324 677 344 677 c 0
 364 677 380 693 380 713 c 0
 380 733 364 749 343 749 c 0
EndSplineSet
EndChar

StartChar: ae
Encoding: 324 230 259
Width: 1077
GlyphClass: 2
Flags: MW
HStem: -13 122<276 356 737 793> 0 21G<483 605 483 483> 219 118<612 909 605 1040 612 612> 445 122<275 352 234.5 365 736.5 799.5> 534 20G<483 605 605 605>
VStem: 28 134<229.5 325 229.5 357.5> 483 122<0 60 0 60 499 554>
AnchorPoint: "Anchor-0" 544 630 basechar 0
LayerCount: 2
Fore
SplineSet
885 164 m 1xb6
 1030 164 l 1
 997 63 888 -13 774 -13 c 0xb6
 700 -13 649 9 605 60 c 1
 605 0 l 1
 483 0 l 1x66
 483 60 l 1
 438 6 394 -13 318 -13 c 0
 152 -13 28 110 28 275 c 0
 28 440 153 567 316 567 c 0xb6
 388 567 437 547 483 499 c 1
 483 554 l 1
 605 554 l 1x2e
 605 499 l 1
 652 547 701 567 772 567 c 0
 927 567 1049 445 1049 288 c 0
 1049 265 1047 249 1040 219 c 1
 612 219 l 1
 635 150 693 109 768 109 c 0
 818 109 853 125 885 164 c 1xb6
319 445 m 0
 231 445 162 372 162 278 c 0
 162 181 230 109 322 109 c 0
 412 109 479 181 479 276 c 0
 479 373 411 445 319 445 c 0
605 337 m 1
 909 337 l 1
 890 409 840 445 759 445 c 0
 682 445 631 410 605 337 c 1
EndSplineSet
EndChar

StartChar: ccedilla
Encoding: 325 231 260
Width: 625
GlyphClass: 2
Flags: MW
HStem: -251 55<312 332 312 351> -109 58<323.5 332> -13 122<317 350.5 277 385.5> 445 122<273.5 350>
VStem: 28 134<229.5 327 229.5 358.5> 359 58<-165.5 -140>
AnchorPoint: "Anchor-0" 320 630 basechar 0
LayerCount: 2
Fore
SplineSet
317 -13 m 1
 298 -58 l 1
 311 -52 318 -51 329 -51 c 0
 379 -51 417 -94 417 -151 c 0
 417 -212 380 -251 322 -251 c 0
 271 -251 230 -216 223 -166 c 1
 283 -166 l 1
 291 -186 303 -196 321 -196 c 0
 343 -196 359 -178 359 -153 c 0
 359 -127 343 -109 321 -109 c 0
 307 -109 296 -115 283 -133 c 1
 231 -107 l 1
 273 -9 l 1
 130 16 28 135 28 277 c 0
 28 440 156 567 320 567 c 0
 399 567 474 538 528 485 c 0
 563 451 580 423 599 369 c 1
 449 369 l 1
 422 421 380 445 320 445 c 0
 227 445 162 376 162 278 c 0
 162 181 231 109 323 109 c 0
 378 109 416 131 449 182 c 1
 599 182 l 1
 556 58 454 -13 317 -13 c 1
EndSplineSet
EndChar

StartChar: egrave
Encoding: 326 232 261
Width: 634
GlyphClass: 2
Flags: MW
HStem: -13 122<285.5 352.5 285.5 373.5> 218 117<172 475 168 601 172 172> 445 122<282.5 363>
AnchorPoint: "Anchor-0" 324 840 basechar 0
LayerCount: 2
Fore
SplineSet
601 218 m 1
 172 218 l 1
 188 151 246 109 325 109 c 0
 380 109 413 124 447 164 c 1
 592 164 l 1
 583 136 569 113 548 87 c 0
 490 19 419 -13 328 -13 c 0
 159 -13 28 113 28 275 c 0
 28 438 157 567 320 567 c 0
 485 567 606 441 606 269 c 0
 606 249 605 237 601 218 c 1
168 335 m 1
 475 335 l 1
 458 406 404 445 322 445 c 0
 243 445 189 407 168 335 c 1
141 737 m 1
 198 825 l 1
 420 692 l 1
 367 613 l 1
 141 737 l 1
EndSplineSet
EndChar

StartChar: eacute
Encoding: 327 233 262
Width: 634
GlyphClass: 2
Flags: MW
HStem: -13 122<285.5 352.5 285.5 373.5> 218 117<172 475 168 601 172 172> 445 122<282.5 363>
AnchorPoint: "Anchor-0" 324 840 basechar 0
LayerCount: 2
Fore
SplineSet
601 218 m 1
 172 218 l 1
 188 151 246 109 325 109 c 0
 380 109 413 124 447 164 c 1
 592 164 l 1
 583 136 569 113 548 87 c 0
 490 19 419 -13 328 -13 c 0
 159 -13 28 113 28 275 c 0
 28 438 157 567 320 567 c 0
 485 567 606 441 606 269 c 0
 606 249 605 237 601 218 c 1
168 335 m 1
 475 335 l 1
 458 406 404 445 322 445 c 0
 243 445 189 407 168 335 c 1
276 613 m 1
 225 691 l 1
 449 825 l 1
 503 733 l 1
 276 613 l 1
EndSplineSet
EndChar

StartChar: ecircumflex
Encoding: 328 234 263
Width: 634
GlyphClass: 2
Flags: MW
HStem: -13 122<285.5 352.5 285.5 373.5> 218 117<172 475 168 601 172 172> 445 122<282.5 363>
AnchorPoint: "Anchor-0" 324 840 basechar 0
LayerCount: 2
Fore
SplineSet
601 218 m 1
 172 218 l 1
 188 151 246 109 325 109 c 0
 380 109 413 124 447 164 c 1
 592 164 l 1
 583 136 569 113 548 87 c 0
 490 19 419 -13 328 -13 c 0
 159 -13 28 113 28 275 c 0
 28 438 157 567 320 567 c 0
 485 567 606 441 606 269 c 0
 606 249 605 237 601 218 c 1
168 335 m 1
 475 335 l 1
 458 406 404 445 322 445 c 0
 243 445 189 407 168 335 c 1
124 630 m 1
 271 768 l 1
 378 768 l 1
 523 630 l 1
 378 630 l 1
 325 694 l 1
 271 630 l 1
 124 630 l 1
EndSplineSet
EndChar

StartChar: edieresis
Encoding: 329 235 264
Width: 634
GlyphClass: 2
Flags: MW
HStem: -13 122<285.5 352.5 285.5 373.5> 218 117<172 475 168 601 172 172> 445 122<282.5 363> 630 133<153 286 153 286 363 496 153 363>
VStem: 153 133<630 763 630 763> 363 133<630 763 630 763>
AnchorPoint: "Anchor-0" 324 840 basechar 0
LayerCount: 2
Fore
SplineSet
601 218 m 1
 172 218 l 1
 188 151 246 109 325 109 c 0
 380 109 413 124 447 164 c 1
 592 164 l 1
 583 136 569 113 548 87 c 0
 490 19 419 -13 328 -13 c 0
 159 -13 28 113 28 275 c 0
 28 438 157 567 320 567 c 0
 485 567 606 441 606 269 c 0
 606 249 605 237 601 218 c 1
168 335 m 1
 475 335 l 1
 458 406 404 445 322 445 c 0
 243 445 189 407 168 335 c 1
153 630 m 1
 153 763 l 1
 286 763 l 1
 286 630 l 1
 153 630 l 1
363 630 m 1
 363 763 l 1
 496 763 l 1
 496 630 l 1
 363 630 l 1
EndSplineSet
EndChar

StartChar: igrave
Encoding: 330 236 265
Width: 241
GlyphClass: 2
Flags: MW
HStem: 0 21G<54 54 54 187> 534 20G<54 187 187 187>
VStem: 54 133<0 554 0 554>
AnchorPoint: "Anchor-0" 120 840 basechar 0
LayerCount: 2
Fore
SplineSet
54 0 m 1
 54 554 l 1
 187 554 l 1
 187 0 l 1
 54 0 l 1
-16 737 m 1
 41 825 l 1
 263 692 l 1
 210 613 l 1
 -16 737 l 1
EndSplineSet
EndChar

StartChar: iacute
Encoding: 331 237 266
Width: 241
GlyphClass: 2
Flags: MW
HStem: 0 21G<54 54 54 187> 534 20G<54 187 187 187>
VStem: 54 133<0 554 0 554>
AnchorPoint: "Anchor-0" 120 840 basechar 0
LayerCount: 2
Fore
SplineSet
54 0 m 1
 54 554 l 1
 187 554 l 1
 187 0 l 1
 54 0 l 1
35 613 m 1
 -16 691 l 1
 208 825 l 1
 262 733 l 1
 35 613 l 1
EndSplineSet
EndChar

StartChar: icircumflex
Encoding: 332 238 267
Width: 241
GlyphClass: 2
Flags: MW
HStem: 0 21G<54 54 54 187> 534 20G<54 187 187 187>
VStem: 54 133<0 554 0 554>
AnchorPoint: "Anchor-0" 120 840 basechar 0
LayerCount: 2
Fore
SplineSet
54 0 m 1
 54 554 l 1
 187 554 l 1
 187 0 l 1
 54 0 l 1
-79 630 m 1
 68 768 l 1
 175 768 l 1
 320 630 l 1
 175 630 l 1
 122 694 l 1
 68 630 l 1
 -79 630 l 1
EndSplineSet
EndChar

StartChar: idieresis
Encoding: 333 239 268
Width: 241
GlyphClass: 2
Flags: MW
HStem: 0 21G<54 54 54 187> 534 20G<54 187 187 187> 630 133<-51 82 -51 82 159 292 -51 159>
VStem: -51 133<630 763 630 763> 54 133<0 554 0 554> 159 133<630 763 630 763>
AnchorPoint: "Anchor-0" 120 840 basechar 0
LayerCount: 2
Fore
SplineSet
54 0 m 1xe8
 54 554 l 1
 187 554 l 1
 187 0 l 1
 54 0 l 1xe8
-51 630 m 1xf0
 -51 763 l 1
 82 763 l 1
 82 630 l 1
 -51 630 l 1xf0
159 630 m 1xe4
 159 763 l 1
 292 763 l 1
 292 630 l 1
 159 630 l 1xe4
EndSplineSet
EndChar

StartChar: eth
Encoding: 334 240 269
Width: 645
GlyphClass: 2
Flags: MW
HStem: -13 122<278 366.5 278 405.5> 445 111<278 303.5 278 365.5> 736 20G<270 270>
VStem: 28 134<230.5 323 230.5 329.5> 483 134<230 323.5>
AnchorPoint: "Anchor-0" 322 805 basechar 0
LayerCount: 2
Fore
SplineSet
167 721 m 1
 270 756 l 1
 276 752 281 749 286 745 c 2
 316 722 l 2
 323 719 329 714 335 709 c 1
 422 749 l 1
 463 700 l 1
 385 665 l 1
 457 603 481 579 514 538 c 0
 584 452 617 369 617 284 c 0
 617 117 488 -13 323 -13 c 0
 160 -13 28 118 28 278 c 0
 28 381 87 480 176 526 c 0
 209 543 261 556 295 556 c 0
 312 556 335 553 363 547 c 1
 353 556 344 566 335 575 c 0
 309 601 307 603 286 621 c 1
 199 581 l 1
 159 627 l 1
 237 664 l 1
 193 701 189 704 167 721 c 1
320 445 m 0
 234 445 162 369 162 277 c 0
 162 184 234 109 322 109 c 0
 411 109 483 184 483 276 c 0
 483 371 411 445 320 445 c 0
EndSplineSet
EndChar

StartChar: ntilde
Encoding: 335 241 270
Width: 598
GlyphClass: 2
Flags: MW
HStem: 0 21G<54 54 54 187 413 413 413 546> 445 122<301 324> 534 20G<54 177 177 177> 636 102<328 379.5> 661 102<236 239 207 257.5>
VStem: 54 123<501 554 501 554 501 554> 54 133<0 261 0 554> 413 133<0 271 271 297 0 309>
AnchorPoint: "Anchor-0" 300 840 basechar 0
LayerCount: 2
Fore
SplineSet
54 0 m 1xc3
 54 554 l 1
 177 554 l 1
 177 501 l 1xa5
 226 549 269 567 333 567 c 0
 412 567 474 537 510 482 c 0
 537 439 546 393 546 297 c 2
 546 0 l 1
 413 0 l 1
 413 271 l 2
 413 347 405 388 385 412 c 0
 367 434 341 445 307 445 c 0
 263 445 228 426 208 391 c 0
 192 365 187 333 187 261 c 2
 187 0 l 1
 54 0 l 1xc3
179 636 m 1x91
 125 716 l 1
 160 751 186 763 228 763 c 0x89
 250 763 259 761 288 749 c 0
 308 741 321 738 335 738 c 0
 361 738 381 748 402 772 c 1
 456 691 l 1
 424 652 397 636 362 636 c 0x91
 347 636 329 640 303 649 c 0
 276 659 266 661 249 661 c 0x89
 223 661 217 659 179 636 c 1x91
EndSplineSet
EndChar

StartChar: ograve
Encoding: 336 242 271
Width: 645
GlyphClass: 2
Flags: MW
HStem: -13 122<278 366.5 278 404> 445 122<277 365.5>
VStem: 28 134<230.5 323 230.5 357> 483 134<230 323.5>
AnchorPoint: "Anchor-0" 322 840 basechar 0
LayerCount: 2
Fore
SplineSet
325 567 m 0
 486 567 617 436 617 276 c 0
 617 117 485 -13 323 -13 c 0
 160 -13 28 117 28 276 c 0
 28 438 159 567 325 567 c 0
320 445 m 0
 234 445 162 369 162 277 c 0
 162 184 234 109 322 109 c 0
 411 109 483 184 483 276 c 0
 483 371 411 445 320 445 c 0
150 737 m 1
 207 825 l 1
 429 692 l 1
 376 613 l 1
 150 737 l 1
EndSplineSet
EndChar

StartChar: oacute
Encoding: 337 243 272
Width: 645
GlyphClass: 2
Flags: MW
HStem: -13 122<278 366.5 278 404> 445 122<277 365.5>
VStem: 28 134<230.5 323 230.5 357> 483 134<230 323.5>
AnchorPoint: "Anchor-0" 322 840 basechar 0
LayerCount: 2
Fore
SplineSet
325 567 m 0
 486 567 617 436 617 276 c 0
 617 117 485 -13 323 -13 c 0
 160 -13 28 117 28 276 c 0
 28 438 159 567 325 567 c 0
320 445 m 0
 234 445 162 369 162 277 c 0
 162 184 234 109 322 109 c 0
 411 109 483 184 483 276 c 0
 483 371 411 445 320 445 c 0
268 613 m 1
 217 691 l 1
 441 825 l 1
 495 733 l 1
 268 613 l 1
EndSplineSet
EndChar

StartChar: ocircumflex
Encoding: 338 244 273
Width: 645
GlyphClass: 2
Flags: MW
HStem: -13 122<278 366.5 278 404> 445 122<277 365.5>
VStem: 28 134<230.5 323 230.5 357> 483 134<230 323.5>
AnchorPoint: "Anchor-0" 322 840 basechar 0
LayerCount: 2
Fore
SplineSet
325 567 m 0
 486 567 617 436 617 276 c 0
 617 117 485 -13 323 -13 c 0
 160 -13 28 117 28 276 c 0
 28 438 159 567 325 567 c 0
320 445 m 0
 234 445 162 369 162 277 c 0
 162 184 234 109 322 109 c 0
 411 109 483 184 483 276 c 0
 483 371 411 445 320 445 c 0
123 630 m 1
 270 768 l 1
 377 768 l 1
 522 630 l 1
 377 630 l 1
 324 694 l 1
 270 630 l 1
 123 630 l 1
EndSplineSet
EndChar

StartChar: otilde
Encoding: 339 245 274
Width: 645
GlyphClass: 2
Flags: MW
HStem: -13 122<278 366.5 278 404> 445 122<277 365.5> 636 102<363 414.5> 661 102<271 274 242 292.5>
VStem: 28 134<230.5 323 230.5 357> 483 134<230 323.5>
AnchorPoint: "Anchor-0" 322 840 basechar 0
LayerCount: 2
Fore
SplineSet
325 567 m 0xcc
 486 567 617 436 617 276 c 0
 617 117 485 -13 323 -13 c 0
 160 -13 28 117 28 276 c 0
 28 438 159 567 325 567 c 0xcc
320 445 m 0
 234 445 162 369 162 277 c 0
 162 184 234 109 322 109 c 0
 411 109 483 184 483 276 c 0
 483 371 411 445 320 445 c 0
214 636 m 1xec
 160 716 l 1
 195 751 221 763 263 763 c 0xdc
 285 763 294 761 323 749 c 0
 343 741 356 738 370 738 c 0
 396 738 416 748 437 772 c 1
 491 691 l 1
 459 652 432 636 397 636 c 0xec
 382 636 364 640 338 649 c 0
 311 659 301 661 284 661 c 0xdc
 258 661 252 659 214 636 c 1xec
EndSplineSet
EndChar

StartChar: odieresis
Encoding: 340 246 275
Width: 645
GlyphClass: 2
Flags: MW
HStem: -13 122<278 366.5 278 404> 445 122<277 365.5> 630 133<151 284 151 284 361 494 151 361>
VStem: 28 134<230.5 323 230.5 357> 151 133<630 763 630 763> 361 133<630 763 630 763> 483 134<230 323.5>
AnchorPoint: "Anchor-0" 322 840 basechar 0
LayerCount: 2
Fore
SplineSet
325 567 m 0xf2
 486 567 617 436 617 276 c 0
 617 117 485 -13 323 -13 c 0
 160 -13 28 117 28 276 c 0
 28 438 159 567 325 567 c 0xf2
320 445 m 0
 234 445 162 369 162 277 c 0
 162 184 234 109 322 109 c 0
 411 109 483 184 483 276 c 0
 483 371 411 445 320 445 c 0
151 630 m 1xe8
 151 763 l 1
 284 763 l 1
 284 630 l 1
 151 630 l 1xe8
361 630 m 1xe4
 361 763 l 1
 494 763 l 1
 494 630 l 1
 361 630 l 1xe4
EndSplineSet
EndChar

StartChar: divide
Encoding: 341 247 276
Width: 600
GlyphClass: 2
Flags: MW
HStem: 73 131<232 367 232 367> 312 118<48 552 48 552> 538 131<232 367 232 367>
VStem: 232 135<73 204 73 204 538 669>
CounterMasks: 1 e0
LayerCount: 2
Fore
SplineSet
367 538 m 1
 232 538 l 1
 232 669 l 1
 367 669 l 1
 367 538 l 1
367 73 m 1
 232 73 l 1
 232 204 l 1
 367 204 l 1
 367 73 l 1
552 430 m 1
 552 312 l 1
 48 312 l 1
 48 430 l 1
 552 430 l 1
EndSplineSet
EndChar

StartChar: oslash
Encoding: 342 248 277
Width: 646
GlyphClass: 2
Flags: MW
HStem: -13 122<313.5 367.5 313.5 405> 445 122<278.5 330>
VStem: 28 134<261.5 324 261.5 357> 484 134<230 296>
AnchorPoint: "Anchor-0" 323 630 basechar 0
LayerCount: 2
Fore
SplineSet
57 -10 m 1
 114 74 l 1
 59 127 28 200 28 277 c 0
 28 437 160 567 324 567 c 0
 363 567 397 560 433 546 c 1
 485 623 l 1
 571 565 l 1
 521 492 l 1
 585 433 618 360 618 277 c 0
 618 117 486 -13 324 -13 c 0
 280 -13 239 -4 198 15 c 1
 142 -67 l 1
 57 -10 l 1
189 185 m 1
 361 440 l 1
 346 444 337 445 323 445 c 0
 234 445 162 370 162 278 c 0
 162 245 171 215 189 185 c 1
448 383 m 1
 269 119 l 1
 288 112 304 109 323 109 c 0
 412 109 484 184 484 276 c 0
 484 316 472 351 448 383 c 1
EndSplineSet
EndChar

StartChar: ugrave
Encoding: 343 249 278
Width: 599
GlyphClass: 2
Flags: MW
HStem: -13 122<273 296.5> 0 21G<422 545 422 422> 534 20G<52 185 185 185 412 545 545 545>
VStem: 52 133<257 283 283 554> 412 133<293 554 0 554> 422 123<0 53 53 53>
AnchorPoint: "Anchor-0" 298 840 basechar 0
LayerCount: 2
Fore
SplineSet
545 554 m 1xb8
 545 0 l 1
 422 0 l 1
 422 53 l 1x74
 371 4 330 -13 263 -13 c 0
 188 -13 127 18 91 74 c 0
 62 119 52 166 52 257 c 2
 52 554 l 1
 185 554 l 1
 185 283 l 2
 185 206 193 167 213 142 c 0
 232 120 256 109 290 109 c 0
 336 109 374 128 393 162 c 0
 407 187 412 222 412 293 c 2
 412 554 l 1
 545 554 l 1xb8
119 737 m 1
 176 825 l 1
 398 692 l 1
 345 613 l 1
 119 737 l 1
EndSplineSet
EndChar

StartChar: uacute
Encoding: 344 250 279
Width: 599
GlyphClass: 2
Flags: MW
HStem: -13 122<273 296.5> 0 21G<422 545 422 422> 534 20G<52 185 185 185 412 545 545 545>
VStem: 52 133<257 283 283 554> 412 133<293 554 0 554> 422 123<0 53 53 53>
AnchorPoint: "Anchor-0" 298 840 basechar 0
LayerCount: 2
Fore
SplineSet
545 554 m 1xb8
 545 0 l 1
 422 0 l 1
 422 53 l 1x74
 371 4 330 -13 263 -13 c 0
 188 -13 127 18 91 74 c 0
 62 119 52 166 52 257 c 2
 52 554 l 1
 185 554 l 1
 185 283 l 2
 185 206 193 167 213 142 c 0
 232 120 256 109 290 109 c 0
 336 109 374 128 393 162 c 0
 407 187 412 222 412 293 c 2
 412 554 l 1
 545 554 l 1xb8
251 613 m 1
 200 691 l 1
 424 825 l 1
 478 733 l 1
 251 613 l 1
EndSplineSet
EndChar

StartChar: ucircumflex
Encoding: 345 251 280
Width: 599
GlyphClass: 2
Flags: MW
HStem: -13 122<273 296.5> 0 21G<422 545 422 422> 534 20G<52 185 185 185 412 545 545 545>
VStem: 52 133<257 283 283 554> 412 133<293 554 0 554> 422 123<0 53 53 53>
AnchorPoint: "Anchor-0" 298 840 basechar 0
LayerCount: 2
Fore
SplineSet
545 554 m 1xb8
 545 0 l 1
 422 0 l 1
 422 53 l 1x74
 371 4 330 -13 263 -13 c 0
 188 -13 127 18 91 74 c 0
 62 119 52 166 52 257 c 2
 52 554 l 1
 185 554 l 1
 185 283 l 2
 185 206 193 167 213 142 c 0
 232 120 256 109 290 109 c 0
 336 109 374 128 393 162 c 0
 407 187 412 222 412 293 c 2
 412 554 l 1
 545 554 l 1xb8
99 630 m 1
 246 768 l 1
 353 768 l 1
 498 630 l 1
 353 630 l 1
 300 694 l 1
 246 630 l 1
 99 630 l 1
EndSplineSet
EndChar

StartChar: udieresis
Encoding: 346 252 281
Width: 599
GlyphClass: 2
Flags: MW
HStem: -13 122<273 296.5> 0 21G<422 545 422 422> 534 20G<52 185 185 185 412 545 545 545> 630 133<127 260 127 260 337 470 127 337>
VStem: 52 133<257 283 283 554> 127 133<630 763 630 763> 337 133<630 763 630 763> 412 133<293 554 0 554> 422 123<0 53 53 53>
AnchorPoint: "Anchor-0" 298 840 basechar 0
LayerCount: 2
Fore
SplineSet
545 554 m 1xb9
 545 0 l 1
 422 0 l 1
 422 53 l 1x7080
 371 4 330 -13 263 -13 c 0
 188 -13 127 18 91 74 c 0
 62 119 52 166 52 257 c 2
 52 554 l 1
 185 554 l 1
 185 283 l 2
 185 206 193 167 213 142 c 0
 232 120 256 109 290 109 c 0
 336 109 374 128 393 162 c 0
 407 187 412 222 412 293 c 2
 412 554 l 1
 545 554 l 1xb9
127 630 m 1x34
 127 763 l 1
 260 763 l 1
 260 630 l 1
 127 630 l 1x34
337 630 m 1x32
 337 763 l 1
 470 763 l 1
 470 630 l 1
 337 630 l 1x32
EndSplineSet
EndChar

StartChar: yacute
Encoding: 347 253 282
Width: 568
GlyphClass: 2
Flags: MW
HStem: -185 21G<102 102 102 245> 534 20G<3 155 155 155 412 565 565 565>
AnchorPoint: "Anchor-0" 284 840 basechar 0
LayerCount: 2
Fore
SplineSet
102 -185 m 1
 206 52 l 1
 3 554 l 1
 155 554 l 1
 278 195 l 1
 412 554 l 1
 565 554 l 1
 245 -185 l 1
 102 -185 l 1
202 613 m 1
 151 691 l 1
 375 825 l 1
 429 733 l 1
 202 613 l 1
EndSplineSet
EndChar

StartChar: thorn
Encoding: 348 254 283
Width: 662
GlyphClass: 2
Flags: MW
HStem: -185 21G<54 187 54 54> -13 122<324 386 294.5 439> 445 122<324 384.5> 719 20G<54 187 187 187>
VStem: 54 125<229 324.5 229 739> 54 133<-185 59 495 739> 500 134<229.5 325>
AnchorPoint: "Anchor-0" 328 805 basechar 0
LayerCount: 2
Fore
SplineSet
54 739 m 1xf6
 187 739 l 1
 187 495 l 1
 230 543 289 567 359 567 c 0
 519 567 634 446 634 277 c 0
 634 108 519 -13 359 -13 c 0
 289 -13 230 11 187 59 c 1
 187 -185 l 1
 54 -185 l 1
 54 739 l 1xf6
338 445 m 0
 248 445 179 372 179 277 c 0xfa
 179 181 248 109 341 109 c 0
 431 109 500 182 500 277 c 0
 500 373 431 445 338 445 c 0
EndSplineSet
EndChar

StartChar: ydieresis
Encoding: 349 255 284
Width: 568
GlyphClass: 2
Flags: MW
HStem: -185 21G<102 102 102 245> 534 20G<3 155 155 155 412 565 565 565> 630 133<113 246 113 246 323 456 113 323>
VStem: 113 133<630 763 630 763> 323 133<630 763 630 763>
AnchorPoint: "Anchor-0" 284 840 basechar 0
LayerCount: 2
Fore
SplineSet
102 -185 m 1
 206 52 l 1
 3 554 l 1
 155 554 l 1
 278 195 l 1
 412 554 l 1
 565 554 l 1
 245 -185 l 1
 102 -185 l 1
113 630 m 1
 113 763 l 1
 246 763 l 1
 246 630 l 1
 113 630 l 1
323 630 m 1
 323 763 l 1
 456 763 l 1
 456 630 l 1
 323 630 l 1
EndSplineSet
EndChar

StartChar: dotlessi
Encoding: 350 305 285
Width: 241
GlyphClass: 2
Flags: MW
HStem: 0 21G<54 54 54 187> 534 20G<54 187 187 187>
VStem: 54 133<0 554 0 554>
AnchorPoint: "Anchor-0" 120 630 basechar 0
LayerCount: 2
Fore
SplineSet
54 0 m 1
 54 554 l 1
 187 554 l 1
 187 0 l 1
 54 0 l 1
EndSplineSet
EndChar

StartChar: Lslash
Encoding: 351 321 286
Width: 484
GlyphClass: 2
Flags: MW
HStem: 0 128<250 476 250 476> 719 20G<113 250 250 250>
VStem: 113 137<128 273 273 273 474 739>
AnchorPoint: "Anchor-0" 181 805 basechar 0
LayerCount: 2
Fore
SplineSet
113 0 m 1
 113 273 l 1
 17 194 l 1
 17 318 l 1
 113 397 l 1
 113 739 l 1
 250 739 l 1
 250 474 l 1
 392 584 l 1
 392 461 l 1
 250 350 l 1
 250 128 l 1
 476 128 l 1
 476 0 l 1
 113 0 l 1
EndSplineSet
EndChar

StartChar: lslash
Encoding: 352 322 287
Width: 343
GlyphClass: 2
Flags: MW
HStem: 0 21G<109 109 109 242> 719 20G<109 242 242 242>
VStem: 109 133<0 317 317 317 482 739>
AnchorPoint: "Anchor-0" 175 805 basechar 0
LayerCount: 2
Fore
SplineSet
109 0 m 1
 109 317 l 1
 28 255 l 1
 28 354 l 1
 109 417 l 1
 109 739 l 1
 242 739 l 1
 242 482 l 1
 323 545 l 1
 323 446 l 1
 242 383 l 1
 242 0 l 1
 109 0 l 1
EndSplineSet
EndChar

StartChar: OE
Encoding: 353 338 288
Width: 1058
GlyphClass: 2
Flags: MW
HStem: -13 132<346 462.5> 0 131<784 1002 784 1002> 303 131<784 991 784 991> 608 131<784 1002 784 784> 620 132<341.5 461.5 303.5 478.5>
VStem: 36 138<295.5 437.5 295.5 478> 650 134<296 303 434 442>
AnchorPoint: "Anchor-0" 569 805 basechar 0
LayerCount: 2
Fore
SplineSet
1002 0 m 1x76
 645 0 l 1x76
 645 81 l 1
 590 20 509 -13 416 -13 c 0
 199 -13 36 151 36 368 c 0
 36 588 196 752 411 752 c 0xae
 512 752 589 721 645 657 c 1
 645 739 l 1
 1002 739 l 1
 1002 608 l 1
 784 608 l 1
 784 434 l 1
 991 434 l 1
 991 303 l 1
 784 303 l 1
 784 131 l 1
 1002 131 l 1
 1002 0 l 1x76
407 620 m 0xae
 276 620 174 509 174 366 c 0
 174 225 278 119 414 119 c 0
 551 119 650 224 650 368 c 0
 650 516 550 620 407 620 c 0xae
EndSplineSet
EndChar

StartChar: oe
Encoding: 354 339 289
Width: 1074
GlyphClass: 2
Flags: MW
HStem: -13 122<280 370 728.5 788.5> 218 117<612 908 606 1041 612 612> 445 122<276 349 237 367.5 720 790>
VStem: 28 134<230 324.5 230 358> 484 562<272.5 324.5>
AnchorPoint: "Anchor-0" 537 630 basechar 0
LayerCount: 2
Fore
SplineSet
886 163 m 1
 1028 163 l 1
 989 56 886 -13 766 -13 c 0
 672 -13 592 27 541 100 c 1
 487 23 418 -13 322 -13 c 0
 154 -13 28 111 28 277 c 0
 28 439 156 567 318 567 c 0
 380 567 441 548 485 513 c 0
 504 499 517 485 541 456 c 1
 605 534 670 567 760 567 c 0
 820 567 880 549 928 517 c 0
 1006 465 1046 386 1046 284 c 0
 1046 261 1045 245 1041 218 c 1
 612 218 l 1
 634 151 692 109 765 109 c 0
 812 109 860 131 886 163 c 1
320 445 m 0
 232 445 162 371 162 278 c 0
 162 182 233 109 327 109 c 0
 416 109 484 181 484 276 c 0
 484 373 415 445 320 445 c 0
606 335 m 1
 908 335 l 1
 887 408 837 445 758 445 c 0
 682 445 631 408 606 335 c 1
EndSplineSet
EndChar

StartChar: Scaron
Encoding: 355 352 290
Width: 524
GlyphClass: 2
Flags: MW
HStem: -13 132<231.5 291.5 231.5 328.5> 620 132<237.5 283>
VStem: 46 138<531 567 531 600.5> 362 136<182.5 225>
AnchorPoint: "Anchor-0" 261 1015 basechar 0
LayerCount: 2
Fore
SplineSet
19 211 m 1
 162 211 l 1
 168 149 201 119 262 119 c 0
 321 119 362 156 362 209 c 0
 362 241 350 267 325 286 c 0
 303 302 298 305 200 341 c 0
 100 378 46 449 46 542 c 0
 46 659 141 752 261 752 c 0
 332 752 398 721 438 668 c 0
 465 632 477 596 480 542 c 1
 338 542 l 1
 334 592 306 620 260 620 c 0
 215 620 184 589 184 545 c 0
 184 517 199 494 227 477 c 0
 236 471 239 470 307 445 c 0
 380 417 403 405 432 378 c 0
 476 338 498 286 498 224 c 0
 498 90 395 -13 262 -13 c 0
 181 -13 107 22 64 81 c 0
 35 120 23 155 19 211 c 1
62 943 m 1
 209 943 l 1
 263 879 l 1
 316 943 l 1
 461 943 l 1
 316 805 l 1
 209 805 l 1
 62 943 l 1
EndSplineSet
EndChar

StartChar: scaron
Encoding: 356 353 291
Width: 438
GlyphClass: 2
Flags: MW
HStem: -13 122<203.5 240.5 203.5 273.5> 445 122<204.5 233>
VStem: 35 133<390 411.5 390 445.5> 283 133<147.5 172>
AnchorPoint: "Anchor-0" 220 840 basechar 0
LayerCount: 2
Fore
SplineSet
15 176 m 1
 149 176 l 1
 162 129 184 109 223 109 c 0
 258 109 283 132 283 163 c 0
 283 181 274 196 258 206 c 0
 244 215 239 217 189 234 c 0
 78 271 35 317 35 398 c 0
 35 493 115 567 219 567 c 0
 276 567 330 543 365 502 c 0
 389 473 399 446 401 401 c 1
 271 401 l 1
 265 430 247 445 219 445 c 0
 190 445 168 425 168 398 c 0
 168 382 177 369 194 361 c 0
 208 355 208 355 262 338 c 0
 374 304 416 260 416 176 c 0
 416 70 329 -13 218 -13 c 0
 149 -13 85 18 50 67 c 0
 29 97 20 124 15 176 c 1
20 768 m 1
 167 768 l 1
 221 704 l 1
 274 768 l 1
 419 768 l 1
 274 630 l 1
 167 630 l 1
 20 768 l 1
EndSplineSet
EndChar

StartChar: Ydieresis
Encoding: 357 376 292
Width: 637
GlyphClass: 2
Flags: MW
HStem: 0 21G<250 250 250 387> 719 20G<7 155 155 155 482 630 630 630> 805 133<147 280 147 280 357 490 147 357>
VStem: 147 133<805 938 805 938> 250 137<0 273 0 273> 357 133<805 938 805 938>
AnchorPoint: "Anchor-0" 318 1015 basechar 0
LayerCount: 2
Fore
SplineSet
250 0 m 1xe8
 250 273 l 1
 7 739 l 1
 155 739 l 1
 319 399 l 1
 482 739 l 1
 630 739 l 1
 387 273 l 1
 387 0 l 1
 250 0 l 1xe8
147 805 m 1xf0
 147 938 l 1
 280 938 l 1
 280 805 l 1
 147 805 l 1xf0
357 805 m 1xe4
 357 938 l 1
 490 938 l 1
 490 805 l 1
 357 805 l 1xe4
EndSplineSet
EndChar

StartChar: Zcaron
Encoding: 358 381 293
Width: 522
GlyphClass: 2
Flags: MW
HStem: 0 131<195 492 195 492> 608 131<45 310 45 473>
AnchorPoint: "Anchor-0" 259 1015 basechar 0
LayerCount: 2
Fore
SplineSet
30 116 m 1
 310 608 l 1
 45 608 l 1
 45 739 l 1
 473 739 l 1
 473 616 l 1
 195 131 l 1
 492 131 l 1
 492 0 l 1
 30 0 l 1
 30 116 l 1
62 943 m 1
 209 943 l 1
 263 879 l 1
 316 943 l 1
 461 943 l 1
 316 805 l 1
 209 805 l 1
 62 943 l 1
EndSplineSet
EndChar

StartChar: zcaron
Encoding: 359 382 294
Width: 482
GlyphClass: 2
Flags: MW
HStem: 0 119<30 30 189 452> 435 119<58 274 58 433 58 433>
AnchorPoint: "Anchor-0" 246 840 basechar 0
LayerCount: 2
Fore
SplineSet
30 0 m 1
 30 119 l 1
 274 435 l 1
 58 435 l 1
 58 554 l 1
 433 554 l 1
 433 435 l 1
 189 119 l 1
 452 119 l 1
 452 0 l 1
 30 0 l 1
48 768 m 1
 195 768 l 1
 249 704 l 1
 302 768 l 1
 447 768 l 1
 302 630 l 1
 195 630 l 1
 48 768 l 1
EndSplineSet
EndChar

StartChar: florin
Encoding: 360 402 295
Width: 560
GlyphClass: 2
Flags: MW
HStem: -149 119<50.5 76.5 50.5 95> 470 115<163 238 144 257 384 457 163 364> 703 120<464.5 484 484 491 452 494>
AnchorPoint: "Anchor-0" 402 890 basechar 0
LayerCount: 2
Fore
SplineSet
384 585 m 1
 476 585 l 1
 457 470 l 1
 364 470 l 1
 302 106 l 2
 282 -11 265 -53 223 -91 c 0
 180 -130 128 -149 62 -149 c 0
 38 -149 24 -147 3 -142 c 1
 23 -26 l 1
 37 -29 45 -30 56 -30 c 0
 97 -30 129 -15 146 14 c 0
 158 33 168 69 178 128 c 2
 238 470 l 1
 144 470 l 1
 163 585 l 1
 257 585 l 1
 262 611 l 2
 279 691 289 715 320 751 c 0
 360 797 419 823 485 823 c 0
 497 823 503 822 514 820 c 1
 494 703 l 1
 484 703 l 2
 445 703 415 683 400 647 c 0
 394 633 390 618 384 585 c 1
EndSplineSet
EndChar

StartChar: uni0237
Encoding: 361 567 296
Width: 255
GlyphClass: 2
Flags: MW
HStem: -185 21G<13 38.5> 534 20G<68 201 201 201>
VStem: 68 133<40 554>
AnchorPoint: "Anchor-0" 134 630 basechar 0
LayerCount: 2
Fore
SplineSet
68 554 m 1
 201 554 l 1
 201 37 l 2
 201 -46 183 -99 142 -137 c 0
 109 -168 64 -185 13 -185 c 1
 13 -56 l 1
 63 -47 68 -38 68 40 c 2
 68 554 l 1
EndSplineSet
EndChar

StartChar: circumflex
Encoding: 362 710 297
Width: 527
GlyphClass: 2
Flags: MW
HStem: 630 138<64 318 211 318 211 463>
LayerCount: 2
Fore
SplineSet
64 630 m 1
 211 768 l 1
 318 768 l 1
 463 630 l 1
 318 630 l 1
 265 694 l 1
 211 630 l 1
 64 630 l 1
EndSplineSet
EndChar

StartChar: caron
Encoding: 363 711 298
Width: 527
GlyphClass: 2
Flags: MW
HStem: 630 138<64 318 64 211>
LayerCount: 2
Fore
SplineSet
64 768 m 1
 211 768 l 1
 265 704 l 1
 318 768 l 1
 463 768 l 1
 318 630 l 1
 211 630 l 1
 64 768 l 1
EndSplineSet
EndChar

StartChar: breve
Encoding: 364 728 299
Width: 458
GlyphClass: 2
Flags: MW
HStem: 630 96<213 247.5 213 277.5>
VStem: 64 330<769 769>
LayerCount: 2
Fore
SplineSet
64 769 m 1
 162 769 l 1
 174 740 196 726 230 726 c 0
 265 726 287 741 292 769 c 1
 394 769 l 1
 391 685 325 630 230 630 c 0
 131 630 70 681 64 769 c 1
EndSplineSet
Substitution2: "'locl' Localized Forms in Cyrillic lookup 1 subtable" breve.cyrlc
EndChar

StartChar: dotaccent
Encoding: 365 729 300
Width: 261
GlyphClass: 2
Flags: MW
HStem: 630 133<64 197 64 197>
VStem: 64 133<630 763 630 763>
LayerCount: 2
Fore
SplineSet
64 630 m 1
 64 763 l 1
 197 763 l 1
 197 630 l 1
 64 630 l 1
EndSplineSet
EndChar

StartChar: ring
Encoding: 366 730 301
Width: 334
GlyphClass: 2
Flags: MW
HStem: 610 67<157 177 157 195.5> 749 67<156.5 176.5>
VStem: 64 67<703 723 703 741.5> 203 67<703 723>
LayerCount: 2
Fore
SplineSet
168 816 m 0
 224 816 270 769 270 713 c 0
 270 656 224 610 167 610 c 0
 110 610 64 656 64 713 c 0
 64 770 110 816 168 816 c 0
166 749 m 0
 147 749 131 733 131 713 c 0
 131 693 147 677 167 677 c 0
 187 677 203 693 203 713 c 0
 203 733 187 749 166 749 c 0
EndSplineSet
EndChar

StartChar: ogonek
Encoding: 367 731 302
Width: 310
GlyphClass: 2
Flags: MW
HStem: -204 81<190.5 191> -20 20G<150 220 220 220>
VStem: 64 91<-93 -83.5>
LayerCount: 2
Fore
SplineSet
150 0 m 1
 220 0 l 1
 169 -36 155 -54 155 -81 c 0
 155 -105 176 -123 205 -123 c 0
 217 -123 227 -121 246 -113 c 1
 246 -190 l 1
 223 -200 202 -204 180 -204 c 0
 111 -204 64 -164 64 -105 c 0
 64 -62 93 -27 150 0 c 1
EndSplineSet
EndChar

StartChar: tilde
Encoding: 368 732 303
Width: 459
GlyphClass: 2
Flags: MW
HStem: 636 102<267 318.5> 661 102<175 178 146 196.5>
VStem: 64 331<691 716>
LayerCount: 2
Fore
SplineSet
118 636 m 1xa0
 64 716 l 1
 99 751 125 763 167 763 c 0x60
 189 763 198 761 227 749 c 0
 247 741 260 738 274 738 c 0
 300 738 320 748 341 772 c 1
 395 691 l 1
 363 652 336 636 301 636 c 0xa0
 286 636 268 640 242 649 c 0
 215 659 205 661 188 661 c 0x60
 162 661 156 659 118 636 c 1xa0
EndSplineSet
EndChar

StartChar: hungarumlaut
Encoding: 369 733 304
Width: 683
GlyphClass: 2
Flags: MW
HStem: 613 212<114 274 274 398>
LayerCount: 2
Fore
SplineSet
64 682 m 1
 274 825 l 1
 336 745 l 1
 114 613 l 1
 64 682 l 1
347 682 m 1
 558 825 l 1
 619 745 l 1
 398 613 l 1
 347 682 l 1
EndSplineSet
EndChar

StartChar: gravecomb
Encoding: 370 768 305
Width: 0
GlyphClass: 4
Flags: MW
HStem: 613 212<-438 -269>
VStem: -495 279<692 737>
AnchorPoint: "Anchor-1" -323 840 basemark 0
AnchorPoint: "Anchor-1" -323 630 mark 0
AnchorPoint: "Anchor-0" -323 630 mark 0
LayerCount: 2
Fore
SplineSet
-495 737 m 1
 -438 825 l 1
 -216 692 l 1
 -269 613 l 1
 -495 737 l 1
EndSplineSet
EndChar

StartChar: acutecomb
Encoding: 371 769 306
Width: 0
GlyphClass: 4
Flags: MW
HStem: 613 212<-377 -204>
VStem: -428 278<691 733>
AnchorPoint: "Anchor-1" -323 840 basemark 0
AnchorPoint: "Anchor-1" -323 630 mark 0
AnchorPoint: "Anchor-0" -323 630 mark 0
LayerCount: 2
Fore
SplineSet
-377 613 m 1
 -428 691 l 1
 -204 825 l 1
 -150 733 l 1
 -377 613 l 1
EndSplineSet
EndChar

StartChar: uni0302
Encoding: 372 770 307
Width: 0
GlyphClass: 4
Flags: MW
HStem: 630 138<-522 -268 -375 -268 -375 -123>
AnchorPoint: "Anchor-1" -323 840 basemark 0
AnchorPoint: "Anchor-1" -323 630 mark 0
AnchorPoint: "Anchor-0" -323 630 mark 0
LayerCount: 2
Fore
SplineSet
-522 630 m 1
 -375 768 l 1
 -268 768 l 1
 -123 630 l 1
 -268 630 l 1
 -321 694 l 1
 -375 630 l 1
 -522 630 l 1
EndSplineSet
EndChar

StartChar: tildecomb
Encoding: 373 771 308
Width: 0
GlyphClass: 4
Flags: MW
HStem: 636 102<-282 -230.5> 661 102<-374 -371 -403 -352.5>
VStem: -485 331<691 716>
AnchorPoint: "Anchor-1" -323 840 basemark 0
AnchorPoint: "Anchor-1" -323 630 mark 0
AnchorPoint: "Anchor-0" -323 630 mark 0
LayerCount: 2
Fore
SplineSet
-431 636 m 1xa0
 -485 716 l 1
 -450 751 -424 763 -382 763 c 0x60
 -360 763 -351 761 -322 749 c 0
 -302 741 -289 738 -275 738 c 0
 -249 738 -229 748 -208 772 c 1
 -154 691 l 1
 -186 652 -213 636 -248 636 c 0xa0
 -263 636 -281 640 -307 649 c 0
 -334 659 -344 661 -361 661 c 0x60
 -387 661 -393 659 -431 636 c 1xa0
EndSplineSet
EndChar

StartChar: uni0304
Encoding: 374 772 309
Width: 0
GlyphClass: 4
Flags: MW
HStem: 648 100<-461 -184 -461 -184>
VStem: -461 277<648 748 648 748>
AnchorPoint: "Anchor-1" -323 840 basemark 0
AnchorPoint: "Anchor-1" -323 630 mark 0
AnchorPoint: "Anchor-0" -323 630 mark 0
LayerCount: 2
Fore
SplineSet
-461 648 m 1
 -461 748 l 1
 -184 748 l 1
 -184 648 l 1
 -461 648 l 1
EndSplineSet
EndChar

StartChar: uni0306
Encoding: 375 774 310
Width: 0
GlyphClass: 4
Flags: MW
HStem: 630 96<-339 -304.5 -339 -274.5>
VStem: -488 330<769 769>
AnchorPoint: "Anchor-1" -323 840 basemark 0
AnchorPoint: "Anchor-1" -323 630 mark 0
AnchorPoint: "Anchor-0" -323 630 mark 0
LayerCount: 2
Fore
SplineSet
-488 769 m 1
 -390 769 l 1
 -378 740 -356 726 -322 726 c 0
 -287 726 -265 741 -260 769 c 1
 -158 769 l 1
 -161 685 -227 630 -322 630 c 0
 -421 630 -482 681 -488 769 c 1
EndSplineSet
Substitution2: "'locl' Localized Forms in Cyrillic lookup 1 subtable" uni0306.cyr
EndChar

StartChar: uni0307
Encoding: 376 775 311
Width: 0
GlyphClass: 4
Flags: MW
HStem: 630 133<-389 -256 -389 -256>
VStem: -389 133<630 763 630 763>
AnchorPoint: "Anchor-1" -323 840 basemark 0
AnchorPoint: "Anchor-1" -323 630 mark 0
AnchorPoint: "Anchor-0" -323 630 mark 0
LayerCount: 2
Fore
SplineSet
-389 630 m 1
 -389 763 l 1
 -256 763 l 1
 -256 630 l 1
 -389 630 l 1
EndSplineSet
EndChar

StartChar: uni0308
Encoding: 377 776 312
Width: 0
GlyphClass: 4
Flags: MW
HStem: 630 133<-494 -361 -494 -361 -284 -151 -494 -284>
VStem: -494 133<630 763 630 763> -284 133<630 763 630 763>
AnchorPoint: "Anchor-1" -323 840 basemark 0
AnchorPoint: "Anchor-1" -323 630 mark 0
AnchorPoint: "Anchor-0" -323 630 mark 0
LayerCount: 2
Fore
SplineSet
-494 630 m 1
 -494 763 l 1
 -361 763 l 1
 -361 630 l 1
 -494 630 l 1
-284 630 m 1
 -284 763 l 1
 -151 763 l 1
 -151 630 l 1
 -284 630 l 1
EndSplineSet
EndChar

StartChar: uni030A
Encoding: 378 778 313
Width: 0
GlyphClass: 4
Flags: MW
HStem: 610 67<-333 -313 -333 -294.5> 749 67<-333.5 -313.5>
VStem: -426 67<703 723 703 741.5> -287 67<703 723>
AnchorPoint: "Anchor-1" -323 840 basemark 0
AnchorPoint: "Anchor-1" -323 630 mark 0
AnchorPoint: "Anchor-0" -323 630 mark 0
LayerCount: 2
Fore
SplineSet
-322 816 m 0
 -266 816 -220 769 -220 713 c 0
 -220 656 -266 610 -323 610 c 0
 -380 610 -426 656 -426 713 c 0
 -426 770 -380 816 -322 816 c 0
-324 749 m 0
 -343 749 -359 733 -359 713 c 0
 -359 693 -343 677 -323 677 c 0
 -303 677 -287 693 -287 713 c 0
 -287 733 -303 749 -324 749 c 0
EndSplineSet
EndChar

StartChar: uni030B
Encoding: 379 779 314
Width: 0
GlyphClass: 4
Flags: MW
HStem: 613 212<-533 -373 -373 -249>
AnchorPoint: "Anchor-1" -323 840 basemark 0
AnchorPoint: "Anchor-1" -323 630 mark 0
AnchorPoint: "Anchor-0" -323 630 mark 0
LayerCount: 2
Fore
SplineSet
-583 682 m 1
 -373 825 l 1
 -311 745 l 1
 -533 613 l 1
 -583 682 l 1
-300 682 m 1
 -89 825 l 1
 -28 745 l 1
 -249 613 l 1
 -300 682 l 1
EndSplineSet
EndChar

StartChar: uni030C
Encoding: 380 780 315
Width: 0
GlyphClass: 4
Flags: MW
HStem: 630 138<-522 -268 -522 -375>
AnchorPoint: "Anchor-1" -323 840 basemark 0
AnchorPoint: "Anchor-1" -323 630 mark 0
AnchorPoint: "Anchor-0" -323 630 mark 0
LayerCount: 2
Fore
SplineSet
-522 768 m 1
 -375 768 l 1
 -321 704 l 1
 -268 768 l 1
 -123 768 l 1
 -268 630 l 1
 -375 630 l 1
 -522 768 l 1
EndSplineSet
EndChar

StartChar: uni0400
Encoding: 381 1024 316
Width: 524
GlyphClass: 2
Flags: MW
HStem: 0 131<208 468 208 468> 303 131<208 457 208 457> 608 131<208 468 208 208>
VStem: 71 137<131 303 434 608>
AnchorPoint: "Anchor-0" 269 1015 basechar 0
LayerCount: 2
Fore
SplineSet
71 0 m 1
 71 739 l 1
 468 739 l 1
 468 608 l 1
 208 608 l 1
 208 434 l 1
 457 434 l 1
 457 303 l 1
 208 303 l 1
 208 131 l 1
 468 131 l 1
 468 0 l 1
 71 0 l 1
90 912 m 1
 147 1000 l 1
 369 867 l 1
 316 788 l 1
 90 912 l 1
EndSplineSet
EndChar

StartChar: uni040D
Encoding: 382 1037 317
Width: 738
GlyphClass: 2
Flags: MW
HStem: 0 21G<71 210 71 71 531 667 531 531> 719 20G<71 207 207 207 528 667 667 667> 788 212<254 423>
VStem: 71 136<227 739 227 739 227 739> 197 279<867 912> 531 136<0 512 512 512>
AnchorPoint: "Anchor-0" 369 1015 basechar 0
LayerCount: 2
Fore
SplineSet
197 912 m 1x28
 254 1000 l 1
 476 867 l 1
 423 788 l 1
 197 912 l 1x28
528 739 m 1xd4
 667 739 l 1
 667 0 l 1
 531 0 l 1
 531 512 l 1
 210 0 l 1
 71 0 l 1
 71 739 l 1
 207 739 l 1
 207 227 l 1
 528 739 l 1xd4
EndSplineSet
EndChar

StartChar: uni0450
Encoding: 383 1104 318
Width: 634
GlyphClass: 2
Flags: MW
HStem: -13 122<285.5 352.5 285.5 373.5> 218 117<172 475 168 601 172 172> 445 122<282.5 363>
AnchorPoint: "Anchor-0" 324 840 basechar 0
LayerCount: 2
Fore
SplineSet
601 218 m 1
 172 218 l 1
 188 151 246 109 325 109 c 0
 380 109 413 124 447 164 c 1
 592 164 l 1
 583 136 569 113 548 87 c 0
 490 19 419 -13 328 -13 c 0
 159 -13 28 113 28 275 c 0
 28 438 157 567 320 567 c 0
 485 567 606 441 606 269 c 0
 606 249 605 237 601 218 c 1
168 335 m 1
 475 335 l 1
 458 406 404 445 322 445 c 0
 243 445 189 407 168 335 c 1
141 737 m 1
 198 825 l 1
 420 692 l 1
 367 613 l 1
 141 737 l 1
EndSplineSet
EndChar

StartChar: uni045D
Encoding: 384 1117 319
Width: 623
GlyphClass: 2
Flags: MW
HStem: 0 21G<54 189 54 54 437 569 437 437> 534 20G<54 186 186 186 434 569 569 569> 613 212<196 365>
VStem: 54 132<188 554 188 554 188 554> 139 279<692 737> 437 132<0 366 366 366>
AnchorPoint: "Anchor-0" 311 840 basechar 0
LayerCount: 2
Fore
SplineSet
139 737 m 1x28
 196 825 l 1
 418 692 l 1
 365 613 l 1
 139 737 l 1x28
434 554 m 1xd4
 569 554 l 1
 569 0 l 1
 437 0 l 1
 437 366 l 1
 189 0 l 1
 54 0 l 1
 54 554 l 1
 186 554 l 1
 186 188 l 1
 434 554 l 1xd4
EndSplineSet
Substitution2: "'locl' Localized Forms in Cyrillic lookup 8 subtable" uni045D.loclBGR
EndChar

StartChar: uni0462
Encoding: 385 1122 320
Width: 671
GlyphClass: 2
Flags: MW
HStem: 0 131<269 320> 309 131<269 318 269 317> 527 131<7 132 7 132 269 413> 719 20G<132 269 269 269>
VStem: 132 137<131 309 131 440 440 527 658 739> 506 138<199.5 242>
AnchorPoint: "Anchor-0" 200 805 basechar 0
LayerCount: 2
Fore
SplineSet
269 309 m 1
 269 131 l 1
 324 131 l 2
 378 131 403 133 429 138 c 0
 477 149 506 177 506 222 c 0
 506 262 477 288 430 299 c 0
 403 306 365 309 317 309 c 2
 269 309 l 1
132 739 m 1
 269 739 l 1
 269 658 l 1
 413 658 l 1
 413 527 l 1
 269 527 l 1
 269 440 l 1
 318 440 l 2
 431 440 484 433 529 411 c 0
 601 376 644 305 644 219 c 0
 644 137 606 75 539 37 c 0
 490 9 433 0 320 0 c 2
 132 0 l 1
 132 527 l 1
 7 527 l 1
 7 658 l 1
 132 658 l 1
 132 739 l 1
EndSplineSet
EndChar

StartChar: uni0463
Encoding: 386 1123 321
Width: 592
GlyphClass: 2
Flags: MW
HStem: 0 121<267 369 369 378> 236 121<267 378 267 369> 453 121<18 134 18 134 267 393> 719 20G<134 267 267 267>
VStem: 134 133<121 236 357 453 574 739> 436 134<161.5 196.5>
AnchorPoint: "Anchor-0" 200 805 basechar 0
LayerCount: 2
Fore
SplineSet
378 357 m 2
 493 357 570 277 570 179 c 0
 570 81 493 0 378 0 c 2
 134 0 l 1
 134 453 l 1
 18 453 l 1
 18 574 l 1
 134 574 l 1
 134 739 l 1
 267 739 l 1
 267 574 l 1
 393 574 l 1
 393 453 l 1
 267 453 l 1
 267 357 l 1
 378 357 l 2
267 236 m 1
 267 121 l 1
 369 121 l 2
 409 121 436 144 436 179 c 0
 436 214 409 236 369 236 c 2
 267 236 l 1
EndSplineSet
EndChar

StartChar: uni0490
Encoding: 387 1168 322
Width: 467
GlyphClass: 2
Flags: MW
HStem: 0 21G<71 208 71 71> 608 131<208 339 71 460 208 208>
VStem: 71 137<0 608 0 739 0 739>
AnchorPoint: "Anchor-0" 265 900 basechar 0
LayerCount: 2
Fore
SplineSet
371 855 m 1
 460 855 l 1
 460 608 l 1
 208 608 l 1
 208 0 l 1
 71 0 l 1
 71 739 l 1
 339 739 l 1
 371 855 l 1
EndSplineSet
EndChar

StartChar: uni0491
Encoding: 388 1169 323
Width: 386
GlyphClass: 2
Flags: MW
HStem: 0 21G<54 187 54 54> 433 121<187 256 54 368 187 187>
VStem: 54 133<0 433 0 554 0 554>
AnchorPoint: "Anchor-0" 211 725 basechar 0
LayerCount: 2
Fore
SplineSet
287 669 m 1
 368 669 l 1
 368 433 l 1
 187 433 l 1
 187 0 l 1
 54 0 l 1
 54 554 l 1
 256 554 l 1
 287 669 l 1
EndSplineSet
EndChar

StartChar: uni2010
Encoding: 403 8208 338
Width: 337
GlyphClass: 2
Flags: MW
HStem: 229 118<30 307 30 307>
VStem: 30 277<229 347 229 347>
LayerCount: 2
Fore
SplineSet
30 229 m 1
 30 347 l 1
 307 347 l 1
 307 229 l 1
 30 229 l 1
EndSplineSet
EndChar

StartChar: uni2011
Encoding: 404 8209 339
Width: 337
GlyphClass: 2
Flags: MW
HStem: 229 118<30 307 30 307>
VStem: 30 277<229 347 229 347>
LayerCount: 2
Fore
SplineSet
30 229 m 1
 30 347 l 1
 307 347 l 1
 307 229 l 1
 30 229 l 1
EndSplineSet
EndChar

StartChar: figuredash
Encoding: 405 8210 340
Width: 560
GlyphClass: 2
Flags: MW
HStem: 229 118<30 530 30 530>
LayerCount: 2
Fore
SplineSet
30 229 m 1
 30 347 l 1
 530 347 l 1
 530 229 l 1
 30 229 l 1
EndSplineSet
EndChar

StartChar: endash
Encoding: 406 8211 341
Width: 500
GlyphClass: 2
Flags: MW
HStem: 229 118<0 500 0 500>
LayerCount: 2
Fore
SplineSet
0 229 m 1
 0 347 l 1
 500 347 l 1
 500 229 l 1
 0 229 l 1
EndSplineSet
EndChar

StartChar: emdash
Encoding: 407 8212 342
Width: 1000
GlyphClass: 2
Flags: MW
HStem: 229 118<0 1000 0 1000>
LayerCount: 2
Fore
SplineSet
0 229 m 1
 0 347 l 1
 1000 347 l 1
 1000 229 l 1
 0 229 l 1
EndSplineSet
EndChar

StartChar: uni2015
Encoding: 408 8213 343
Width: 1000
GlyphClass: 2
Flags: MW
HStem: 229 118<0 1000 0 1000>
LayerCount: 2
Fore
SplineSet
0 229 m 1
 0 347 l 1
 1000 347 l 1
 1000 229 l 1
 0 229 l 1
EndSplineSet
EndChar

StartChar: quoteleft
Encoding: 409 8216 344
Width: 293
GlyphClass: 2
Flags: MW
HStem: 672 67<195 213>
VStem: 80 74<466 632 614 630> 80 133<466 599 466 606 466 630>
LayerCount: 2
Fore
SplineSet
213 599 m 1xa0
 213 466 l 1
 80 466 l 1xa0
 80 606 l 2xc0
 80 654 92 683 123 709 c 0
 147 729 177 739 213 739 c 1
 213 672 l 1xa0
 171 664 154 648 154 616 c 0xc0
 154 612 154 605 155 599 c 1
 213 599 l 1xa0
EndSplineSet
EndChar

StartChar: quoteright
Encoding: 410 8217 345
Width: 293
GlyphClass: 2
Flags: MW
HStem: 466 67<80 94.5> 611 128<80 213 80 138>
VStem: 80 133<466 599 533 599 611 739> 139 74<575 594.5>
LayerCount: 2
Fore
SplineSet
80 611 m 1xe0
 80 739 l 1
 213 739 l 1xe0
 213 599 l 2xd0
 213 541 192 504 147 480 c 0
 125 469 109 466 80 466 c 1
 80 533 l 1xe0
 122 541 139 558 139 592 c 0xd0
 139 597 139 604 138 611 c 1
 80 611 l 1xe0
EndSplineSet
EndChar

StartChar: quotesinglbase
Encoding: 411 8218 346
Width: 293
GlyphClass: 2
Flags: MW
HStem: -140 67<80 94.5> 0 128<80 213 80 138>
VStem: 80 133<-140 -7 -73 -7 0 128> 139 74<-33.5 -15.5>
LayerCount: 2
Fore
SplineSet
80 0 m 1xe0
 80 128 l 1
 213 128 l 1xe0
 213 -7 l 2xd0
 213 -65 192 -102 147 -126 c 0
 125 -137 109 -140 80 -140 c 1
 80 -73 l 1xe0
 122 -65 139 -49 139 -18 c 0xd0
 139 -13 139 -7 138 0 c 1
 80 0 l 1xe0
EndSplineSet
EndChar

StartChar: quotedblleft
Encoding: 412 8220 347
Width: 500
GlyphClass: 2
Flags: MW
HStem: 466 133<155 213 155 213 80 213 155 287 362 420> 672 67<195 213>
VStem: 80 74<466 632.5 614 630> 80 133<466 599 466 606 466 630> 287 74<466 632.5 614.5 630> 287 133<466 599 466 606 466 630>
LayerCount: 2
Fore
SplineSet
213 599 m 1xd0
 213 466 l 1
 80 466 l 1xd0
 80 606 l 2xe0
 80 654 92 683 123 709 c 0
 147 729 177 739 213 739 c 1
 213 672 l 1xd0
 170 664 154 649 154 616 c 0xe0
 154 612 154 605 155 599 c 1
 213 599 l 1xd0
420 599 m 1xc4
 420 466 l 1
 287 466 l 1xc4
 287 606 l 2xc8
 287 654 299 683 330 709 c 0
 354 729 384 739 420 739 c 1
 420 672 l 1xc4
 378 664 361 648 361 617 c 0xc8
 361 612 361 606 362 599 c 1
 420 599 l 1xc4
EndSplineSet
EndChar

StartChar: quotedblright
Encoding: 413 8221 348
Width: 500
GlyphClass: 2
Flags: MW
HStem: 466 67<80 94.5> 611 128<80 213 80 138 287 345 80 287>
VStem: 80 133<466 599 533 599 611 739> 139 74<575 594.5> 287 133<466 599 533 599 611 739> 346 74<575 594.5>
LayerCount: 2
Fore
SplineSet
80 611 m 1xe0
 80 739 l 1
 213 739 l 1xe0
 213 599 l 2xd0
 213 541 192 504 147 480 c 0
 125 469 109 466 80 466 c 1
 80 533 l 1xe0
 121 541 139 558 139 592 c 0xd0
 139 597 139 604 138 611 c 1
 80 611 l 1xe0
287 611 m 1xc8
 287 739 l 1
 420 739 l 1xc8
 420 599 l 2xc4
 420 541 399 504 354 480 c 0
 331 469 316 466 287 466 c 1
 287 533 l 1xc8
 329 541 346 558 346 592 c 0xc4
 346 597 346 604 345 611 c 1
 287 611 l 1xc8
EndSplineSet
EndChar

StartChar: quotedblbase
Encoding: 414 8222 349
Width: 500
GlyphClass: 2
Flags: MW
HStem: -140 67<80 94.5> 0 128<80 213 80 138 287 345 80 287>
VStem: 80 133<-140 -7 -73 -7 0 128> 139 74<-33.5 -15.5> 287 133<-140 -7 -73 -7 0 128> 346 74<-33.5 -15.5>
LayerCount: 2
Fore
SplineSet
80 0 m 1xe0
 80 128 l 1
 213 128 l 1xe0
 213 -7 l 2xd0
 213 -65 192 -102 147 -126 c 0
 125 -137 109 -140 80 -140 c 1
 80 -73 l 1xe0
 122 -65 139 -49 139 -18 c 0xd0
 139 -13 139 -7 138 0 c 1
 80 0 l 1xe0
287 0 m 1xc8
 287 128 l 1
 420 128 l 1xc8
 420 -7 l 2xc4
 420 -65 399 -102 354 -126 c 0
 332 -137 316 -140 287 -140 c 1
 287 -73 l 1xc8
 329 -65 346 -49 346 -18 c 0xc4
 346 -13 346 -7 345 0 c 1
 287 0 l 1xc8
EndSplineSet
EndChar

StartChar: dagger
Encoding: 415 8224 350
Width: 557
GlyphClass: 2
Flags: MW
HStem: 436 118<50 213 50 213 346 507> 719 20G<213 346 346 346>
VStem: 213 133<-128 436 -128 436 554 739>
LayerCount: 2
Fore
SplineSet
346 739 m 1
 346 554 l 1
 507 554 l 1
 507 436 l 1
 346 436 l 1
 346 -128 l 1
 213 -128 l 1
 213 436 l 1
 50 436 l 1
 50 554 l 1
 213 554 l 1
 213 739 l 1
 346 739 l 1
EndSplineSet
EndChar

StartChar: daggerdbl
Encoding: 416 8225 351
Width: 557
GlyphClass: 2
Flags: MW
HStem: 260 118<50 212 50 212 345 507> 473 118<50 212 50 212 345 507> 719 20G<212 345 345 345>
VStem: 212 133<-128 260 -128 260 378 473 591 739>
LayerCount: 2
Fore
SplineSet
345 739 m 1
 345 591 l 1
 507 591 l 1
 507 473 l 1
 345 473 l 1
 345 378 l 1
 507 378 l 1
 507 260 l 1
 345 260 l 1
 345 -128 l 1
 212 -128 l 1
 212 260 l 1
 50 260 l 1
 50 378 l 1
 212 378 l 1
 212 473 l 1
 50 473 l 1
 50 591 l 1
 212 591 l 1
 212 739 l 1
 345 739 l 1
EndSplineSet
EndChar

StartChar: bullet
Encoding: 417 8226 352
Width: 600
GlyphClass: 2
Flags: MW
HStem: 147 337<254 345.5>
VStem: 131 337<269 362>
LayerCount: 2
Fore
SplineSet
302 484 m 0
 393 484 468 408 468 316 c 0
 468 222 392 147 299 147 c 0
 207 147 131 223 131 315 c 0
 131 409 206 484 302 484 c 0
EndSplineSet
EndChar

StartChar: ellipsis
Encoding: 418 8230 353
Width: 1000
GlyphClass: 2
Flags: MW
HStem: 0 128<100 233 100 233 433 566 766 899>
VStem: 100 133<0 128 0 128> 433 133<0 128 0 128> 766 133<0 128 0 128>
CounterMasks: 1 70
LayerCount: 2
Fore
SplineSet
100 0 m 1
 100 128 l 1
 233 128 l 1
 233 0 l 1
 100 0 l 1
433 0 m 1
 433 128 l 1
 566 128 l 1
 566 0 l 1
 433 0 l 1
766 0 m 1
 766 128 l 1
 899 128 l 1
 899 0 l 1
 766 0 l 1
EndSplineSet
EndChar

StartChar: perthousand
Encoding: 419 8240 354
Width: 1273
GlyphClass: 2
Flags: MW
HStem: -13 107<636 676.5 636 706 1049 1089.5> 0 21G<225 327 225 225> 242 106<635 676 1048 1089> 391 107<184 224.5 184 254> 646 106<183 224> 719 20G<530 633 633 633>
VStem: 23 108<551.5 592.5 551.5 622> 278 107<551.5 592.5> 475 108<147.5 188.5 147.5 218> 730 107<147.5 188.5> 888 108<147.5 188.5 147.5 218> 1143 107<147.5 188.5>
LayerCount: 2
Fore
SplineSet
530 739 m 1x77f0
 633 739 l 1
 327 0 l 1
 225 0 l 1
 530 739 l 1x77f0
1070 348 m 0
 1168 348 1250 266 1250 168 c 0
 1250 68 1169 -13 1069 -13 c 0xb3f0
 969 -13 888 68 888 167 c 0
 888 269 968 348 1070 348 c 0
1068 242 m 0
 1028 242 996 209 996 168 c 0
 996 127 1029 94 1069 94 c 0
 1110 94 1143 127 1143 168 c 0
 1143 209 1110 242 1068 242 c 0
657 348 m 0
 755 348 837 266 837 168 c 0
 837 68 756 -13 656 -13 c 0
 556 -13 475 68 475 167 c 0
 475 269 555 348 657 348 c 0
655 242 m 0
 615 242 583 209 583 168 c 0
 583 127 616 94 656 94 c 0
 697 94 730 127 730 168 c 0
 730 209 697 242 655 242 c 0
205 752 m 0x3bf0
 303 752 385 670 385 572 c 0
 385 472 304 391 204 391 c 0
 104 391 23 472 23 571 c 0
 23 673 103 752 205 752 c 0x3bf0
203 646 m 0
 163 646 131 613 131 572 c 0
 131 531 164 498 204 498 c 0
 245 498 278 531 278 572 c 0
 278 613 245 646 203 646 c 0
EndSplineSet
EndChar

StartChar: guilsinglleft
Encoding: 420 8249 355
Width: 247
GlyphClass: 2
Flags: MW
VStem: 45 139<108 339>
LayerCount: 2
Fore
SplineSet
184 108 m 1
 45 239 l 1
 45 339 l 1
 184 469 l 1
 184 346 l 1
 117 289 l 1
 184 231 l 1
 184 108 l 1
EndSplineSet
EndChar

StartChar: guilsinglright
Encoding: 421 8250 356
Width: 247
GlyphClass: 2
Flags: MW
VStem: 63 139<108 339 231 339 239 469 239 469>
LayerCount: 2
Fore
SplineSet
63 108 m 1
 63 231 l 1
 130 289 l 1
 63 346 l 1
 63 469 l 1
 202 339 l 1
 202 239 l 1
 63 108 l 1
EndSplineSet
EndChar

StartChar: fraction
Encoding: 422 8260 357
Width: 160
GlyphClass: 2
Flags: MW
HStem: 0 21G<-121 -121 -121 -26> 719 20G<185 280 280 280>
LayerCount: 2
Fore
SplineSet
-121 0 m 1
 185 739 l 1
 280 739 l 1
 -26 0 l 1
 -121 0 l 1
EndSplineSet
EndChar

StartChar: Euro
Encoding: 423 8364 358
Width: 761
GlyphClass: 2
Flags: MW
HStem: -13 132<478.5 550.5> 206 123<60 133 60 168 17 133 329 329 329 593> 381 123<62 131 19 156 62 269 308 655> 620 132<472.5 554>
VStem: 131 138<369 381 362 381>
LayerCount: 2
Fore
SplineSet
706 37 m 1
 650 5 585 -13 516 -13 c 0
 362 -13 230 77 168 206 c 1
 17 206 l 1
 60 329 l 1
 133 329 l 1
 132 342 131 355 131 369 c 2
 131 381 l 1
 19 381 l 1
 62 504 l 1
 156 504 l 1
 211 649 351 752 516 752 c 0
 606 752 689 721 755 669 c 1
 706 529 l 1
 661 585 592 620 516 620 c 0
 429 620 352 574 308 504 c 1
 698 504 l 1
 655 381 l 1
 269 381 l 1
 269 369 l 2
 269 355 270 342 272 329 c 1
 636 329 l 1
 593 206 l 1
 329 206 l 1
 374 153 441 119 516 119 c 0
 592 119 661 154 706 209 c 1
 706 37 l 1
EndSplineSet
EndChar

StartChar: uni20BD
Encoding: 424 8381 359
Width: 560
GlyphClass: 2
Flags: MW
HStem: 0 21G<84 221 84 84> 124 131<24 84 24 84 221 413> 293 131<24 84 24 84 221 257 257 262> 608 131<221 262 221 221>
VStem: 84 137<0 124 0 124 255 293 424 608> 398 138<494 536.5>
LayerCount: 2
Fore
SplineSet
221 424 m 1
 257 424 l 2
 293 424 322 426 342 433 c 0
 377 444 398 474 398 514 c 0
 398 559 377 591 341 602 c 0
 322 607 302 608 262 608 c 2
 221 608 l 1
 221 424 l 1
24 293 m 1
 24 424 l 1
 84 424 l 1
 84 739 l 1
 264 739 l 2
 359 739 407 729 448 702 c 0
 504 664 536 598 536 517 c 0
 536 431 499 357 439 322 c 0
 401 301 357 293 262 293 c 2
 221 293 l 1
 221 255 l 1
 413 255 l 1
 413 124 l 1
 221 124 l 1
 221 0 l 1
 84 0 l 1
 84 124 l 1
 24 124 l 1
 24 255 l 1
 84 255 l 1
 84 293 l 1
 24 293 l 1
EndSplineSet
EndChar

StartChar: trademark
Encoding: 425 8482 360
Width: 958
GlyphClass: 2
Flags: MW
HStem: 664 75<50 186 50 403 267 403 267 267>
VStem: 186 81<345 664 345 664> 433 81<345 631 345 739> 827 81<345 632 632 632>
LayerCount: 2
Fore
SplineSet
908 739 m 1
 908 345 l 1
 827 345 l 1
 827 632 l 1
 695 345 l 1
 642 345 l 1
 514 631 l 1
 514 345 l 1
 433 345 l 1
 433 739 l 1
 554 739 l 1
 668 482 l 1
 790 739 l 1
 908 739 l 1
403 739 m 1
 403 664 l 1
 267 664 l 1
 267 345 l 1
 186 345 l 1
 186 664 l 1
 50 664 l 1
 50 739 l 1
 403 739 l 1
EndSplineSet
EndChar

StartChar: minus
Encoding: 426 8722 361
Width: 600
GlyphClass: 2
Flags: MW
HStem: 312 118<48 552 48 552>
LayerCount: 2
Fore
SplineSet
552 430 m 1
 552 312 l 1
 48 312 l 1
 48 430 l 1
 552 430 l 1
EndSplineSet
EndChar

StartChar: zero.fitted
Encoding: 427 57344 362
Width: 567
GlyphClass: 2
Flags: MW
HStem: -13 122<248 323.5 248 366> 630 122<249 321>
VStem: 36 133<247 251 251 498> 398 133<248 498 498 505>
AnchorPoint: "Anchor-0" 283 805 basechar 0
LayerCount: 2
Fore
SplineSet
531 505 m 2
 531 247 l 2
 531 83 442 -13 290 -13 c 0
 200 -13 129 20 83 81 c 0
 50 126 36 176 36 247 c 2
 36 498 l 2
 36 654 132 752 284 752 c 0
 434 752 531 655 531 505 c 2
169 498 m 2
 169 251 l 2
 169 159 210 109 286 109 c 0
 361 109 398 155 398 248 c 2
 398 498 l 2
 398 583 357 630 285 630 c 0
 213 630 169 580 169 498 c 2
EndSplineSet
Substitution2: "'tnum' Tabular Numbers lookup 5 subtable" zero
EndChar

StartChar: one.fitted
Encoding: 428 57345 363
Width: 346
GlyphClass: 2
Flags: MW
HStem: 0 21G<129 129 129 262> 614 125<36 129 36 262>
VStem: 129 133<0 614 614 614>
AnchorPoint: "Anchor-0" 171 805 basechar 0
LayerCount: 2
Fore
SplineSet
129 0 m 1
 129 614 l 1
 36 614 l 1
 36 739 l 1
 262 739 l 1
 262 0 l 1
 129 0 l 1
EndSplineSet
Substitution2: "'tnum' Tabular Numbers lookup 5 subtable" one
EndChar

StartChar: two.fitted
Encoding: 429 57346 364
Width: 558
GlyphClass: 2
Flags: MW
HStem: 0 125<228 519 228 519> 630 122<247.5 312.5>
VStem: 36 131<484 521> 389 133<490 547>
AnchorPoint: "Anchor-0" 280 805 basechar 0
LayerCount: 2
Fore
SplineSet
41 0 m 1
 41 117 l 1
 304 366 l 2
 365 423 389 466 389 514 c 0
 389 580 343 630 282 630 c 0
 213 630 167 572 167 484 c 1
 36 484 l 1
 36 558 48 604 78 649 c 0
 121 713 197 752 281 752 c 0
 419 752 522 649 522 512 c 0
 522 421 487 360 379 262 c 2
 228 125 l 1
 519 125 l 1
 519 0 l 1
 41 0 l 1
EndSplineSet
Substitution2: "'tnum' Tabular Numbers lookup 5 subtable" two
EndChar

StartChar: three.fitted
Encoding: 430 57347 365
Width: 550
GlyphClass: 2
Flags: MW
HStem: -13 122<240.5 306.5 240.5 345.5> 356 128<222 222 222 244> 563 21G<74 209 74 74> 630 122<252.5 290>
VStem: 19 134<224 224> 336 133<544.5 580.5> 389 133<196.5 269.5>
AnchorPoint: "Anchor-0" 277 805 basechar 0
LayerCount: 2
Fore
SplineSet
222 356 m 1xfa
 222 484 l 1
 260 485 278 488 295 495 c 0
 322 507 336 529 336 560 c 0
 336 601 309 630 271 630 c 0
 234 630 215 609 209 563 c 1
 74 563 l 1
 79 625 92 658 125 692 c 0
 162 731 214 752 270 752 c 0
 384 752 469 667 469 553 c 0xfc
 469 496 450 457 407 426 c 1
 484 391 522 328 522 235 c 0
 522 92 417 -13 274 -13 c 0
 132 -13 27 85 19 224 c 1
 153 224 l 1
 162 154 208 109 273 109 c 0
 340 109 389 161 389 232 c 0
 389 307 333 356 244 356 c 2
 222 356 l 1xfa
EndSplineSet
Substitution2: "'tnum' Tabular Numbers lookup 5 subtable" three
EndChar

